%
M48
M72
T01C0.0600
T02C0.1200
%
T01
X11650Y7650
X8700Y9350
X11150Y10150
X12150Y10150
X14650Y9450
X16700Y9350
X19150Y10150
X20150Y10150
X22650Y9450
X24700Y9350
X27150Y10150
X28150Y10150
X28150Y11150
X27150Y11150
X27150Y12150
X28150Y12150
X30650Y12850
X32650Y12850
X35150Y12150
X36150Y12150
X36150Y11150
X35150Y11150
X35150Y10150
X36150Y10150
X38650Y9450
X40700Y9350
X43150Y10150
X44150Y10150
X46650Y9450
X44150Y11150
X43150Y11150
X43150Y12150
X44150Y12150
X46650Y12850
X43650Y14650
X40650Y12850
X38650Y12850
X35650Y14650
X27650Y14650
X24650Y12850
X22650Y12850
X20150Y12150
X19150Y12150
X19150Y11150
X20150Y11150
X16650Y12850
X14650Y12850
X12150Y12150
X11150Y12150
X11150Y11150
X12150Y11150
X8650Y12850
X11650Y14650
X19650Y14650
X30650Y9450
X32700Y9350
X35650Y7650
X27650Y7650
X19650Y7650
X43650Y7650
T02
X1650Y1650
X11650Y5150
X19650Y5150
X27650Y5150
X35650Y5150
X43650Y5150
X52650Y1650
X43650Y17150
X35650Y17150
X27650Y17150
X19650Y17150
X11650Y17150
X1650Y20150
X52650Y20150
M30
