G75*
G70*
%OFA0B0*%
%FSLAX24Y24*%
%IPPOS*%
%LPD*%
%AMOC8*
5,1,8,0,0,1.08239X$1,22.5*
%
%ADD10C,0.0110*%
%ADD11C,0.0080*%
D10*
X009715Y002715D02*
X010109Y002715D01*
X009912Y002715D02*
X009912Y003306D01*
X009715Y003109D01*
X011004Y003207D02*
X011004Y002813D01*
X011103Y002715D01*
X011299Y002715D01*
X011398Y002813D01*
X011398Y003010D01*
X011201Y003010D01*
X011398Y003207D02*
X011299Y003306D01*
X011103Y003306D01*
X011004Y003207D01*
X011649Y003207D02*
X011649Y002813D01*
X011747Y002715D01*
X011944Y002715D01*
X012042Y002813D01*
X012042Y003207D01*
X011944Y003306D01*
X011747Y003306D01*
X011649Y003207D01*
X012293Y003207D02*
X012293Y002813D01*
X012392Y002715D01*
X012588Y002715D01*
X012687Y002813D01*
X012687Y003207D01*
X012588Y003306D01*
X012392Y003306D01*
X012293Y003207D01*
X012938Y003306D02*
X012938Y002715D01*
X013233Y002715D01*
X013331Y002813D01*
X013331Y003207D01*
X013233Y003306D01*
X012938Y003306D01*
X013582Y003404D02*
X013582Y003010D01*
X013582Y002813D02*
X013582Y002715D01*
X017715Y002715D02*
X018109Y003109D01*
X018109Y003207D01*
X018010Y003306D01*
X017813Y003306D01*
X017715Y003207D01*
X017715Y002715D02*
X018109Y002715D01*
X019004Y002813D02*
X019004Y003207D01*
X019103Y003306D01*
X019299Y003306D01*
X019398Y003207D01*
X019398Y003010D02*
X019201Y003010D01*
X019398Y003010D02*
X019398Y002813D01*
X019299Y002715D01*
X019103Y002715D01*
X019004Y002813D01*
X019649Y002813D02*
X019747Y002715D01*
X019944Y002715D01*
X020042Y002813D01*
X020042Y003207D01*
X019944Y003306D01*
X019747Y003306D01*
X019649Y003207D01*
X019649Y002813D01*
X020293Y002813D02*
X020293Y003207D01*
X020392Y003306D01*
X020588Y003306D01*
X020687Y003207D01*
X020687Y002813D01*
X020588Y002715D01*
X020392Y002715D01*
X020293Y002813D01*
X020938Y002715D02*
X021233Y002715D01*
X021331Y002813D01*
X021331Y003207D01*
X021233Y003306D01*
X020938Y003306D01*
X020938Y002715D01*
X021582Y002715D02*
X021582Y002813D01*
X021582Y003010D02*
X021582Y003404D01*
X025715Y003207D02*
X025813Y003306D01*
X026010Y003306D01*
X026109Y003207D01*
X026109Y003109D01*
X026010Y003010D01*
X026109Y002912D01*
X026109Y002813D01*
X026010Y002715D01*
X025813Y002715D01*
X025715Y002813D01*
X025912Y003010D02*
X026010Y003010D01*
X027004Y002813D02*
X027103Y002715D01*
X027299Y002715D01*
X027398Y002813D01*
X027398Y003010D01*
X027201Y003010D01*
X027004Y003207D02*
X027004Y002813D01*
X027004Y003207D02*
X027103Y003306D01*
X027299Y003306D01*
X027398Y003207D01*
X027649Y003207D02*
X027649Y002813D01*
X027747Y002715D01*
X027944Y002715D01*
X028042Y002813D01*
X028042Y003207D01*
X027944Y003306D01*
X027747Y003306D01*
X027649Y003207D01*
X028293Y003207D02*
X028293Y002813D01*
X028392Y002715D01*
X028588Y002715D01*
X028687Y002813D01*
X028687Y003207D01*
X028588Y003306D01*
X028392Y003306D01*
X028293Y003207D01*
X028938Y003306D02*
X028938Y002715D01*
X029233Y002715D01*
X029331Y002813D01*
X029331Y003207D01*
X029233Y003306D01*
X028938Y003306D01*
X029582Y003404D02*
X029582Y003010D01*
X029582Y002813D02*
X029582Y002715D01*
X033715Y003010D02*
X034109Y003010D01*
X034010Y002715D02*
X034010Y003306D01*
X033715Y003010D01*
X035004Y002813D02*
X035103Y002715D01*
X035299Y002715D01*
X035398Y002813D01*
X035398Y003010D01*
X035201Y003010D01*
X035004Y003207D02*
X035004Y002813D01*
X035004Y003207D02*
X035103Y003306D01*
X035299Y003306D01*
X035398Y003207D01*
X035649Y003207D02*
X035649Y002813D01*
X035747Y002715D01*
X035944Y002715D01*
X036042Y002813D01*
X036042Y003207D01*
X035944Y003306D01*
X035747Y003306D01*
X035649Y003207D01*
X036293Y003207D02*
X036293Y002813D01*
X036392Y002715D01*
X036588Y002715D01*
X036687Y002813D01*
X036687Y003207D01*
X036588Y003306D01*
X036392Y003306D01*
X036293Y003207D01*
X036938Y003306D02*
X036938Y002715D01*
X037233Y002715D01*
X037331Y002813D01*
X037331Y003207D01*
X037233Y003306D01*
X036938Y003306D01*
X037582Y003404D02*
X037582Y003010D01*
X037582Y002813D02*
X037582Y002715D01*
X041715Y002813D02*
X041813Y002715D01*
X042010Y002715D01*
X042109Y002813D01*
X042109Y003010D01*
X042010Y003109D01*
X041912Y003109D01*
X041715Y003010D01*
X041715Y003306D01*
X042109Y003306D01*
X043004Y003207D02*
X043004Y002813D01*
X043103Y002715D01*
X043299Y002715D01*
X043398Y002813D01*
X043398Y003010D01*
X043201Y003010D01*
X043398Y003207D02*
X043299Y003306D01*
X043103Y003306D01*
X043004Y003207D01*
X043649Y003207D02*
X043649Y002813D01*
X043747Y002715D01*
X043944Y002715D01*
X044042Y002813D01*
X044042Y003207D01*
X043944Y003306D01*
X043747Y003306D01*
X043649Y003207D01*
X044293Y003207D02*
X044293Y002813D01*
X044392Y002715D01*
X044588Y002715D01*
X044687Y002813D01*
X044687Y003207D01*
X044588Y003306D01*
X044392Y003306D01*
X044293Y003207D01*
X044938Y003306D02*
X044938Y002715D01*
X045233Y002715D01*
X045331Y002813D01*
X045331Y003207D01*
X045233Y003306D01*
X044938Y003306D01*
X045582Y003404D02*
X045582Y003010D01*
X045582Y002813D02*
X045582Y002715D01*
X008605Y033014D02*
X008605Y033310D01*
X008408Y033211D01*
X008310Y033211D01*
X008211Y033310D01*
X008211Y033507D01*
X008310Y033605D01*
X008507Y033605D01*
X008605Y033507D01*
X008605Y033014D02*
X008211Y033014D01*
X007960Y033014D02*
X007960Y033408D01*
X007764Y033605D01*
X007567Y033408D01*
X007567Y033014D01*
D11*
X006872Y033879D02*
X003448Y033879D01*
X003448Y031892D01*
X003448Y030042D02*
X003448Y029546D01*
X004215Y029546D01*
X006105Y029546D02*
X006872Y029546D01*
X006872Y033879D01*
X011660Y033410D02*
X011660Y031910D01*
X011910Y031660D01*
X012410Y031660D01*
X012660Y031910D01*
X012660Y033410D01*
X012910Y033660D01*
X013410Y033660D01*
X013660Y033410D01*
X013660Y031910D01*
X013910Y031660D01*
X014410Y031660D01*
X014660Y031910D01*
X014660Y033410D01*
X014410Y033660D01*
X013910Y033660D01*
X013660Y033410D01*
X012660Y033410D02*
X012410Y033660D01*
X011910Y033660D01*
X011660Y033410D01*
X012660Y031910D02*
X012910Y031660D01*
X013410Y031660D01*
X013660Y031910D01*
X012410Y031528D02*
X011910Y031528D01*
X019660Y031910D02*
X019910Y031660D01*
X020410Y031660D01*
X020660Y031910D01*
X020660Y033410D01*
X020910Y033660D01*
X021410Y033660D01*
X021660Y033410D01*
X021660Y031910D01*
X021910Y031660D01*
X022410Y031660D01*
X022660Y031910D01*
X022660Y033410D01*
X022410Y033660D01*
X021910Y033660D01*
X021660Y033410D01*
X020660Y033410D02*
X020410Y033660D01*
X019910Y033660D01*
X019660Y033410D01*
X019660Y031910D01*
X019910Y031528D02*
X020410Y031528D01*
X020660Y031910D02*
X020910Y031660D01*
X021410Y031660D01*
X021660Y031910D01*
X027660Y031910D02*
X027660Y033410D01*
X027910Y033660D01*
X028410Y033660D01*
X028660Y033410D01*
X028660Y031910D01*
X028910Y031660D01*
X029410Y031660D01*
X029660Y031910D01*
X029660Y033410D01*
X029910Y033660D01*
X030410Y033660D01*
X030660Y033410D01*
X030660Y031910D01*
X030410Y031660D01*
X029910Y031660D01*
X029660Y031910D01*
X028660Y031910D02*
X028410Y031660D01*
X027910Y031660D01*
X027660Y031910D01*
X027910Y031528D02*
X028410Y031528D01*
X028660Y033410D02*
X028910Y033660D01*
X029410Y033660D01*
X029660Y033410D01*
X035660Y033410D02*
X035660Y031910D01*
X035910Y031660D01*
X036410Y031660D01*
X036660Y031910D01*
X036660Y033410D01*
X036910Y033660D01*
X037410Y033660D01*
X037660Y033410D01*
X037660Y031910D01*
X037910Y031660D01*
X038410Y031660D01*
X038660Y031910D01*
X038660Y033410D01*
X038410Y033660D01*
X037910Y033660D01*
X037660Y033410D01*
X036660Y033410D02*
X036410Y033660D01*
X035910Y033660D01*
X035660Y033410D01*
X036660Y031910D02*
X036910Y031660D01*
X037410Y031660D01*
X037660Y031910D01*
X036410Y031528D02*
X035910Y031528D01*
X043660Y031910D02*
X043910Y031660D01*
X044410Y031660D01*
X044660Y031910D01*
X044660Y033410D01*
X044910Y033660D01*
X045410Y033660D01*
X045660Y033410D01*
X045660Y031910D01*
X045910Y031660D01*
X046410Y031660D01*
X046660Y031910D01*
X046660Y033410D01*
X046410Y033660D01*
X045910Y033660D01*
X045660Y033410D01*
X044660Y033410D02*
X044410Y033660D01*
X043910Y033660D01*
X043660Y033410D01*
X043660Y031910D01*
X043910Y031528D02*
X044410Y031528D01*
X044660Y031910D02*
X044910Y031660D01*
X045410Y031660D01*
X045660Y031910D01*
X043910Y022160D02*
X043410Y022160D01*
X043410Y021160D02*
X043910Y021160D01*
X046160Y020110D02*
X046160Y019610D01*
X047160Y019610D02*
X047160Y020110D01*
X047160Y016710D02*
X047160Y016210D01*
X046160Y016210D02*
X046160Y016710D01*
X043910Y015160D02*
X043410Y015160D01*
X043410Y014160D02*
X043910Y014160D01*
X041210Y016110D02*
X041210Y016610D01*
X040210Y016610D02*
X040210Y016110D01*
X039160Y016210D02*
X039160Y016710D01*
X038160Y016710D02*
X038160Y016210D01*
X035910Y015160D02*
X035410Y015160D01*
X035410Y014160D02*
X035910Y014160D01*
X033210Y016110D02*
X033210Y016610D01*
X032210Y016610D02*
X032210Y016110D01*
X031160Y016210D02*
X031160Y016710D01*
X030160Y016710D02*
X030160Y016210D01*
X027910Y015160D02*
X027410Y015160D01*
X027410Y014160D02*
X027910Y014160D01*
X025210Y016110D02*
X025210Y016610D01*
X024210Y016610D02*
X024210Y016110D01*
X023160Y016210D02*
X023160Y016710D01*
X022160Y016710D02*
X022160Y016210D01*
X019910Y015160D02*
X019410Y015160D01*
X019410Y014160D02*
X019910Y014160D01*
X017210Y016110D02*
X017210Y016610D01*
X016210Y016610D02*
X016210Y016110D01*
X015160Y016210D02*
X015160Y016710D01*
X014160Y016710D02*
X014160Y016210D01*
X011910Y015160D02*
X011410Y015160D01*
X011410Y014160D02*
X011910Y014160D01*
X009210Y016110D02*
X009210Y016610D01*
X008210Y016610D02*
X008210Y016110D01*
X008410Y019360D02*
X008910Y019360D01*
X008910Y020360D02*
X008410Y020360D01*
X011410Y021160D02*
X011910Y021160D01*
X011910Y022160D02*
X011410Y022160D01*
X014160Y020110D02*
X014160Y019610D01*
X015160Y019610D02*
X015160Y020110D01*
X016410Y020360D02*
X016910Y020360D01*
X016910Y019360D02*
X016410Y019360D01*
X019410Y021160D02*
X019910Y021160D01*
X019910Y022160D02*
X019410Y022160D01*
X022160Y020110D02*
X022160Y019610D01*
X023160Y019610D02*
X023160Y020110D01*
X024410Y020360D02*
X024910Y020360D01*
X024910Y019360D02*
X024410Y019360D01*
X027410Y021160D02*
X027910Y021160D01*
X027910Y022160D02*
X027410Y022160D01*
X030160Y020110D02*
X030160Y019610D01*
X031160Y019610D02*
X031160Y020110D01*
X032410Y020360D02*
X032910Y020360D01*
X032910Y019360D02*
X032410Y019360D01*
X035410Y021160D02*
X035910Y021160D01*
X035910Y022160D02*
X035410Y022160D01*
X038160Y020110D02*
X038160Y019610D01*
X039160Y019610D02*
X039160Y020110D01*
X040410Y020360D02*
X040910Y020360D01*
X040910Y019360D02*
X040410Y019360D01*
X042715Y005054D02*
X042715Y004266D01*
X043266Y004266D01*
X043542Y004424D02*
X043778Y004660D01*
X043542Y004896D01*
X043542Y004424D01*
X043778Y004384D02*
X043778Y004660D01*
X043778Y004936D01*
X044054Y005054D02*
X044605Y005054D01*
X044605Y004266D01*
X044054Y004266D01*
X043266Y005054D02*
X042715Y005054D01*
X036605Y005054D02*
X036605Y004266D01*
X036054Y004266D01*
X035778Y004384D02*
X035778Y004660D01*
X035542Y004424D01*
X035542Y004896D01*
X035778Y004660D01*
X035778Y004936D01*
X036054Y005054D02*
X036605Y005054D01*
X035266Y005054D02*
X034715Y005054D01*
X034715Y004266D01*
X035266Y004266D01*
X028605Y004266D02*
X028054Y004266D01*
X027778Y004384D02*
X027778Y004660D01*
X027542Y004424D01*
X027542Y004896D01*
X027778Y004660D01*
X027778Y004936D01*
X028054Y005054D02*
X028605Y005054D01*
X028605Y004266D01*
X027266Y004266D02*
X026715Y004266D01*
X026715Y005054D01*
X027266Y005054D01*
X020605Y005054D02*
X020605Y004266D01*
X020054Y004266D01*
X019778Y004384D02*
X019778Y004660D01*
X019542Y004424D01*
X019542Y004896D01*
X019778Y004660D01*
X019778Y004936D01*
X020054Y005054D02*
X020605Y005054D01*
X019266Y005054D02*
X018715Y005054D01*
X018715Y004266D01*
X019266Y004266D01*
X012605Y004266D02*
X012054Y004266D01*
X011778Y004384D02*
X011778Y004660D01*
X011542Y004424D01*
X011542Y004896D01*
X011778Y004660D01*
X011778Y004936D01*
X012054Y005054D02*
X012605Y005054D01*
X012605Y004266D01*
X011266Y004266D02*
X010715Y004266D01*
X010715Y005054D01*
X011266Y005054D01*
M02*
