G75*
G70*
%OFA0B0*%
%FSLAX24Y24*%
%IPPOS*%
%LPD*%
%AMOC8*
5,1,8,0,0,1.08239X$1,22.5*
%
%ADD10R,0.0631X0.0710*%
%ADD11C,0.1740*%
%ADD12C,0.1700*%
%ADD13OC8,0.0820*%
%ADD14R,0.0474X0.0513*%
%ADD15C,0.1280*%
%ADD16R,0.0474X0.0789*%
%ADD17R,0.0297X0.0552*%
%ADD18C,0.0820*%
D10*
X008609Y025660D03*
X009711Y025660D03*
X009711Y029660D03*
X008609Y029660D03*
D11*
X005160Y029696D03*
D12*
X003679Y030947D03*
X005150Y032579D03*
D13*
X012160Y032160D03*
X012160Y033160D03*
X013160Y033160D03*
X013160Y032160D03*
X014160Y032160D03*
X014160Y033160D03*
X020160Y033160D03*
X021160Y033160D03*
X021160Y032160D03*
X020160Y032160D03*
X022160Y032160D03*
X022160Y033160D03*
X028160Y033160D03*
X028160Y032160D03*
X029160Y032160D03*
X029160Y033160D03*
X030160Y033160D03*
X030160Y032160D03*
X036160Y032160D03*
X036160Y033160D03*
X037160Y033160D03*
X037160Y032160D03*
X038160Y032160D03*
X038160Y033160D03*
X044160Y033160D03*
X044160Y032160D03*
X045160Y032160D03*
X046160Y032160D03*
X046160Y033160D03*
X045160Y033160D03*
D14*
X043660Y007995D03*
X043660Y007325D03*
X035660Y007325D03*
X035660Y007995D03*
X027660Y007995D03*
X027660Y007325D03*
X019660Y007325D03*
X019660Y007995D03*
X011660Y007995D03*
X011660Y007325D03*
D15*
X001660Y001660D03*
X001660Y008660D03*
X015660Y013660D03*
X023660Y022660D03*
X031660Y013660D03*
X039660Y022660D03*
X052660Y027160D03*
X052660Y032660D03*
X052660Y008660D03*
X052660Y001660D03*
X001660Y027160D03*
X001660Y032660D03*
D16*
X008609Y031160D03*
X009711Y031160D03*
D17*
X009534Y028172D03*
X009160Y028172D03*
X008786Y028172D03*
X008786Y027148D03*
X009534Y027148D03*
D18*
X011290Y021660D02*
X012030Y021660D01*
X014660Y020230D02*
X014660Y019490D01*
X016290Y019860D02*
X017030Y019860D01*
X018420Y019160D02*
X019160Y019160D01*
X020160Y019160D02*
X020900Y019160D01*
X020900Y018160D02*
X020160Y018160D01*
X020160Y017160D02*
X020900Y017160D01*
X019160Y017160D02*
X018420Y017160D01*
X018420Y018160D02*
X019160Y018160D01*
X016710Y016730D02*
X016710Y015990D01*
X014660Y016090D02*
X014660Y016830D01*
X012900Y017160D02*
X012160Y017160D01*
X012160Y018160D02*
X012900Y018160D01*
X012900Y019160D02*
X012160Y019160D01*
X011160Y019160D02*
X010420Y019160D01*
X010420Y018160D02*
X011160Y018160D01*
X011160Y017160D02*
X010420Y017160D01*
X008710Y016730D02*
X008710Y015990D01*
X011290Y014660D02*
X012030Y014660D01*
X019290Y014660D02*
X020030Y014660D01*
X022660Y016090D02*
X022660Y016830D01*
X024710Y016730D02*
X024710Y015990D01*
X026420Y017160D02*
X027160Y017160D01*
X028160Y017160D02*
X028900Y017160D01*
X028900Y018160D02*
X028160Y018160D01*
X027160Y018160D02*
X026420Y018160D01*
X026420Y019160D02*
X027160Y019160D01*
X028160Y019160D02*
X028900Y019160D01*
X030660Y019490D02*
X030660Y020230D01*
X032290Y019860D02*
X033030Y019860D01*
X034420Y019160D02*
X035160Y019160D01*
X036160Y019160D02*
X036900Y019160D01*
X036900Y018160D02*
X036160Y018160D01*
X036160Y017160D02*
X036900Y017160D01*
X035160Y017160D02*
X034420Y017160D01*
X034420Y018160D02*
X035160Y018160D01*
X032710Y016730D02*
X032710Y015990D01*
X030660Y016090D02*
X030660Y016830D01*
X028030Y014660D02*
X027290Y014660D01*
X022660Y019490D02*
X022660Y020230D01*
X024290Y019860D02*
X025030Y019860D01*
X027290Y021660D02*
X028030Y021660D01*
X035290Y021660D02*
X036030Y021660D01*
X038660Y020230D02*
X038660Y019490D01*
X040290Y019860D02*
X041030Y019860D01*
X042420Y019160D02*
X043160Y019160D01*
X044160Y019160D02*
X044900Y019160D01*
X044900Y018160D02*
X044160Y018160D01*
X044160Y017160D02*
X044900Y017160D01*
X043160Y017160D02*
X042420Y017160D01*
X042420Y018160D02*
X043160Y018160D01*
X040710Y016730D02*
X040710Y015990D01*
X038660Y016090D02*
X038660Y016830D01*
X036030Y014660D02*
X035290Y014660D01*
X043290Y014660D02*
X044030Y014660D01*
X046660Y016090D02*
X046660Y016830D01*
X046660Y019490D02*
X046660Y020230D01*
X044030Y021660D02*
X043290Y021660D01*
X020030Y021660D02*
X019290Y021660D01*
X009030Y019860D02*
X008290Y019860D01*
M02*
