G75*
G70*
%OFA0B0*%
%FSLAX24Y24*%
%IPPOS*%
%LPD*%
%AMOC8*
5,1,8,0,0,1.08239X$1,22.5*
%
%ADD10C,0.0100*%
%ADD11C,0.0000*%
D10*
X001150Y000150D02*
X053150Y000150D01*
X053210Y000152D01*
X053271Y000157D01*
X053330Y000166D01*
X053389Y000179D01*
X053448Y000195D01*
X053505Y000215D01*
X053560Y000238D01*
X053615Y000265D01*
X053667Y000294D01*
X053718Y000327D01*
X053767Y000363D01*
X053813Y000401D01*
X053857Y000443D01*
X053899Y000487D01*
X053937Y000533D01*
X053973Y000582D01*
X054006Y000633D01*
X054035Y000685D01*
X054062Y000740D01*
X054085Y000795D01*
X054105Y000852D01*
X054121Y000911D01*
X054134Y000970D01*
X054143Y001029D01*
X054148Y001090D01*
X054150Y001150D01*
X054150Y004150D01*
X054148Y004210D01*
X054143Y004271D01*
X054134Y004330D01*
X054121Y004389D01*
X054105Y004448D01*
X054085Y004505D01*
X054062Y004560D01*
X054035Y004615D01*
X054006Y004667D01*
X053973Y004718D01*
X053937Y004767D01*
X053899Y004813D01*
X053857Y004857D01*
X053813Y004899D01*
X053767Y004937D01*
X053718Y004973D01*
X053667Y005006D01*
X053615Y005035D01*
X053560Y005062D01*
X053505Y005085D01*
X053448Y005105D01*
X053389Y005121D01*
X053330Y005134D01*
X053271Y005143D01*
X053210Y005148D01*
X053150Y005150D01*
X048650Y005150D01*
X048590Y005152D01*
X048529Y005157D01*
X048470Y005166D01*
X048411Y005179D01*
X048352Y005195D01*
X048295Y005215D01*
X048240Y005238D01*
X048185Y005265D01*
X048133Y005294D01*
X048082Y005327D01*
X048033Y005363D01*
X047987Y005401D01*
X047943Y005443D01*
X047901Y005487D01*
X047863Y005533D01*
X047827Y005582D01*
X047794Y005633D01*
X047765Y005685D01*
X047738Y005740D01*
X047715Y005795D01*
X047695Y005852D01*
X047679Y005911D01*
X047666Y005970D01*
X047657Y006029D01*
X047652Y006090D01*
X047650Y006150D01*
X047650Y012150D01*
X047652Y012210D01*
X047657Y012271D01*
X047666Y012330D01*
X047679Y012389D01*
X047695Y012448D01*
X047715Y012505D01*
X047738Y012560D01*
X047765Y012615D01*
X047794Y012667D01*
X047827Y012718D01*
X047863Y012767D01*
X047901Y012813D01*
X047943Y012857D01*
X047987Y012899D01*
X048033Y012937D01*
X048082Y012973D01*
X048133Y013006D01*
X048185Y013035D01*
X048240Y013062D01*
X048295Y013085D01*
X048352Y013105D01*
X048411Y013121D01*
X048470Y013134D01*
X048529Y013143D01*
X048590Y013148D01*
X048650Y013150D01*
X053150Y013150D01*
X053210Y013152D01*
X053271Y013157D01*
X053330Y013166D01*
X053389Y013179D01*
X053448Y013195D01*
X053505Y013215D01*
X053560Y013238D01*
X053615Y013265D01*
X053667Y013294D01*
X053718Y013327D01*
X053767Y013363D01*
X053813Y013401D01*
X053857Y013443D01*
X053899Y013487D01*
X053937Y013533D01*
X053973Y013582D01*
X054006Y013633D01*
X054035Y013685D01*
X054062Y013740D01*
X054085Y013795D01*
X054105Y013852D01*
X054121Y013911D01*
X054134Y013970D01*
X054143Y014029D01*
X054148Y014090D01*
X054150Y014150D01*
X054150Y020650D01*
X054148Y020710D01*
X054143Y020771D01*
X054134Y020830D01*
X054121Y020889D01*
X054105Y020948D01*
X054085Y021005D01*
X054062Y021060D01*
X054035Y021115D01*
X054006Y021167D01*
X053973Y021218D01*
X053937Y021267D01*
X053899Y021313D01*
X053857Y021357D01*
X053813Y021399D01*
X053767Y021437D01*
X053718Y021473D01*
X053667Y021506D01*
X053615Y021535D01*
X053560Y021562D01*
X053505Y021585D01*
X053448Y021605D01*
X053389Y021621D01*
X053330Y021634D01*
X053271Y021643D01*
X053210Y021648D01*
X053150Y021650D01*
X001150Y021650D01*
X001090Y021648D01*
X001029Y021643D01*
X000970Y021634D01*
X000911Y021621D01*
X000852Y021605D01*
X000795Y021585D01*
X000740Y021562D01*
X000685Y021535D01*
X000633Y021506D01*
X000582Y021473D01*
X000533Y021437D01*
X000487Y021399D01*
X000443Y021357D01*
X000401Y021313D01*
X000363Y021267D01*
X000327Y021218D01*
X000294Y021167D01*
X000265Y021115D01*
X000238Y021060D01*
X000215Y021005D01*
X000195Y020948D01*
X000179Y020889D01*
X000166Y020830D01*
X000157Y020771D01*
X000152Y020710D01*
X000150Y020650D01*
X000150Y001150D01*
X000152Y001090D01*
X000157Y001029D01*
X000166Y000970D01*
X000179Y000911D01*
X000195Y000852D01*
X000215Y000795D01*
X000238Y000740D01*
X000265Y000685D01*
X000294Y000633D01*
X000327Y000582D01*
X000363Y000533D01*
X000401Y000487D01*
X000443Y000443D01*
X000487Y000401D01*
X000533Y000363D01*
X000582Y000327D01*
X000633Y000294D01*
X000685Y000265D01*
X000740Y000238D01*
X000795Y000215D01*
X000852Y000195D01*
X000911Y000179D01*
X000970Y000166D01*
X001029Y000157D01*
X001090Y000152D01*
X001150Y000150D01*
D11*
X001050Y001650D02*
X001052Y001699D01*
X001058Y001747D01*
X001068Y001795D01*
X001082Y001842D01*
X001099Y001888D01*
X001120Y001932D01*
X001145Y001974D01*
X001173Y002014D01*
X001205Y002052D01*
X001239Y002087D01*
X001276Y002119D01*
X001315Y002148D01*
X001357Y002174D01*
X001401Y002196D01*
X001446Y002214D01*
X001493Y002229D01*
X001540Y002240D01*
X001589Y002247D01*
X001638Y002250D01*
X001687Y002249D01*
X001735Y002244D01*
X001784Y002235D01*
X001831Y002222D01*
X001877Y002205D01*
X001921Y002185D01*
X001964Y002161D01*
X002005Y002134D01*
X002043Y002103D01*
X002079Y002070D01*
X002111Y002034D01*
X002141Y001995D01*
X002168Y001954D01*
X002191Y001910D01*
X002210Y001865D01*
X002226Y001819D01*
X002238Y001772D01*
X002246Y001723D01*
X002250Y001674D01*
X002250Y001626D01*
X002246Y001577D01*
X002238Y001528D01*
X002226Y001481D01*
X002210Y001435D01*
X002191Y001390D01*
X002168Y001346D01*
X002141Y001305D01*
X002111Y001266D01*
X002079Y001230D01*
X002043Y001197D01*
X002005Y001166D01*
X001964Y001139D01*
X001921Y001115D01*
X001877Y001095D01*
X001831Y001078D01*
X001784Y001065D01*
X001735Y001056D01*
X001687Y001051D01*
X001638Y001050D01*
X001589Y001053D01*
X001540Y001060D01*
X001493Y001071D01*
X001446Y001086D01*
X001401Y001104D01*
X001357Y001126D01*
X001315Y001152D01*
X001276Y001181D01*
X001239Y001213D01*
X001205Y001248D01*
X001173Y001286D01*
X001145Y001326D01*
X001120Y001368D01*
X001099Y001412D01*
X001082Y001458D01*
X001068Y001505D01*
X001058Y001553D01*
X001052Y001601D01*
X001050Y001650D01*
X011050Y005150D02*
X011052Y005199D01*
X011058Y005247D01*
X011068Y005295D01*
X011082Y005342D01*
X011099Y005388D01*
X011120Y005432D01*
X011145Y005474D01*
X011173Y005514D01*
X011205Y005552D01*
X011239Y005587D01*
X011276Y005619D01*
X011315Y005648D01*
X011357Y005674D01*
X011401Y005696D01*
X011446Y005714D01*
X011493Y005729D01*
X011540Y005740D01*
X011589Y005747D01*
X011638Y005750D01*
X011687Y005749D01*
X011735Y005744D01*
X011784Y005735D01*
X011831Y005722D01*
X011877Y005705D01*
X011921Y005685D01*
X011964Y005661D01*
X012005Y005634D01*
X012043Y005603D01*
X012079Y005570D01*
X012111Y005534D01*
X012141Y005495D01*
X012168Y005454D01*
X012191Y005410D01*
X012210Y005365D01*
X012226Y005319D01*
X012238Y005272D01*
X012246Y005223D01*
X012250Y005174D01*
X012250Y005126D01*
X012246Y005077D01*
X012238Y005028D01*
X012226Y004981D01*
X012210Y004935D01*
X012191Y004890D01*
X012168Y004846D01*
X012141Y004805D01*
X012111Y004766D01*
X012079Y004730D01*
X012043Y004697D01*
X012005Y004666D01*
X011964Y004639D01*
X011921Y004615D01*
X011877Y004595D01*
X011831Y004578D01*
X011784Y004565D01*
X011735Y004556D01*
X011687Y004551D01*
X011638Y004550D01*
X011589Y004553D01*
X011540Y004560D01*
X011493Y004571D01*
X011446Y004586D01*
X011401Y004604D01*
X011357Y004626D01*
X011315Y004652D01*
X011276Y004681D01*
X011239Y004713D01*
X011205Y004748D01*
X011173Y004786D01*
X011145Y004826D01*
X011120Y004868D01*
X011099Y004912D01*
X011082Y004958D01*
X011068Y005005D01*
X011058Y005053D01*
X011052Y005101D01*
X011050Y005150D01*
X011350Y007650D02*
X011352Y007684D01*
X011358Y007718D01*
X011367Y007751D01*
X011381Y007782D01*
X011398Y007812D01*
X011418Y007840D01*
X011441Y007865D01*
X011467Y007888D01*
X011495Y007907D01*
X011525Y007923D01*
X011557Y007935D01*
X011590Y007944D01*
X011624Y007949D01*
X011659Y007950D01*
X011693Y007947D01*
X011726Y007940D01*
X011759Y007930D01*
X011790Y007915D01*
X011819Y007898D01*
X011846Y007877D01*
X011871Y007853D01*
X011893Y007826D01*
X011911Y007798D01*
X011926Y007767D01*
X011938Y007735D01*
X011946Y007701D01*
X011950Y007667D01*
X011950Y007633D01*
X011946Y007599D01*
X011938Y007565D01*
X011926Y007533D01*
X011911Y007502D01*
X011893Y007474D01*
X011871Y007447D01*
X011846Y007423D01*
X011819Y007402D01*
X011790Y007385D01*
X011759Y007370D01*
X011726Y007360D01*
X011693Y007353D01*
X011659Y007350D01*
X011624Y007351D01*
X011590Y007356D01*
X011557Y007365D01*
X011525Y007377D01*
X011495Y007393D01*
X011467Y007412D01*
X011441Y007435D01*
X011418Y007460D01*
X011398Y007488D01*
X011381Y007518D01*
X011367Y007549D01*
X011358Y007582D01*
X011352Y007616D01*
X011350Y007650D01*
X008400Y009350D02*
X008402Y009384D01*
X008408Y009418D01*
X008417Y009451D01*
X008431Y009482D01*
X008448Y009512D01*
X008468Y009540D01*
X008491Y009565D01*
X008517Y009588D01*
X008545Y009607D01*
X008575Y009623D01*
X008607Y009635D01*
X008640Y009644D01*
X008674Y009649D01*
X008709Y009650D01*
X008743Y009647D01*
X008776Y009640D01*
X008809Y009630D01*
X008840Y009615D01*
X008869Y009598D01*
X008896Y009577D01*
X008921Y009553D01*
X008943Y009526D01*
X008961Y009498D01*
X008976Y009467D01*
X008988Y009435D01*
X008996Y009401D01*
X009000Y009367D01*
X009000Y009333D01*
X008996Y009299D01*
X008988Y009265D01*
X008976Y009233D01*
X008961Y009202D01*
X008943Y009174D01*
X008921Y009147D01*
X008896Y009123D01*
X008869Y009102D01*
X008840Y009085D01*
X008809Y009070D01*
X008776Y009060D01*
X008743Y009053D01*
X008709Y009050D01*
X008674Y009051D01*
X008640Y009056D01*
X008607Y009065D01*
X008575Y009077D01*
X008545Y009093D01*
X008517Y009112D01*
X008491Y009135D01*
X008468Y009160D01*
X008448Y009188D01*
X008431Y009218D01*
X008417Y009249D01*
X008408Y009282D01*
X008402Y009316D01*
X008400Y009350D01*
X010850Y010150D02*
X010852Y010184D01*
X010858Y010218D01*
X010867Y010251D01*
X010881Y010282D01*
X010898Y010312D01*
X010918Y010340D01*
X010941Y010365D01*
X010967Y010388D01*
X010995Y010407D01*
X011025Y010423D01*
X011057Y010435D01*
X011090Y010444D01*
X011124Y010449D01*
X011159Y010450D01*
X011193Y010447D01*
X011226Y010440D01*
X011259Y010430D01*
X011290Y010415D01*
X011319Y010398D01*
X011346Y010377D01*
X011371Y010353D01*
X011393Y010326D01*
X011411Y010298D01*
X011426Y010267D01*
X011438Y010235D01*
X011446Y010201D01*
X011450Y010167D01*
X011450Y010133D01*
X011446Y010099D01*
X011438Y010065D01*
X011426Y010033D01*
X011411Y010002D01*
X011393Y009974D01*
X011371Y009947D01*
X011346Y009923D01*
X011319Y009902D01*
X011290Y009885D01*
X011259Y009870D01*
X011226Y009860D01*
X011193Y009853D01*
X011159Y009850D01*
X011124Y009851D01*
X011090Y009856D01*
X011057Y009865D01*
X011025Y009877D01*
X010995Y009893D01*
X010967Y009912D01*
X010941Y009935D01*
X010918Y009960D01*
X010898Y009988D01*
X010881Y010018D01*
X010867Y010049D01*
X010858Y010082D01*
X010852Y010116D01*
X010850Y010150D01*
X011850Y010150D02*
X011852Y010184D01*
X011858Y010218D01*
X011867Y010251D01*
X011881Y010282D01*
X011898Y010312D01*
X011918Y010340D01*
X011941Y010365D01*
X011967Y010388D01*
X011995Y010407D01*
X012025Y010423D01*
X012057Y010435D01*
X012090Y010444D01*
X012124Y010449D01*
X012159Y010450D01*
X012193Y010447D01*
X012226Y010440D01*
X012259Y010430D01*
X012290Y010415D01*
X012319Y010398D01*
X012346Y010377D01*
X012371Y010353D01*
X012393Y010326D01*
X012411Y010298D01*
X012426Y010267D01*
X012438Y010235D01*
X012446Y010201D01*
X012450Y010167D01*
X012450Y010133D01*
X012446Y010099D01*
X012438Y010065D01*
X012426Y010033D01*
X012411Y010002D01*
X012393Y009974D01*
X012371Y009947D01*
X012346Y009923D01*
X012319Y009902D01*
X012290Y009885D01*
X012259Y009870D01*
X012226Y009860D01*
X012193Y009853D01*
X012159Y009850D01*
X012124Y009851D01*
X012090Y009856D01*
X012057Y009865D01*
X012025Y009877D01*
X011995Y009893D01*
X011967Y009912D01*
X011941Y009935D01*
X011918Y009960D01*
X011898Y009988D01*
X011881Y010018D01*
X011867Y010049D01*
X011858Y010082D01*
X011852Y010116D01*
X011850Y010150D01*
X011850Y011150D02*
X011852Y011184D01*
X011858Y011218D01*
X011867Y011251D01*
X011881Y011282D01*
X011898Y011312D01*
X011918Y011340D01*
X011941Y011365D01*
X011967Y011388D01*
X011995Y011407D01*
X012025Y011423D01*
X012057Y011435D01*
X012090Y011444D01*
X012124Y011449D01*
X012159Y011450D01*
X012193Y011447D01*
X012226Y011440D01*
X012259Y011430D01*
X012290Y011415D01*
X012319Y011398D01*
X012346Y011377D01*
X012371Y011353D01*
X012393Y011326D01*
X012411Y011298D01*
X012426Y011267D01*
X012438Y011235D01*
X012446Y011201D01*
X012450Y011167D01*
X012450Y011133D01*
X012446Y011099D01*
X012438Y011065D01*
X012426Y011033D01*
X012411Y011002D01*
X012393Y010974D01*
X012371Y010947D01*
X012346Y010923D01*
X012319Y010902D01*
X012290Y010885D01*
X012259Y010870D01*
X012226Y010860D01*
X012193Y010853D01*
X012159Y010850D01*
X012124Y010851D01*
X012090Y010856D01*
X012057Y010865D01*
X012025Y010877D01*
X011995Y010893D01*
X011967Y010912D01*
X011941Y010935D01*
X011918Y010960D01*
X011898Y010988D01*
X011881Y011018D01*
X011867Y011049D01*
X011858Y011082D01*
X011852Y011116D01*
X011850Y011150D01*
X010850Y011150D02*
X010852Y011184D01*
X010858Y011218D01*
X010867Y011251D01*
X010881Y011282D01*
X010898Y011312D01*
X010918Y011340D01*
X010941Y011365D01*
X010967Y011388D01*
X010995Y011407D01*
X011025Y011423D01*
X011057Y011435D01*
X011090Y011444D01*
X011124Y011449D01*
X011159Y011450D01*
X011193Y011447D01*
X011226Y011440D01*
X011259Y011430D01*
X011290Y011415D01*
X011319Y011398D01*
X011346Y011377D01*
X011371Y011353D01*
X011393Y011326D01*
X011411Y011298D01*
X011426Y011267D01*
X011438Y011235D01*
X011446Y011201D01*
X011450Y011167D01*
X011450Y011133D01*
X011446Y011099D01*
X011438Y011065D01*
X011426Y011033D01*
X011411Y011002D01*
X011393Y010974D01*
X011371Y010947D01*
X011346Y010923D01*
X011319Y010902D01*
X011290Y010885D01*
X011259Y010870D01*
X011226Y010860D01*
X011193Y010853D01*
X011159Y010850D01*
X011124Y010851D01*
X011090Y010856D01*
X011057Y010865D01*
X011025Y010877D01*
X010995Y010893D01*
X010967Y010912D01*
X010941Y010935D01*
X010918Y010960D01*
X010898Y010988D01*
X010881Y011018D01*
X010867Y011049D01*
X010858Y011082D01*
X010852Y011116D01*
X010850Y011150D01*
X010850Y012150D02*
X010852Y012184D01*
X010858Y012218D01*
X010867Y012251D01*
X010881Y012282D01*
X010898Y012312D01*
X010918Y012340D01*
X010941Y012365D01*
X010967Y012388D01*
X010995Y012407D01*
X011025Y012423D01*
X011057Y012435D01*
X011090Y012444D01*
X011124Y012449D01*
X011159Y012450D01*
X011193Y012447D01*
X011226Y012440D01*
X011259Y012430D01*
X011290Y012415D01*
X011319Y012398D01*
X011346Y012377D01*
X011371Y012353D01*
X011393Y012326D01*
X011411Y012298D01*
X011426Y012267D01*
X011438Y012235D01*
X011446Y012201D01*
X011450Y012167D01*
X011450Y012133D01*
X011446Y012099D01*
X011438Y012065D01*
X011426Y012033D01*
X011411Y012002D01*
X011393Y011974D01*
X011371Y011947D01*
X011346Y011923D01*
X011319Y011902D01*
X011290Y011885D01*
X011259Y011870D01*
X011226Y011860D01*
X011193Y011853D01*
X011159Y011850D01*
X011124Y011851D01*
X011090Y011856D01*
X011057Y011865D01*
X011025Y011877D01*
X010995Y011893D01*
X010967Y011912D01*
X010941Y011935D01*
X010918Y011960D01*
X010898Y011988D01*
X010881Y012018D01*
X010867Y012049D01*
X010858Y012082D01*
X010852Y012116D01*
X010850Y012150D01*
X011850Y012150D02*
X011852Y012184D01*
X011858Y012218D01*
X011867Y012251D01*
X011881Y012282D01*
X011898Y012312D01*
X011918Y012340D01*
X011941Y012365D01*
X011967Y012388D01*
X011995Y012407D01*
X012025Y012423D01*
X012057Y012435D01*
X012090Y012444D01*
X012124Y012449D01*
X012159Y012450D01*
X012193Y012447D01*
X012226Y012440D01*
X012259Y012430D01*
X012290Y012415D01*
X012319Y012398D01*
X012346Y012377D01*
X012371Y012353D01*
X012393Y012326D01*
X012411Y012298D01*
X012426Y012267D01*
X012438Y012235D01*
X012446Y012201D01*
X012450Y012167D01*
X012450Y012133D01*
X012446Y012099D01*
X012438Y012065D01*
X012426Y012033D01*
X012411Y012002D01*
X012393Y011974D01*
X012371Y011947D01*
X012346Y011923D01*
X012319Y011902D01*
X012290Y011885D01*
X012259Y011870D01*
X012226Y011860D01*
X012193Y011853D01*
X012159Y011850D01*
X012124Y011851D01*
X012090Y011856D01*
X012057Y011865D01*
X012025Y011877D01*
X011995Y011893D01*
X011967Y011912D01*
X011941Y011935D01*
X011918Y011960D01*
X011898Y011988D01*
X011881Y012018D01*
X011867Y012049D01*
X011858Y012082D01*
X011852Y012116D01*
X011850Y012150D01*
X014350Y012850D02*
X014352Y012884D01*
X014358Y012918D01*
X014367Y012951D01*
X014381Y012982D01*
X014398Y013012D01*
X014418Y013040D01*
X014441Y013065D01*
X014467Y013088D01*
X014495Y013107D01*
X014525Y013123D01*
X014557Y013135D01*
X014590Y013144D01*
X014624Y013149D01*
X014659Y013150D01*
X014693Y013147D01*
X014726Y013140D01*
X014759Y013130D01*
X014790Y013115D01*
X014819Y013098D01*
X014846Y013077D01*
X014871Y013053D01*
X014893Y013026D01*
X014911Y012998D01*
X014926Y012967D01*
X014938Y012935D01*
X014946Y012901D01*
X014950Y012867D01*
X014950Y012833D01*
X014946Y012799D01*
X014938Y012765D01*
X014926Y012733D01*
X014911Y012702D01*
X014893Y012674D01*
X014871Y012647D01*
X014846Y012623D01*
X014819Y012602D01*
X014790Y012585D01*
X014759Y012570D01*
X014726Y012560D01*
X014693Y012553D01*
X014659Y012550D01*
X014624Y012551D01*
X014590Y012556D01*
X014557Y012565D01*
X014525Y012577D01*
X014495Y012593D01*
X014467Y012612D01*
X014441Y012635D01*
X014418Y012660D01*
X014398Y012688D01*
X014381Y012718D01*
X014367Y012749D01*
X014358Y012782D01*
X014352Y012816D01*
X014350Y012850D01*
X016350Y012850D02*
X016352Y012884D01*
X016358Y012918D01*
X016367Y012951D01*
X016381Y012982D01*
X016398Y013012D01*
X016418Y013040D01*
X016441Y013065D01*
X016467Y013088D01*
X016495Y013107D01*
X016525Y013123D01*
X016557Y013135D01*
X016590Y013144D01*
X016624Y013149D01*
X016659Y013150D01*
X016693Y013147D01*
X016726Y013140D01*
X016759Y013130D01*
X016790Y013115D01*
X016819Y013098D01*
X016846Y013077D01*
X016871Y013053D01*
X016893Y013026D01*
X016911Y012998D01*
X016926Y012967D01*
X016938Y012935D01*
X016946Y012901D01*
X016950Y012867D01*
X016950Y012833D01*
X016946Y012799D01*
X016938Y012765D01*
X016926Y012733D01*
X016911Y012702D01*
X016893Y012674D01*
X016871Y012647D01*
X016846Y012623D01*
X016819Y012602D01*
X016790Y012585D01*
X016759Y012570D01*
X016726Y012560D01*
X016693Y012553D01*
X016659Y012550D01*
X016624Y012551D01*
X016590Y012556D01*
X016557Y012565D01*
X016525Y012577D01*
X016495Y012593D01*
X016467Y012612D01*
X016441Y012635D01*
X016418Y012660D01*
X016398Y012688D01*
X016381Y012718D01*
X016367Y012749D01*
X016358Y012782D01*
X016352Y012816D01*
X016350Y012850D01*
X018850Y012150D02*
X018852Y012184D01*
X018858Y012218D01*
X018867Y012251D01*
X018881Y012282D01*
X018898Y012312D01*
X018918Y012340D01*
X018941Y012365D01*
X018967Y012388D01*
X018995Y012407D01*
X019025Y012423D01*
X019057Y012435D01*
X019090Y012444D01*
X019124Y012449D01*
X019159Y012450D01*
X019193Y012447D01*
X019226Y012440D01*
X019259Y012430D01*
X019290Y012415D01*
X019319Y012398D01*
X019346Y012377D01*
X019371Y012353D01*
X019393Y012326D01*
X019411Y012298D01*
X019426Y012267D01*
X019438Y012235D01*
X019446Y012201D01*
X019450Y012167D01*
X019450Y012133D01*
X019446Y012099D01*
X019438Y012065D01*
X019426Y012033D01*
X019411Y012002D01*
X019393Y011974D01*
X019371Y011947D01*
X019346Y011923D01*
X019319Y011902D01*
X019290Y011885D01*
X019259Y011870D01*
X019226Y011860D01*
X019193Y011853D01*
X019159Y011850D01*
X019124Y011851D01*
X019090Y011856D01*
X019057Y011865D01*
X019025Y011877D01*
X018995Y011893D01*
X018967Y011912D01*
X018941Y011935D01*
X018918Y011960D01*
X018898Y011988D01*
X018881Y012018D01*
X018867Y012049D01*
X018858Y012082D01*
X018852Y012116D01*
X018850Y012150D01*
X019850Y012150D02*
X019852Y012184D01*
X019858Y012218D01*
X019867Y012251D01*
X019881Y012282D01*
X019898Y012312D01*
X019918Y012340D01*
X019941Y012365D01*
X019967Y012388D01*
X019995Y012407D01*
X020025Y012423D01*
X020057Y012435D01*
X020090Y012444D01*
X020124Y012449D01*
X020159Y012450D01*
X020193Y012447D01*
X020226Y012440D01*
X020259Y012430D01*
X020290Y012415D01*
X020319Y012398D01*
X020346Y012377D01*
X020371Y012353D01*
X020393Y012326D01*
X020411Y012298D01*
X020426Y012267D01*
X020438Y012235D01*
X020446Y012201D01*
X020450Y012167D01*
X020450Y012133D01*
X020446Y012099D01*
X020438Y012065D01*
X020426Y012033D01*
X020411Y012002D01*
X020393Y011974D01*
X020371Y011947D01*
X020346Y011923D01*
X020319Y011902D01*
X020290Y011885D01*
X020259Y011870D01*
X020226Y011860D01*
X020193Y011853D01*
X020159Y011850D01*
X020124Y011851D01*
X020090Y011856D01*
X020057Y011865D01*
X020025Y011877D01*
X019995Y011893D01*
X019967Y011912D01*
X019941Y011935D01*
X019918Y011960D01*
X019898Y011988D01*
X019881Y012018D01*
X019867Y012049D01*
X019858Y012082D01*
X019852Y012116D01*
X019850Y012150D01*
X019850Y011150D02*
X019852Y011184D01*
X019858Y011218D01*
X019867Y011251D01*
X019881Y011282D01*
X019898Y011312D01*
X019918Y011340D01*
X019941Y011365D01*
X019967Y011388D01*
X019995Y011407D01*
X020025Y011423D01*
X020057Y011435D01*
X020090Y011444D01*
X020124Y011449D01*
X020159Y011450D01*
X020193Y011447D01*
X020226Y011440D01*
X020259Y011430D01*
X020290Y011415D01*
X020319Y011398D01*
X020346Y011377D01*
X020371Y011353D01*
X020393Y011326D01*
X020411Y011298D01*
X020426Y011267D01*
X020438Y011235D01*
X020446Y011201D01*
X020450Y011167D01*
X020450Y011133D01*
X020446Y011099D01*
X020438Y011065D01*
X020426Y011033D01*
X020411Y011002D01*
X020393Y010974D01*
X020371Y010947D01*
X020346Y010923D01*
X020319Y010902D01*
X020290Y010885D01*
X020259Y010870D01*
X020226Y010860D01*
X020193Y010853D01*
X020159Y010850D01*
X020124Y010851D01*
X020090Y010856D01*
X020057Y010865D01*
X020025Y010877D01*
X019995Y010893D01*
X019967Y010912D01*
X019941Y010935D01*
X019918Y010960D01*
X019898Y010988D01*
X019881Y011018D01*
X019867Y011049D01*
X019858Y011082D01*
X019852Y011116D01*
X019850Y011150D01*
X018850Y011150D02*
X018852Y011184D01*
X018858Y011218D01*
X018867Y011251D01*
X018881Y011282D01*
X018898Y011312D01*
X018918Y011340D01*
X018941Y011365D01*
X018967Y011388D01*
X018995Y011407D01*
X019025Y011423D01*
X019057Y011435D01*
X019090Y011444D01*
X019124Y011449D01*
X019159Y011450D01*
X019193Y011447D01*
X019226Y011440D01*
X019259Y011430D01*
X019290Y011415D01*
X019319Y011398D01*
X019346Y011377D01*
X019371Y011353D01*
X019393Y011326D01*
X019411Y011298D01*
X019426Y011267D01*
X019438Y011235D01*
X019446Y011201D01*
X019450Y011167D01*
X019450Y011133D01*
X019446Y011099D01*
X019438Y011065D01*
X019426Y011033D01*
X019411Y011002D01*
X019393Y010974D01*
X019371Y010947D01*
X019346Y010923D01*
X019319Y010902D01*
X019290Y010885D01*
X019259Y010870D01*
X019226Y010860D01*
X019193Y010853D01*
X019159Y010850D01*
X019124Y010851D01*
X019090Y010856D01*
X019057Y010865D01*
X019025Y010877D01*
X018995Y010893D01*
X018967Y010912D01*
X018941Y010935D01*
X018918Y010960D01*
X018898Y010988D01*
X018881Y011018D01*
X018867Y011049D01*
X018858Y011082D01*
X018852Y011116D01*
X018850Y011150D01*
X018850Y010150D02*
X018852Y010184D01*
X018858Y010218D01*
X018867Y010251D01*
X018881Y010282D01*
X018898Y010312D01*
X018918Y010340D01*
X018941Y010365D01*
X018967Y010388D01*
X018995Y010407D01*
X019025Y010423D01*
X019057Y010435D01*
X019090Y010444D01*
X019124Y010449D01*
X019159Y010450D01*
X019193Y010447D01*
X019226Y010440D01*
X019259Y010430D01*
X019290Y010415D01*
X019319Y010398D01*
X019346Y010377D01*
X019371Y010353D01*
X019393Y010326D01*
X019411Y010298D01*
X019426Y010267D01*
X019438Y010235D01*
X019446Y010201D01*
X019450Y010167D01*
X019450Y010133D01*
X019446Y010099D01*
X019438Y010065D01*
X019426Y010033D01*
X019411Y010002D01*
X019393Y009974D01*
X019371Y009947D01*
X019346Y009923D01*
X019319Y009902D01*
X019290Y009885D01*
X019259Y009870D01*
X019226Y009860D01*
X019193Y009853D01*
X019159Y009850D01*
X019124Y009851D01*
X019090Y009856D01*
X019057Y009865D01*
X019025Y009877D01*
X018995Y009893D01*
X018967Y009912D01*
X018941Y009935D01*
X018918Y009960D01*
X018898Y009988D01*
X018881Y010018D01*
X018867Y010049D01*
X018858Y010082D01*
X018852Y010116D01*
X018850Y010150D01*
X019850Y010150D02*
X019852Y010184D01*
X019858Y010218D01*
X019867Y010251D01*
X019881Y010282D01*
X019898Y010312D01*
X019918Y010340D01*
X019941Y010365D01*
X019967Y010388D01*
X019995Y010407D01*
X020025Y010423D01*
X020057Y010435D01*
X020090Y010444D01*
X020124Y010449D01*
X020159Y010450D01*
X020193Y010447D01*
X020226Y010440D01*
X020259Y010430D01*
X020290Y010415D01*
X020319Y010398D01*
X020346Y010377D01*
X020371Y010353D01*
X020393Y010326D01*
X020411Y010298D01*
X020426Y010267D01*
X020438Y010235D01*
X020446Y010201D01*
X020450Y010167D01*
X020450Y010133D01*
X020446Y010099D01*
X020438Y010065D01*
X020426Y010033D01*
X020411Y010002D01*
X020393Y009974D01*
X020371Y009947D01*
X020346Y009923D01*
X020319Y009902D01*
X020290Y009885D01*
X020259Y009870D01*
X020226Y009860D01*
X020193Y009853D01*
X020159Y009850D01*
X020124Y009851D01*
X020090Y009856D01*
X020057Y009865D01*
X020025Y009877D01*
X019995Y009893D01*
X019967Y009912D01*
X019941Y009935D01*
X019918Y009960D01*
X019898Y009988D01*
X019881Y010018D01*
X019867Y010049D01*
X019858Y010082D01*
X019852Y010116D01*
X019850Y010150D01*
X022350Y009450D02*
X022352Y009484D01*
X022358Y009518D01*
X022367Y009551D01*
X022381Y009582D01*
X022398Y009612D01*
X022418Y009640D01*
X022441Y009665D01*
X022467Y009688D01*
X022495Y009707D01*
X022525Y009723D01*
X022557Y009735D01*
X022590Y009744D01*
X022624Y009749D01*
X022659Y009750D01*
X022693Y009747D01*
X022726Y009740D01*
X022759Y009730D01*
X022790Y009715D01*
X022819Y009698D01*
X022846Y009677D01*
X022871Y009653D01*
X022893Y009626D01*
X022911Y009598D01*
X022926Y009567D01*
X022938Y009535D01*
X022946Y009501D01*
X022950Y009467D01*
X022950Y009433D01*
X022946Y009399D01*
X022938Y009365D01*
X022926Y009333D01*
X022911Y009302D01*
X022893Y009274D01*
X022871Y009247D01*
X022846Y009223D01*
X022819Y009202D01*
X022790Y009185D01*
X022759Y009170D01*
X022726Y009160D01*
X022693Y009153D01*
X022659Y009150D01*
X022624Y009151D01*
X022590Y009156D01*
X022557Y009165D01*
X022525Y009177D01*
X022495Y009193D01*
X022467Y009212D01*
X022441Y009235D01*
X022418Y009260D01*
X022398Y009288D01*
X022381Y009318D01*
X022367Y009349D01*
X022358Y009382D01*
X022352Y009416D01*
X022350Y009450D01*
X024400Y009350D02*
X024402Y009384D01*
X024408Y009418D01*
X024417Y009451D01*
X024431Y009482D01*
X024448Y009512D01*
X024468Y009540D01*
X024491Y009565D01*
X024517Y009588D01*
X024545Y009607D01*
X024575Y009623D01*
X024607Y009635D01*
X024640Y009644D01*
X024674Y009649D01*
X024709Y009650D01*
X024743Y009647D01*
X024776Y009640D01*
X024809Y009630D01*
X024840Y009615D01*
X024869Y009598D01*
X024896Y009577D01*
X024921Y009553D01*
X024943Y009526D01*
X024961Y009498D01*
X024976Y009467D01*
X024988Y009435D01*
X024996Y009401D01*
X025000Y009367D01*
X025000Y009333D01*
X024996Y009299D01*
X024988Y009265D01*
X024976Y009233D01*
X024961Y009202D01*
X024943Y009174D01*
X024921Y009147D01*
X024896Y009123D01*
X024869Y009102D01*
X024840Y009085D01*
X024809Y009070D01*
X024776Y009060D01*
X024743Y009053D01*
X024709Y009050D01*
X024674Y009051D01*
X024640Y009056D01*
X024607Y009065D01*
X024575Y009077D01*
X024545Y009093D01*
X024517Y009112D01*
X024491Y009135D01*
X024468Y009160D01*
X024448Y009188D01*
X024431Y009218D01*
X024417Y009249D01*
X024408Y009282D01*
X024402Y009316D01*
X024400Y009350D01*
X026850Y010150D02*
X026852Y010184D01*
X026858Y010218D01*
X026867Y010251D01*
X026881Y010282D01*
X026898Y010312D01*
X026918Y010340D01*
X026941Y010365D01*
X026967Y010388D01*
X026995Y010407D01*
X027025Y010423D01*
X027057Y010435D01*
X027090Y010444D01*
X027124Y010449D01*
X027159Y010450D01*
X027193Y010447D01*
X027226Y010440D01*
X027259Y010430D01*
X027290Y010415D01*
X027319Y010398D01*
X027346Y010377D01*
X027371Y010353D01*
X027393Y010326D01*
X027411Y010298D01*
X027426Y010267D01*
X027438Y010235D01*
X027446Y010201D01*
X027450Y010167D01*
X027450Y010133D01*
X027446Y010099D01*
X027438Y010065D01*
X027426Y010033D01*
X027411Y010002D01*
X027393Y009974D01*
X027371Y009947D01*
X027346Y009923D01*
X027319Y009902D01*
X027290Y009885D01*
X027259Y009870D01*
X027226Y009860D01*
X027193Y009853D01*
X027159Y009850D01*
X027124Y009851D01*
X027090Y009856D01*
X027057Y009865D01*
X027025Y009877D01*
X026995Y009893D01*
X026967Y009912D01*
X026941Y009935D01*
X026918Y009960D01*
X026898Y009988D01*
X026881Y010018D01*
X026867Y010049D01*
X026858Y010082D01*
X026852Y010116D01*
X026850Y010150D01*
X027850Y010150D02*
X027852Y010184D01*
X027858Y010218D01*
X027867Y010251D01*
X027881Y010282D01*
X027898Y010312D01*
X027918Y010340D01*
X027941Y010365D01*
X027967Y010388D01*
X027995Y010407D01*
X028025Y010423D01*
X028057Y010435D01*
X028090Y010444D01*
X028124Y010449D01*
X028159Y010450D01*
X028193Y010447D01*
X028226Y010440D01*
X028259Y010430D01*
X028290Y010415D01*
X028319Y010398D01*
X028346Y010377D01*
X028371Y010353D01*
X028393Y010326D01*
X028411Y010298D01*
X028426Y010267D01*
X028438Y010235D01*
X028446Y010201D01*
X028450Y010167D01*
X028450Y010133D01*
X028446Y010099D01*
X028438Y010065D01*
X028426Y010033D01*
X028411Y010002D01*
X028393Y009974D01*
X028371Y009947D01*
X028346Y009923D01*
X028319Y009902D01*
X028290Y009885D01*
X028259Y009870D01*
X028226Y009860D01*
X028193Y009853D01*
X028159Y009850D01*
X028124Y009851D01*
X028090Y009856D01*
X028057Y009865D01*
X028025Y009877D01*
X027995Y009893D01*
X027967Y009912D01*
X027941Y009935D01*
X027918Y009960D01*
X027898Y009988D01*
X027881Y010018D01*
X027867Y010049D01*
X027858Y010082D01*
X027852Y010116D01*
X027850Y010150D01*
X027850Y011150D02*
X027852Y011184D01*
X027858Y011218D01*
X027867Y011251D01*
X027881Y011282D01*
X027898Y011312D01*
X027918Y011340D01*
X027941Y011365D01*
X027967Y011388D01*
X027995Y011407D01*
X028025Y011423D01*
X028057Y011435D01*
X028090Y011444D01*
X028124Y011449D01*
X028159Y011450D01*
X028193Y011447D01*
X028226Y011440D01*
X028259Y011430D01*
X028290Y011415D01*
X028319Y011398D01*
X028346Y011377D01*
X028371Y011353D01*
X028393Y011326D01*
X028411Y011298D01*
X028426Y011267D01*
X028438Y011235D01*
X028446Y011201D01*
X028450Y011167D01*
X028450Y011133D01*
X028446Y011099D01*
X028438Y011065D01*
X028426Y011033D01*
X028411Y011002D01*
X028393Y010974D01*
X028371Y010947D01*
X028346Y010923D01*
X028319Y010902D01*
X028290Y010885D01*
X028259Y010870D01*
X028226Y010860D01*
X028193Y010853D01*
X028159Y010850D01*
X028124Y010851D01*
X028090Y010856D01*
X028057Y010865D01*
X028025Y010877D01*
X027995Y010893D01*
X027967Y010912D01*
X027941Y010935D01*
X027918Y010960D01*
X027898Y010988D01*
X027881Y011018D01*
X027867Y011049D01*
X027858Y011082D01*
X027852Y011116D01*
X027850Y011150D01*
X026850Y011150D02*
X026852Y011184D01*
X026858Y011218D01*
X026867Y011251D01*
X026881Y011282D01*
X026898Y011312D01*
X026918Y011340D01*
X026941Y011365D01*
X026967Y011388D01*
X026995Y011407D01*
X027025Y011423D01*
X027057Y011435D01*
X027090Y011444D01*
X027124Y011449D01*
X027159Y011450D01*
X027193Y011447D01*
X027226Y011440D01*
X027259Y011430D01*
X027290Y011415D01*
X027319Y011398D01*
X027346Y011377D01*
X027371Y011353D01*
X027393Y011326D01*
X027411Y011298D01*
X027426Y011267D01*
X027438Y011235D01*
X027446Y011201D01*
X027450Y011167D01*
X027450Y011133D01*
X027446Y011099D01*
X027438Y011065D01*
X027426Y011033D01*
X027411Y011002D01*
X027393Y010974D01*
X027371Y010947D01*
X027346Y010923D01*
X027319Y010902D01*
X027290Y010885D01*
X027259Y010870D01*
X027226Y010860D01*
X027193Y010853D01*
X027159Y010850D01*
X027124Y010851D01*
X027090Y010856D01*
X027057Y010865D01*
X027025Y010877D01*
X026995Y010893D01*
X026967Y010912D01*
X026941Y010935D01*
X026918Y010960D01*
X026898Y010988D01*
X026881Y011018D01*
X026867Y011049D01*
X026858Y011082D01*
X026852Y011116D01*
X026850Y011150D01*
X026850Y012150D02*
X026852Y012184D01*
X026858Y012218D01*
X026867Y012251D01*
X026881Y012282D01*
X026898Y012312D01*
X026918Y012340D01*
X026941Y012365D01*
X026967Y012388D01*
X026995Y012407D01*
X027025Y012423D01*
X027057Y012435D01*
X027090Y012444D01*
X027124Y012449D01*
X027159Y012450D01*
X027193Y012447D01*
X027226Y012440D01*
X027259Y012430D01*
X027290Y012415D01*
X027319Y012398D01*
X027346Y012377D01*
X027371Y012353D01*
X027393Y012326D01*
X027411Y012298D01*
X027426Y012267D01*
X027438Y012235D01*
X027446Y012201D01*
X027450Y012167D01*
X027450Y012133D01*
X027446Y012099D01*
X027438Y012065D01*
X027426Y012033D01*
X027411Y012002D01*
X027393Y011974D01*
X027371Y011947D01*
X027346Y011923D01*
X027319Y011902D01*
X027290Y011885D01*
X027259Y011870D01*
X027226Y011860D01*
X027193Y011853D01*
X027159Y011850D01*
X027124Y011851D01*
X027090Y011856D01*
X027057Y011865D01*
X027025Y011877D01*
X026995Y011893D01*
X026967Y011912D01*
X026941Y011935D01*
X026918Y011960D01*
X026898Y011988D01*
X026881Y012018D01*
X026867Y012049D01*
X026858Y012082D01*
X026852Y012116D01*
X026850Y012150D01*
X027850Y012150D02*
X027852Y012184D01*
X027858Y012218D01*
X027867Y012251D01*
X027881Y012282D01*
X027898Y012312D01*
X027918Y012340D01*
X027941Y012365D01*
X027967Y012388D01*
X027995Y012407D01*
X028025Y012423D01*
X028057Y012435D01*
X028090Y012444D01*
X028124Y012449D01*
X028159Y012450D01*
X028193Y012447D01*
X028226Y012440D01*
X028259Y012430D01*
X028290Y012415D01*
X028319Y012398D01*
X028346Y012377D01*
X028371Y012353D01*
X028393Y012326D01*
X028411Y012298D01*
X028426Y012267D01*
X028438Y012235D01*
X028446Y012201D01*
X028450Y012167D01*
X028450Y012133D01*
X028446Y012099D01*
X028438Y012065D01*
X028426Y012033D01*
X028411Y012002D01*
X028393Y011974D01*
X028371Y011947D01*
X028346Y011923D01*
X028319Y011902D01*
X028290Y011885D01*
X028259Y011870D01*
X028226Y011860D01*
X028193Y011853D01*
X028159Y011850D01*
X028124Y011851D01*
X028090Y011856D01*
X028057Y011865D01*
X028025Y011877D01*
X027995Y011893D01*
X027967Y011912D01*
X027941Y011935D01*
X027918Y011960D01*
X027898Y011988D01*
X027881Y012018D01*
X027867Y012049D01*
X027858Y012082D01*
X027852Y012116D01*
X027850Y012150D01*
X030350Y012850D02*
X030352Y012884D01*
X030358Y012918D01*
X030367Y012951D01*
X030381Y012982D01*
X030398Y013012D01*
X030418Y013040D01*
X030441Y013065D01*
X030467Y013088D01*
X030495Y013107D01*
X030525Y013123D01*
X030557Y013135D01*
X030590Y013144D01*
X030624Y013149D01*
X030659Y013150D01*
X030693Y013147D01*
X030726Y013140D01*
X030759Y013130D01*
X030790Y013115D01*
X030819Y013098D01*
X030846Y013077D01*
X030871Y013053D01*
X030893Y013026D01*
X030911Y012998D01*
X030926Y012967D01*
X030938Y012935D01*
X030946Y012901D01*
X030950Y012867D01*
X030950Y012833D01*
X030946Y012799D01*
X030938Y012765D01*
X030926Y012733D01*
X030911Y012702D01*
X030893Y012674D01*
X030871Y012647D01*
X030846Y012623D01*
X030819Y012602D01*
X030790Y012585D01*
X030759Y012570D01*
X030726Y012560D01*
X030693Y012553D01*
X030659Y012550D01*
X030624Y012551D01*
X030590Y012556D01*
X030557Y012565D01*
X030525Y012577D01*
X030495Y012593D01*
X030467Y012612D01*
X030441Y012635D01*
X030418Y012660D01*
X030398Y012688D01*
X030381Y012718D01*
X030367Y012749D01*
X030358Y012782D01*
X030352Y012816D01*
X030350Y012850D01*
X032350Y012850D02*
X032352Y012884D01*
X032358Y012918D01*
X032367Y012951D01*
X032381Y012982D01*
X032398Y013012D01*
X032418Y013040D01*
X032441Y013065D01*
X032467Y013088D01*
X032495Y013107D01*
X032525Y013123D01*
X032557Y013135D01*
X032590Y013144D01*
X032624Y013149D01*
X032659Y013150D01*
X032693Y013147D01*
X032726Y013140D01*
X032759Y013130D01*
X032790Y013115D01*
X032819Y013098D01*
X032846Y013077D01*
X032871Y013053D01*
X032893Y013026D01*
X032911Y012998D01*
X032926Y012967D01*
X032938Y012935D01*
X032946Y012901D01*
X032950Y012867D01*
X032950Y012833D01*
X032946Y012799D01*
X032938Y012765D01*
X032926Y012733D01*
X032911Y012702D01*
X032893Y012674D01*
X032871Y012647D01*
X032846Y012623D01*
X032819Y012602D01*
X032790Y012585D01*
X032759Y012570D01*
X032726Y012560D01*
X032693Y012553D01*
X032659Y012550D01*
X032624Y012551D01*
X032590Y012556D01*
X032557Y012565D01*
X032525Y012577D01*
X032495Y012593D01*
X032467Y012612D01*
X032441Y012635D01*
X032418Y012660D01*
X032398Y012688D01*
X032381Y012718D01*
X032367Y012749D01*
X032358Y012782D01*
X032352Y012816D01*
X032350Y012850D01*
X034850Y012150D02*
X034852Y012184D01*
X034858Y012218D01*
X034867Y012251D01*
X034881Y012282D01*
X034898Y012312D01*
X034918Y012340D01*
X034941Y012365D01*
X034967Y012388D01*
X034995Y012407D01*
X035025Y012423D01*
X035057Y012435D01*
X035090Y012444D01*
X035124Y012449D01*
X035159Y012450D01*
X035193Y012447D01*
X035226Y012440D01*
X035259Y012430D01*
X035290Y012415D01*
X035319Y012398D01*
X035346Y012377D01*
X035371Y012353D01*
X035393Y012326D01*
X035411Y012298D01*
X035426Y012267D01*
X035438Y012235D01*
X035446Y012201D01*
X035450Y012167D01*
X035450Y012133D01*
X035446Y012099D01*
X035438Y012065D01*
X035426Y012033D01*
X035411Y012002D01*
X035393Y011974D01*
X035371Y011947D01*
X035346Y011923D01*
X035319Y011902D01*
X035290Y011885D01*
X035259Y011870D01*
X035226Y011860D01*
X035193Y011853D01*
X035159Y011850D01*
X035124Y011851D01*
X035090Y011856D01*
X035057Y011865D01*
X035025Y011877D01*
X034995Y011893D01*
X034967Y011912D01*
X034941Y011935D01*
X034918Y011960D01*
X034898Y011988D01*
X034881Y012018D01*
X034867Y012049D01*
X034858Y012082D01*
X034852Y012116D01*
X034850Y012150D01*
X035850Y012150D02*
X035852Y012184D01*
X035858Y012218D01*
X035867Y012251D01*
X035881Y012282D01*
X035898Y012312D01*
X035918Y012340D01*
X035941Y012365D01*
X035967Y012388D01*
X035995Y012407D01*
X036025Y012423D01*
X036057Y012435D01*
X036090Y012444D01*
X036124Y012449D01*
X036159Y012450D01*
X036193Y012447D01*
X036226Y012440D01*
X036259Y012430D01*
X036290Y012415D01*
X036319Y012398D01*
X036346Y012377D01*
X036371Y012353D01*
X036393Y012326D01*
X036411Y012298D01*
X036426Y012267D01*
X036438Y012235D01*
X036446Y012201D01*
X036450Y012167D01*
X036450Y012133D01*
X036446Y012099D01*
X036438Y012065D01*
X036426Y012033D01*
X036411Y012002D01*
X036393Y011974D01*
X036371Y011947D01*
X036346Y011923D01*
X036319Y011902D01*
X036290Y011885D01*
X036259Y011870D01*
X036226Y011860D01*
X036193Y011853D01*
X036159Y011850D01*
X036124Y011851D01*
X036090Y011856D01*
X036057Y011865D01*
X036025Y011877D01*
X035995Y011893D01*
X035967Y011912D01*
X035941Y011935D01*
X035918Y011960D01*
X035898Y011988D01*
X035881Y012018D01*
X035867Y012049D01*
X035858Y012082D01*
X035852Y012116D01*
X035850Y012150D01*
X035850Y011150D02*
X035852Y011184D01*
X035858Y011218D01*
X035867Y011251D01*
X035881Y011282D01*
X035898Y011312D01*
X035918Y011340D01*
X035941Y011365D01*
X035967Y011388D01*
X035995Y011407D01*
X036025Y011423D01*
X036057Y011435D01*
X036090Y011444D01*
X036124Y011449D01*
X036159Y011450D01*
X036193Y011447D01*
X036226Y011440D01*
X036259Y011430D01*
X036290Y011415D01*
X036319Y011398D01*
X036346Y011377D01*
X036371Y011353D01*
X036393Y011326D01*
X036411Y011298D01*
X036426Y011267D01*
X036438Y011235D01*
X036446Y011201D01*
X036450Y011167D01*
X036450Y011133D01*
X036446Y011099D01*
X036438Y011065D01*
X036426Y011033D01*
X036411Y011002D01*
X036393Y010974D01*
X036371Y010947D01*
X036346Y010923D01*
X036319Y010902D01*
X036290Y010885D01*
X036259Y010870D01*
X036226Y010860D01*
X036193Y010853D01*
X036159Y010850D01*
X036124Y010851D01*
X036090Y010856D01*
X036057Y010865D01*
X036025Y010877D01*
X035995Y010893D01*
X035967Y010912D01*
X035941Y010935D01*
X035918Y010960D01*
X035898Y010988D01*
X035881Y011018D01*
X035867Y011049D01*
X035858Y011082D01*
X035852Y011116D01*
X035850Y011150D01*
X034850Y011150D02*
X034852Y011184D01*
X034858Y011218D01*
X034867Y011251D01*
X034881Y011282D01*
X034898Y011312D01*
X034918Y011340D01*
X034941Y011365D01*
X034967Y011388D01*
X034995Y011407D01*
X035025Y011423D01*
X035057Y011435D01*
X035090Y011444D01*
X035124Y011449D01*
X035159Y011450D01*
X035193Y011447D01*
X035226Y011440D01*
X035259Y011430D01*
X035290Y011415D01*
X035319Y011398D01*
X035346Y011377D01*
X035371Y011353D01*
X035393Y011326D01*
X035411Y011298D01*
X035426Y011267D01*
X035438Y011235D01*
X035446Y011201D01*
X035450Y011167D01*
X035450Y011133D01*
X035446Y011099D01*
X035438Y011065D01*
X035426Y011033D01*
X035411Y011002D01*
X035393Y010974D01*
X035371Y010947D01*
X035346Y010923D01*
X035319Y010902D01*
X035290Y010885D01*
X035259Y010870D01*
X035226Y010860D01*
X035193Y010853D01*
X035159Y010850D01*
X035124Y010851D01*
X035090Y010856D01*
X035057Y010865D01*
X035025Y010877D01*
X034995Y010893D01*
X034967Y010912D01*
X034941Y010935D01*
X034918Y010960D01*
X034898Y010988D01*
X034881Y011018D01*
X034867Y011049D01*
X034858Y011082D01*
X034852Y011116D01*
X034850Y011150D01*
X034850Y010150D02*
X034852Y010184D01*
X034858Y010218D01*
X034867Y010251D01*
X034881Y010282D01*
X034898Y010312D01*
X034918Y010340D01*
X034941Y010365D01*
X034967Y010388D01*
X034995Y010407D01*
X035025Y010423D01*
X035057Y010435D01*
X035090Y010444D01*
X035124Y010449D01*
X035159Y010450D01*
X035193Y010447D01*
X035226Y010440D01*
X035259Y010430D01*
X035290Y010415D01*
X035319Y010398D01*
X035346Y010377D01*
X035371Y010353D01*
X035393Y010326D01*
X035411Y010298D01*
X035426Y010267D01*
X035438Y010235D01*
X035446Y010201D01*
X035450Y010167D01*
X035450Y010133D01*
X035446Y010099D01*
X035438Y010065D01*
X035426Y010033D01*
X035411Y010002D01*
X035393Y009974D01*
X035371Y009947D01*
X035346Y009923D01*
X035319Y009902D01*
X035290Y009885D01*
X035259Y009870D01*
X035226Y009860D01*
X035193Y009853D01*
X035159Y009850D01*
X035124Y009851D01*
X035090Y009856D01*
X035057Y009865D01*
X035025Y009877D01*
X034995Y009893D01*
X034967Y009912D01*
X034941Y009935D01*
X034918Y009960D01*
X034898Y009988D01*
X034881Y010018D01*
X034867Y010049D01*
X034858Y010082D01*
X034852Y010116D01*
X034850Y010150D01*
X035850Y010150D02*
X035852Y010184D01*
X035858Y010218D01*
X035867Y010251D01*
X035881Y010282D01*
X035898Y010312D01*
X035918Y010340D01*
X035941Y010365D01*
X035967Y010388D01*
X035995Y010407D01*
X036025Y010423D01*
X036057Y010435D01*
X036090Y010444D01*
X036124Y010449D01*
X036159Y010450D01*
X036193Y010447D01*
X036226Y010440D01*
X036259Y010430D01*
X036290Y010415D01*
X036319Y010398D01*
X036346Y010377D01*
X036371Y010353D01*
X036393Y010326D01*
X036411Y010298D01*
X036426Y010267D01*
X036438Y010235D01*
X036446Y010201D01*
X036450Y010167D01*
X036450Y010133D01*
X036446Y010099D01*
X036438Y010065D01*
X036426Y010033D01*
X036411Y010002D01*
X036393Y009974D01*
X036371Y009947D01*
X036346Y009923D01*
X036319Y009902D01*
X036290Y009885D01*
X036259Y009870D01*
X036226Y009860D01*
X036193Y009853D01*
X036159Y009850D01*
X036124Y009851D01*
X036090Y009856D01*
X036057Y009865D01*
X036025Y009877D01*
X035995Y009893D01*
X035967Y009912D01*
X035941Y009935D01*
X035918Y009960D01*
X035898Y009988D01*
X035881Y010018D01*
X035867Y010049D01*
X035858Y010082D01*
X035852Y010116D01*
X035850Y010150D01*
X038350Y009450D02*
X038352Y009484D01*
X038358Y009518D01*
X038367Y009551D01*
X038381Y009582D01*
X038398Y009612D01*
X038418Y009640D01*
X038441Y009665D01*
X038467Y009688D01*
X038495Y009707D01*
X038525Y009723D01*
X038557Y009735D01*
X038590Y009744D01*
X038624Y009749D01*
X038659Y009750D01*
X038693Y009747D01*
X038726Y009740D01*
X038759Y009730D01*
X038790Y009715D01*
X038819Y009698D01*
X038846Y009677D01*
X038871Y009653D01*
X038893Y009626D01*
X038911Y009598D01*
X038926Y009567D01*
X038938Y009535D01*
X038946Y009501D01*
X038950Y009467D01*
X038950Y009433D01*
X038946Y009399D01*
X038938Y009365D01*
X038926Y009333D01*
X038911Y009302D01*
X038893Y009274D01*
X038871Y009247D01*
X038846Y009223D01*
X038819Y009202D01*
X038790Y009185D01*
X038759Y009170D01*
X038726Y009160D01*
X038693Y009153D01*
X038659Y009150D01*
X038624Y009151D01*
X038590Y009156D01*
X038557Y009165D01*
X038525Y009177D01*
X038495Y009193D01*
X038467Y009212D01*
X038441Y009235D01*
X038418Y009260D01*
X038398Y009288D01*
X038381Y009318D01*
X038367Y009349D01*
X038358Y009382D01*
X038352Y009416D01*
X038350Y009450D01*
X040400Y009350D02*
X040402Y009384D01*
X040408Y009418D01*
X040417Y009451D01*
X040431Y009482D01*
X040448Y009512D01*
X040468Y009540D01*
X040491Y009565D01*
X040517Y009588D01*
X040545Y009607D01*
X040575Y009623D01*
X040607Y009635D01*
X040640Y009644D01*
X040674Y009649D01*
X040709Y009650D01*
X040743Y009647D01*
X040776Y009640D01*
X040809Y009630D01*
X040840Y009615D01*
X040869Y009598D01*
X040896Y009577D01*
X040921Y009553D01*
X040943Y009526D01*
X040961Y009498D01*
X040976Y009467D01*
X040988Y009435D01*
X040996Y009401D01*
X041000Y009367D01*
X041000Y009333D01*
X040996Y009299D01*
X040988Y009265D01*
X040976Y009233D01*
X040961Y009202D01*
X040943Y009174D01*
X040921Y009147D01*
X040896Y009123D01*
X040869Y009102D01*
X040840Y009085D01*
X040809Y009070D01*
X040776Y009060D01*
X040743Y009053D01*
X040709Y009050D01*
X040674Y009051D01*
X040640Y009056D01*
X040607Y009065D01*
X040575Y009077D01*
X040545Y009093D01*
X040517Y009112D01*
X040491Y009135D01*
X040468Y009160D01*
X040448Y009188D01*
X040431Y009218D01*
X040417Y009249D01*
X040408Y009282D01*
X040402Y009316D01*
X040400Y009350D01*
X042850Y010150D02*
X042852Y010184D01*
X042858Y010218D01*
X042867Y010251D01*
X042881Y010282D01*
X042898Y010312D01*
X042918Y010340D01*
X042941Y010365D01*
X042967Y010388D01*
X042995Y010407D01*
X043025Y010423D01*
X043057Y010435D01*
X043090Y010444D01*
X043124Y010449D01*
X043159Y010450D01*
X043193Y010447D01*
X043226Y010440D01*
X043259Y010430D01*
X043290Y010415D01*
X043319Y010398D01*
X043346Y010377D01*
X043371Y010353D01*
X043393Y010326D01*
X043411Y010298D01*
X043426Y010267D01*
X043438Y010235D01*
X043446Y010201D01*
X043450Y010167D01*
X043450Y010133D01*
X043446Y010099D01*
X043438Y010065D01*
X043426Y010033D01*
X043411Y010002D01*
X043393Y009974D01*
X043371Y009947D01*
X043346Y009923D01*
X043319Y009902D01*
X043290Y009885D01*
X043259Y009870D01*
X043226Y009860D01*
X043193Y009853D01*
X043159Y009850D01*
X043124Y009851D01*
X043090Y009856D01*
X043057Y009865D01*
X043025Y009877D01*
X042995Y009893D01*
X042967Y009912D01*
X042941Y009935D01*
X042918Y009960D01*
X042898Y009988D01*
X042881Y010018D01*
X042867Y010049D01*
X042858Y010082D01*
X042852Y010116D01*
X042850Y010150D01*
X043850Y010150D02*
X043852Y010184D01*
X043858Y010218D01*
X043867Y010251D01*
X043881Y010282D01*
X043898Y010312D01*
X043918Y010340D01*
X043941Y010365D01*
X043967Y010388D01*
X043995Y010407D01*
X044025Y010423D01*
X044057Y010435D01*
X044090Y010444D01*
X044124Y010449D01*
X044159Y010450D01*
X044193Y010447D01*
X044226Y010440D01*
X044259Y010430D01*
X044290Y010415D01*
X044319Y010398D01*
X044346Y010377D01*
X044371Y010353D01*
X044393Y010326D01*
X044411Y010298D01*
X044426Y010267D01*
X044438Y010235D01*
X044446Y010201D01*
X044450Y010167D01*
X044450Y010133D01*
X044446Y010099D01*
X044438Y010065D01*
X044426Y010033D01*
X044411Y010002D01*
X044393Y009974D01*
X044371Y009947D01*
X044346Y009923D01*
X044319Y009902D01*
X044290Y009885D01*
X044259Y009870D01*
X044226Y009860D01*
X044193Y009853D01*
X044159Y009850D01*
X044124Y009851D01*
X044090Y009856D01*
X044057Y009865D01*
X044025Y009877D01*
X043995Y009893D01*
X043967Y009912D01*
X043941Y009935D01*
X043918Y009960D01*
X043898Y009988D01*
X043881Y010018D01*
X043867Y010049D01*
X043858Y010082D01*
X043852Y010116D01*
X043850Y010150D01*
X043850Y011150D02*
X043852Y011184D01*
X043858Y011218D01*
X043867Y011251D01*
X043881Y011282D01*
X043898Y011312D01*
X043918Y011340D01*
X043941Y011365D01*
X043967Y011388D01*
X043995Y011407D01*
X044025Y011423D01*
X044057Y011435D01*
X044090Y011444D01*
X044124Y011449D01*
X044159Y011450D01*
X044193Y011447D01*
X044226Y011440D01*
X044259Y011430D01*
X044290Y011415D01*
X044319Y011398D01*
X044346Y011377D01*
X044371Y011353D01*
X044393Y011326D01*
X044411Y011298D01*
X044426Y011267D01*
X044438Y011235D01*
X044446Y011201D01*
X044450Y011167D01*
X044450Y011133D01*
X044446Y011099D01*
X044438Y011065D01*
X044426Y011033D01*
X044411Y011002D01*
X044393Y010974D01*
X044371Y010947D01*
X044346Y010923D01*
X044319Y010902D01*
X044290Y010885D01*
X044259Y010870D01*
X044226Y010860D01*
X044193Y010853D01*
X044159Y010850D01*
X044124Y010851D01*
X044090Y010856D01*
X044057Y010865D01*
X044025Y010877D01*
X043995Y010893D01*
X043967Y010912D01*
X043941Y010935D01*
X043918Y010960D01*
X043898Y010988D01*
X043881Y011018D01*
X043867Y011049D01*
X043858Y011082D01*
X043852Y011116D01*
X043850Y011150D01*
X042850Y011150D02*
X042852Y011184D01*
X042858Y011218D01*
X042867Y011251D01*
X042881Y011282D01*
X042898Y011312D01*
X042918Y011340D01*
X042941Y011365D01*
X042967Y011388D01*
X042995Y011407D01*
X043025Y011423D01*
X043057Y011435D01*
X043090Y011444D01*
X043124Y011449D01*
X043159Y011450D01*
X043193Y011447D01*
X043226Y011440D01*
X043259Y011430D01*
X043290Y011415D01*
X043319Y011398D01*
X043346Y011377D01*
X043371Y011353D01*
X043393Y011326D01*
X043411Y011298D01*
X043426Y011267D01*
X043438Y011235D01*
X043446Y011201D01*
X043450Y011167D01*
X043450Y011133D01*
X043446Y011099D01*
X043438Y011065D01*
X043426Y011033D01*
X043411Y011002D01*
X043393Y010974D01*
X043371Y010947D01*
X043346Y010923D01*
X043319Y010902D01*
X043290Y010885D01*
X043259Y010870D01*
X043226Y010860D01*
X043193Y010853D01*
X043159Y010850D01*
X043124Y010851D01*
X043090Y010856D01*
X043057Y010865D01*
X043025Y010877D01*
X042995Y010893D01*
X042967Y010912D01*
X042941Y010935D01*
X042918Y010960D01*
X042898Y010988D01*
X042881Y011018D01*
X042867Y011049D01*
X042858Y011082D01*
X042852Y011116D01*
X042850Y011150D01*
X042850Y012150D02*
X042852Y012184D01*
X042858Y012218D01*
X042867Y012251D01*
X042881Y012282D01*
X042898Y012312D01*
X042918Y012340D01*
X042941Y012365D01*
X042967Y012388D01*
X042995Y012407D01*
X043025Y012423D01*
X043057Y012435D01*
X043090Y012444D01*
X043124Y012449D01*
X043159Y012450D01*
X043193Y012447D01*
X043226Y012440D01*
X043259Y012430D01*
X043290Y012415D01*
X043319Y012398D01*
X043346Y012377D01*
X043371Y012353D01*
X043393Y012326D01*
X043411Y012298D01*
X043426Y012267D01*
X043438Y012235D01*
X043446Y012201D01*
X043450Y012167D01*
X043450Y012133D01*
X043446Y012099D01*
X043438Y012065D01*
X043426Y012033D01*
X043411Y012002D01*
X043393Y011974D01*
X043371Y011947D01*
X043346Y011923D01*
X043319Y011902D01*
X043290Y011885D01*
X043259Y011870D01*
X043226Y011860D01*
X043193Y011853D01*
X043159Y011850D01*
X043124Y011851D01*
X043090Y011856D01*
X043057Y011865D01*
X043025Y011877D01*
X042995Y011893D01*
X042967Y011912D01*
X042941Y011935D01*
X042918Y011960D01*
X042898Y011988D01*
X042881Y012018D01*
X042867Y012049D01*
X042858Y012082D01*
X042852Y012116D01*
X042850Y012150D01*
X043850Y012150D02*
X043852Y012184D01*
X043858Y012218D01*
X043867Y012251D01*
X043881Y012282D01*
X043898Y012312D01*
X043918Y012340D01*
X043941Y012365D01*
X043967Y012388D01*
X043995Y012407D01*
X044025Y012423D01*
X044057Y012435D01*
X044090Y012444D01*
X044124Y012449D01*
X044159Y012450D01*
X044193Y012447D01*
X044226Y012440D01*
X044259Y012430D01*
X044290Y012415D01*
X044319Y012398D01*
X044346Y012377D01*
X044371Y012353D01*
X044393Y012326D01*
X044411Y012298D01*
X044426Y012267D01*
X044438Y012235D01*
X044446Y012201D01*
X044450Y012167D01*
X044450Y012133D01*
X044446Y012099D01*
X044438Y012065D01*
X044426Y012033D01*
X044411Y012002D01*
X044393Y011974D01*
X044371Y011947D01*
X044346Y011923D01*
X044319Y011902D01*
X044290Y011885D01*
X044259Y011870D01*
X044226Y011860D01*
X044193Y011853D01*
X044159Y011850D01*
X044124Y011851D01*
X044090Y011856D01*
X044057Y011865D01*
X044025Y011877D01*
X043995Y011893D01*
X043967Y011912D01*
X043941Y011935D01*
X043918Y011960D01*
X043898Y011988D01*
X043881Y012018D01*
X043867Y012049D01*
X043858Y012082D01*
X043852Y012116D01*
X043850Y012150D01*
X046350Y012850D02*
X046352Y012884D01*
X046358Y012918D01*
X046367Y012951D01*
X046381Y012982D01*
X046398Y013012D01*
X046418Y013040D01*
X046441Y013065D01*
X046467Y013088D01*
X046495Y013107D01*
X046525Y013123D01*
X046557Y013135D01*
X046590Y013144D01*
X046624Y013149D01*
X046659Y013150D01*
X046693Y013147D01*
X046726Y013140D01*
X046759Y013130D01*
X046790Y013115D01*
X046819Y013098D01*
X046846Y013077D01*
X046871Y013053D01*
X046893Y013026D01*
X046911Y012998D01*
X046926Y012967D01*
X046938Y012935D01*
X046946Y012901D01*
X046950Y012867D01*
X046950Y012833D01*
X046946Y012799D01*
X046938Y012765D01*
X046926Y012733D01*
X046911Y012702D01*
X046893Y012674D01*
X046871Y012647D01*
X046846Y012623D01*
X046819Y012602D01*
X046790Y012585D01*
X046759Y012570D01*
X046726Y012560D01*
X046693Y012553D01*
X046659Y012550D01*
X046624Y012551D01*
X046590Y012556D01*
X046557Y012565D01*
X046525Y012577D01*
X046495Y012593D01*
X046467Y012612D01*
X046441Y012635D01*
X046418Y012660D01*
X046398Y012688D01*
X046381Y012718D01*
X046367Y012749D01*
X046358Y012782D01*
X046352Y012816D01*
X046350Y012850D01*
X043350Y014650D02*
X043352Y014684D01*
X043358Y014718D01*
X043367Y014751D01*
X043381Y014782D01*
X043398Y014812D01*
X043418Y014840D01*
X043441Y014865D01*
X043467Y014888D01*
X043495Y014907D01*
X043525Y014923D01*
X043557Y014935D01*
X043590Y014944D01*
X043624Y014949D01*
X043659Y014950D01*
X043693Y014947D01*
X043726Y014940D01*
X043759Y014930D01*
X043790Y014915D01*
X043819Y014898D01*
X043846Y014877D01*
X043871Y014853D01*
X043893Y014826D01*
X043911Y014798D01*
X043926Y014767D01*
X043938Y014735D01*
X043946Y014701D01*
X043950Y014667D01*
X043950Y014633D01*
X043946Y014599D01*
X043938Y014565D01*
X043926Y014533D01*
X043911Y014502D01*
X043893Y014474D01*
X043871Y014447D01*
X043846Y014423D01*
X043819Y014402D01*
X043790Y014385D01*
X043759Y014370D01*
X043726Y014360D01*
X043693Y014353D01*
X043659Y014350D01*
X043624Y014351D01*
X043590Y014356D01*
X043557Y014365D01*
X043525Y014377D01*
X043495Y014393D01*
X043467Y014412D01*
X043441Y014435D01*
X043418Y014460D01*
X043398Y014488D01*
X043381Y014518D01*
X043367Y014549D01*
X043358Y014582D01*
X043352Y014616D01*
X043350Y014650D01*
X040350Y012850D02*
X040352Y012884D01*
X040358Y012918D01*
X040367Y012951D01*
X040381Y012982D01*
X040398Y013012D01*
X040418Y013040D01*
X040441Y013065D01*
X040467Y013088D01*
X040495Y013107D01*
X040525Y013123D01*
X040557Y013135D01*
X040590Y013144D01*
X040624Y013149D01*
X040659Y013150D01*
X040693Y013147D01*
X040726Y013140D01*
X040759Y013130D01*
X040790Y013115D01*
X040819Y013098D01*
X040846Y013077D01*
X040871Y013053D01*
X040893Y013026D01*
X040911Y012998D01*
X040926Y012967D01*
X040938Y012935D01*
X040946Y012901D01*
X040950Y012867D01*
X040950Y012833D01*
X040946Y012799D01*
X040938Y012765D01*
X040926Y012733D01*
X040911Y012702D01*
X040893Y012674D01*
X040871Y012647D01*
X040846Y012623D01*
X040819Y012602D01*
X040790Y012585D01*
X040759Y012570D01*
X040726Y012560D01*
X040693Y012553D01*
X040659Y012550D01*
X040624Y012551D01*
X040590Y012556D01*
X040557Y012565D01*
X040525Y012577D01*
X040495Y012593D01*
X040467Y012612D01*
X040441Y012635D01*
X040418Y012660D01*
X040398Y012688D01*
X040381Y012718D01*
X040367Y012749D01*
X040358Y012782D01*
X040352Y012816D01*
X040350Y012850D01*
X038350Y012850D02*
X038352Y012884D01*
X038358Y012918D01*
X038367Y012951D01*
X038381Y012982D01*
X038398Y013012D01*
X038418Y013040D01*
X038441Y013065D01*
X038467Y013088D01*
X038495Y013107D01*
X038525Y013123D01*
X038557Y013135D01*
X038590Y013144D01*
X038624Y013149D01*
X038659Y013150D01*
X038693Y013147D01*
X038726Y013140D01*
X038759Y013130D01*
X038790Y013115D01*
X038819Y013098D01*
X038846Y013077D01*
X038871Y013053D01*
X038893Y013026D01*
X038911Y012998D01*
X038926Y012967D01*
X038938Y012935D01*
X038946Y012901D01*
X038950Y012867D01*
X038950Y012833D01*
X038946Y012799D01*
X038938Y012765D01*
X038926Y012733D01*
X038911Y012702D01*
X038893Y012674D01*
X038871Y012647D01*
X038846Y012623D01*
X038819Y012602D01*
X038790Y012585D01*
X038759Y012570D01*
X038726Y012560D01*
X038693Y012553D01*
X038659Y012550D01*
X038624Y012551D01*
X038590Y012556D01*
X038557Y012565D01*
X038525Y012577D01*
X038495Y012593D01*
X038467Y012612D01*
X038441Y012635D01*
X038418Y012660D01*
X038398Y012688D01*
X038381Y012718D01*
X038367Y012749D01*
X038358Y012782D01*
X038352Y012816D01*
X038350Y012850D01*
X035350Y014650D02*
X035352Y014684D01*
X035358Y014718D01*
X035367Y014751D01*
X035381Y014782D01*
X035398Y014812D01*
X035418Y014840D01*
X035441Y014865D01*
X035467Y014888D01*
X035495Y014907D01*
X035525Y014923D01*
X035557Y014935D01*
X035590Y014944D01*
X035624Y014949D01*
X035659Y014950D01*
X035693Y014947D01*
X035726Y014940D01*
X035759Y014930D01*
X035790Y014915D01*
X035819Y014898D01*
X035846Y014877D01*
X035871Y014853D01*
X035893Y014826D01*
X035911Y014798D01*
X035926Y014767D01*
X035938Y014735D01*
X035946Y014701D01*
X035950Y014667D01*
X035950Y014633D01*
X035946Y014599D01*
X035938Y014565D01*
X035926Y014533D01*
X035911Y014502D01*
X035893Y014474D01*
X035871Y014447D01*
X035846Y014423D01*
X035819Y014402D01*
X035790Y014385D01*
X035759Y014370D01*
X035726Y014360D01*
X035693Y014353D01*
X035659Y014350D01*
X035624Y014351D01*
X035590Y014356D01*
X035557Y014365D01*
X035525Y014377D01*
X035495Y014393D01*
X035467Y014412D01*
X035441Y014435D01*
X035418Y014460D01*
X035398Y014488D01*
X035381Y014518D01*
X035367Y014549D01*
X035358Y014582D01*
X035352Y014616D01*
X035350Y014650D01*
X035050Y017150D02*
X035052Y017199D01*
X035058Y017247D01*
X035068Y017295D01*
X035082Y017342D01*
X035099Y017388D01*
X035120Y017432D01*
X035145Y017474D01*
X035173Y017514D01*
X035205Y017552D01*
X035239Y017587D01*
X035276Y017619D01*
X035315Y017648D01*
X035357Y017674D01*
X035401Y017696D01*
X035446Y017714D01*
X035493Y017729D01*
X035540Y017740D01*
X035589Y017747D01*
X035638Y017750D01*
X035687Y017749D01*
X035735Y017744D01*
X035784Y017735D01*
X035831Y017722D01*
X035877Y017705D01*
X035921Y017685D01*
X035964Y017661D01*
X036005Y017634D01*
X036043Y017603D01*
X036079Y017570D01*
X036111Y017534D01*
X036141Y017495D01*
X036168Y017454D01*
X036191Y017410D01*
X036210Y017365D01*
X036226Y017319D01*
X036238Y017272D01*
X036246Y017223D01*
X036250Y017174D01*
X036250Y017126D01*
X036246Y017077D01*
X036238Y017028D01*
X036226Y016981D01*
X036210Y016935D01*
X036191Y016890D01*
X036168Y016846D01*
X036141Y016805D01*
X036111Y016766D01*
X036079Y016730D01*
X036043Y016697D01*
X036005Y016666D01*
X035964Y016639D01*
X035921Y016615D01*
X035877Y016595D01*
X035831Y016578D01*
X035784Y016565D01*
X035735Y016556D01*
X035687Y016551D01*
X035638Y016550D01*
X035589Y016553D01*
X035540Y016560D01*
X035493Y016571D01*
X035446Y016586D01*
X035401Y016604D01*
X035357Y016626D01*
X035315Y016652D01*
X035276Y016681D01*
X035239Y016713D01*
X035205Y016748D01*
X035173Y016786D01*
X035145Y016826D01*
X035120Y016868D01*
X035099Y016912D01*
X035082Y016958D01*
X035068Y017005D01*
X035058Y017053D01*
X035052Y017101D01*
X035050Y017150D01*
X027050Y017150D02*
X027052Y017199D01*
X027058Y017247D01*
X027068Y017295D01*
X027082Y017342D01*
X027099Y017388D01*
X027120Y017432D01*
X027145Y017474D01*
X027173Y017514D01*
X027205Y017552D01*
X027239Y017587D01*
X027276Y017619D01*
X027315Y017648D01*
X027357Y017674D01*
X027401Y017696D01*
X027446Y017714D01*
X027493Y017729D01*
X027540Y017740D01*
X027589Y017747D01*
X027638Y017750D01*
X027687Y017749D01*
X027735Y017744D01*
X027784Y017735D01*
X027831Y017722D01*
X027877Y017705D01*
X027921Y017685D01*
X027964Y017661D01*
X028005Y017634D01*
X028043Y017603D01*
X028079Y017570D01*
X028111Y017534D01*
X028141Y017495D01*
X028168Y017454D01*
X028191Y017410D01*
X028210Y017365D01*
X028226Y017319D01*
X028238Y017272D01*
X028246Y017223D01*
X028250Y017174D01*
X028250Y017126D01*
X028246Y017077D01*
X028238Y017028D01*
X028226Y016981D01*
X028210Y016935D01*
X028191Y016890D01*
X028168Y016846D01*
X028141Y016805D01*
X028111Y016766D01*
X028079Y016730D01*
X028043Y016697D01*
X028005Y016666D01*
X027964Y016639D01*
X027921Y016615D01*
X027877Y016595D01*
X027831Y016578D01*
X027784Y016565D01*
X027735Y016556D01*
X027687Y016551D01*
X027638Y016550D01*
X027589Y016553D01*
X027540Y016560D01*
X027493Y016571D01*
X027446Y016586D01*
X027401Y016604D01*
X027357Y016626D01*
X027315Y016652D01*
X027276Y016681D01*
X027239Y016713D01*
X027205Y016748D01*
X027173Y016786D01*
X027145Y016826D01*
X027120Y016868D01*
X027099Y016912D01*
X027082Y016958D01*
X027068Y017005D01*
X027058Y017053D01*
X027052Y017101D01*
X027050Y017150D01*
X027350Y014650D02*
X027352Y014684D01*
X027358Y014718D01*
X027367Y014751D01*
X027381Y014782D01*
X027398Y014812D01*
X027418Y014840D01*
X027441Y014865D01*
X027467Y014888D01*
X027495Y014907D01*
X027525Y014923D01*
X027557Y014935D01*
X027590Y014944D01*
X027624Y014949D01*
X027659Y014950D01*
X027693Y014947D01*
X027726Y014940D01*
X027759Y014930D01*
X027790Y014915D01*
X027819Y014898D01*
X027846Y014877D01*
X027871Y014853D01*
X027893Y014826D01*
X027911Y014798D01*
X027926Y014767D01*
X027938Y014735D01*
X027946Y014701D01*
X027950Y014667D01*
X027950Y014633D01*
X027946Y014599D01*
X027938Y014565D01*
X027926Y014533D01*
X027911Y014502D01*
X027893Y014474D01*
X027871Y014447D01*
X027846Y014423D01*
X027819Y014402D01*
X027790Y014385D01*
X027759Y014370D01*
X027726Y014360D01*
X027693Y014353D01*
X027659Y014350D01*
X027624Y014351D01*
X027590Y014356D01*
X027557Y014365D01*
X027525Y014377D01*
X027495Y014393D01*
X027467Y014412D01*
X027441Y014435D01*
X027418Y014460D01*
X027398Y014488D01*
X027381Y014518D01*
X027367Y014549D01*
X027358Y014582D01*
X027352Y014616D01*
X027350Y014650D01*
X024350Y012850D02*
X024352Y012884D01*
X024358Y012918D01*
X024367Y012951D01*
X024381Y012982D01*
X024398Y013012D01*
X024418Y013040D01*
X024441Y013065D01*
X024467Y013088D01*
X024495Y013107D01*
X024525Y013123D01*
X024557Y013135D01*
X024590Y013144D01*
X024624Y013149D01*
X024659Y013150D01*
X024693Y013147D01*
X024726Y013140D01*
X024759Y013130D01*
X024790Y013115D01*
X024819Y013098D01*
X024846Y013077D01*
X024871Y013053D01*
X024893Y013026D01*
X024911Y012998D01*
X024926Y012967D01*
X024938Y012935D01*
X024946Y012901D01*
X024950Y012867D01*
X024950Y012833D01*
X024946Y012799D01*
X024938Y012765D01*
X024926Y012733D01*
X024911Y012702D01*
X024893Y012674D01*
X024871Y012647D01*
X024846Y012623D01*
X024819Y012602D01*
X024790Y012585D01*
X024759Y012570D01*
X024726Y012560D01*
X024693Y012553D01*
X024659Y012550D01*
X024624Y012551D01*
X024590Y012556D01*
X024557Y012565D01*
X024525Y012577D01*
X024495Y012593D01*
X024467Y012612D01*
X024441Y012635D01*
X024418Y012660D01*
X024398Y012688D01*
X024381Y012718D01*
X024367Y012749D01*
X024358Y012782D01*
X024352Y012816D01*
X024350Y012850D01*
X022350Y012850D02*
X022352Y012884D01*
X022358Y012918D01*
X022367Y012951D01*
X022381Y012982D01*
X022398Y013012D01*
X022418Y013040D01*
X022441Y013065D01*
X022467Y013088D01*
X022495Y013107D01*
X022525Y013123D01*
X022557Y013135D01*
X022590Y013144D01*
X022624Y013149D01*
X022659Y013150D01*
X022693Y013147D01*
X022726Y013140D01*
X022759Y013130D01*
X022790Y013115D01*
X022819Y013098D01*
X022846Y013077D01*
X022871Y013053D01*
X022893Y013026D01*
X022911Y012998D01*
X022926Y012967D01*
X022938Y012935D01*
X022946Y012901D01*
X022950Y012867D01*
X022950Y012833D01*
X022946Y012799D01*
X022938Y012765D01*
X022926Y012733D01*
X022911Y012702D01*
X022893Y012674D01*
X022871Y012647D01*
X022846Y012623D01*
X022819Y012602D01*
X022790Y012585D01*
X022759Y012570D01*
X022726Y012560D01*
X022693Y012553D01*
X022659Y012550D01*
X022624Y012551D01*
X022590Y012556D01*
X022557Y012565D01*
X022525Y012577D01*
X022495Y012593D01*
X022467Y012612D01*
X022441Y012635D01*
X022418Y012660D01*
X022398Y012688D01*
X022381Y012718D01*
X022367Y012749D01*
X022358Y012782D01*
X022352Y012816D01*
X022350Y012850D01*
X019350Y014650D02*
X019352Y014684D01*
X019358Y014718D01*
X019367Y014751D01*
X019381Y014782D01*
X019398Y014812D01*
X019418Y014840D01*
X019441Y014865D01*
X019467Y014888D01*
X019495Y014907D01*
X019525Y014923D01*
X019557Y014935D01*
X019590Y014944D01*
X019624Y014949D01*
X019659Y014950D01*
X019693Y014947D01*
X019726Y014940D01*
X019759Y014930D01*
X019790Y014915D01*
X019819Y014898D01*
X019846Y014877D01*
X019871Y014853D01*
X019893Y014826D01*
X019911Y014798D01*
X019926Y014767D01*
X019938Y014735D01*
X019946Y014701D01*
X019950Y014667D01*
X019950Y014633D01*
X019946Y014599D01*
X019938Y014565D01*
X019926Y014533D01*
X019911Y014502D01*
X019893Y014474D01*
X019871Y014447D01*
X019846Y014423D01*
X019819Y014402D01*
X019790Y014385D01*
X019759Y014370D01*
X019726Y014360D01*
X019693Y014353D01*
X019659Y014350D01*
X019624Y014351D01*
X019590Y014356D01*
X019557Y014365D01*
X019525Y014377D01*
X019495Y014393D01*
X019467Y014412D01*
X019441Y014435D01*
X019418Y014460D01*
X019398Y014488D01*
X019381Y014518D01*
X019367Y014549D01*
X019358Y014582D01*
X019352Y014616D01*
X019350Y014650D01*
X019050Y017150D02*
X019052Y017199D01*
X019058Y017247D01*
X019068Y017295D01*
X019082Y017342D01*
X019099Y017388D01*
X019120Y017432D01*
X019145Y017474D01*
X019173Y017514D01*
X019205Y017552D01*
X019239Y017587D01*
X019276Y017619D01*
X019315Y017648D01*
X019357Y017674D01*
X019401Y017696D01*
X019446Y017714D01*
X019493Y017729D01*
X019540Y017740D01*
X019589Y017747D01*
X019638Y017750D01*
X019687Y017749D01*
X019735Y017744D01*
X019784Y017735D01*
X019831Y017722D01*
X019877Y017705D01*
X019921Y017685D01*
X019964Y017661D01*
X020005Y017634D01*
X020043Y017603D01*
X020079Y017570D01*
X020111Y017534D01*
X020141Y017495D01*
X020168Y017454D01*
X020191Y017410D01*
X020210Y017365D01*
X020226Y017319D01*
X020238Y017272D01*
X020246Y017223D01*
X020250Y017174D01*
X020250Y017126D01*
X020246Y017077D01*
X020238Y017028D01*
X020226Y016981D01*
X020210Y016935D01*
X020191Y016890D01*
X020168Y016846D01*
X020141Y016805D01*
X020111Y016766D01*
X020079Y016730D01*
X020043Y016697D01*
X020005Y016666D01*
X019964Y016639D01*
X019921Y016615D01*
X019877Y016595D01*
X019831Y016578D01*
X019784Y016565D01*
X019735Y016556D01*
X019687Y016551D01*
X019638Y016550D01*
X019589Y016553D01*
X019540Y016560D01*
X019493Y016571D01*
X019446Y016586D01*
X019401Y016604D01*
X019357Y016626D01*
X019315Y016652D01*
X019276Y016681D01*
X019239Y016713D01*
X019205Y016748D01*
X019173Y016786D01*
X019145Y016826D01*
X019120Y016868D01*
X019099Y016912D01*
X019082Y016958D01*
X019068Y017005D01*
X019058Y017053D01*
X019052Y017101D01*
X019050Y017150D01*
X011050Y017150D02*
X011052Y017199D01*
X011058Y017247D01*
X011068Y017295D01*
X011082Y017342D01*
X011099Y017388D01*
X011120Y017432D01*
X011145Y017474D01*
X011173Y017514D01*
X011205Y017552D01*
X011239Y017587D01*
X011276Y017619D01*
X011315Y017648D01*
X011357Y017674D01*
X011401Y017696D01*
X011446Y017714D01*
X011493Y017729D01*
X011540Y017740D01*
X011589Y017747D01*
X011638Y017750D01*
X011687Y017749D01*
X011735Y017744D01*
X011784Y017735D01*
X011831Y017722D01*
X011877Y017705D01*
X011921Y017685D01*
X011964Y017661D01*
X012005Y017634D01*
X012043Y017603D01*
X012079Y017570D01*
X012111Y017534D01*
X012141Y017495D01*
X012168Y017454D01*
X012191Y017410D01*
X012210Y017365D01*
X012226Y017319D01*
X012238Y017272D01*
X012246Y017223D01*
X012250Y017174D01*
X012250Y017126D01*
X012246Y017077D01*
X012238Y017028D01*
X012226Y016981D01*
X012210Y016935D01*
X012191Y016890D01*
X012168Y016846D01*
X012141Y016805D01*
X012111Y016766D01*
X012079Y016730D01*
X012043Y016697D01*
X012005Y016666D01*
X011964Y016639D01*
X011921Y016615D01*
X011877Y016595D01*
X011831Y016578D01*
X011784Y016565D01*
X011735Y016556D01*
X011687Y016551D01*
X011638Y016550D01*
X011589Y016553D01*
X011540Y016560D01*
X011493Y016571D01*
X011446Y016586D01*
X011401Y016604D01*
X011357Y016626D01*
X011315Y016652D01*
X011276Y016681D01*
X011239Y016713D01*
X011205Y016748D01*
X011173Y016786D01*
X011145Y016826D01*
X011120Y016868D01*
X011099Y016912D01*
X011082Y016958D01*
X011068Y017005D01*
X011058Y017053D01*
X011052Y017101D01*
X011050Y017150D01*
X011350Y014650D02*
X011352Y014684D01*
X011358Y014718D01*
X011367Y014751D01*
X011381Y014782D01*
X011398Y014812D01*
X011418Y014840D01*
X011441Y014865D01*
X011467Y014888D01*
X011495Y014907D01*
X011525Y014923D01*
X011557Y014935D01*
X011590Y014944D01*
X011624Y014949D01*
X011659Y014950D01*
X011693Y014947D01*
X011726Y014940D01*
X011759Y014930D01*
X011790Y014915D01*
X011819Y014898D01*
X011846Y014877D01*
X011871Y014853D01*
X011893Y014826D01*
X011911Y014798D01*
X011926Y014767D01*
X011938Y014735D01*
X011946Y014701D01*
X011950Y014667D01*
X011950Y014633D01*
X011946Y014599D01*
X011938Y014565D01*
X011926Y014533D01*
X011911Y014502D01*
X011893Y014474D01*
X011871Y014447D01*
X011846Y014423D01*
X011819Y014402D01*
X011790Y014385D01*
X011759Y014370D01*
X011726Y014360D01*
X011693Y014353D01*
X011659Y014350D01*
X011624Y014351D01*
X011590Y014356D01*
X011557Y014365D01*
X011525Y014377D01*
X011495Y014393D01*
X011467Y014412D01*
X011441Y014435D01*
X011418Y014460D01*
X011398Y014488D01*
X011381Y014518D01*
X011367Y014549D01*
X011358Y014582D01*
X011352Y014616D01*
X011350Y014650D01*
X008350Y012850D02*
X008352Y012884D01*
X008358Y012918D01*
X008367Y012951D01*
X008381Y012982D01*
X008398Y013012D01*
X008418Y013040D01*
X008441Y013065D01*
X008467Y013088D01*
X008495Y013107D01*
X008525Y013123D01*
X008557Y013135D01*
X008590Y013144D01*
X008624Y013149D01*
X008659Y013150D01*
X008693Y013147D01*
X008726Y013140D01*
X008759Y013130D01*
X008790Y013115D01*
X008819Y013098D01*
X008846Y013077D01*
X008871Y013053D01*
X008893Y013026D01*
X008911Y012998D01*
X008926Y012967D01*
X008938Y012935D01*
X008946Y012901D01*
X008950Y012867D01*
X008950Y012833D01*
X008946Y012799D01*
X008938Y012765D01*
X008926Y012733D01*
X008911Y012702D01*
X008893Y012674D01*
X008871Y012647D01*
X008846Y012623D01*
X008819Y012602D01*
X008790Y012585D01*
X008759Y012570D01*
X008726Y012560D01*
X008693Y012553D01*
X008659Y012550D01*
X008624Y012551D01*
X008590Y012556D01*
X008557Y012565D01*
X008525Y012577D01*
X008495Y012593D01*
X008467Y012612D01*
X008441Y012635D01*
X008418Y012660D01*
X008398Y012688D01*
X008381Y012718D01*
X008367Y012749D01*
X008358Y012782D01*
X008352Y012816D01*
X008350Y012850D01*
X014350Y009450D02*
X014352Y009484D01*
X014358Y009518D01*
X014367Y009551D01*
X014381Y009582D01*
X014398Y009612D01*
X014418Y009640D01*
X014441Y009665D01*
X014467Y009688D01*
X014495Y009707D01*
X014525Y009723D01*
X014557Y009735D01*
X014590Y009744D01*
X014624Y009749D01*
X014659Y009750D01*
X014693Y009747D01*
X014726Y009740D01*
X014759Y009730D01*
X014790Y009715D01*
X014819Y009698D01*
X014846Y009677D01*
X014871Y009653D01*
X014893Y009626D01*
X014911Y009598D01*
X014926Y009567D01*
X014938Y009535D01*
X014946Y009501D01*
X014950Y009467D01*
X014950Y009433D01*
X014946Y009399D01*
X014938Y009365D01*
X014926Y009333D01*
X014911Y009302D01*
X014893Y009274D01*
X014871Y009247D01*
X014846Y009223D01*
X014819Y009202D01*
X014790Y009185D01*
X014759Y009170D01*
X014726Y009160D01*
X014693Y009153D01*
X014659Y009150D01*
X014624Y009151D01*
X014590Y009156D01*
X014557Y009165D01*
X014525Y009177D01*
X014495Y009193D01*
X014467Y009212D01*
X014441Y009235D01*
X014418Y009260D01*
X014398Y009288D01*
X014381Y009318D01*
X014367Y009349D01*
X014358Y009382D01*
X014352Y009416D01*
X014350Y009450D01*
X016400Y009350D02*
X016402Y009384D01*
X016408Y009418D01*
X016417Y009451D01*
X016431Y009482D01*
X016448Y009512D01*
X016468Y009540D01*
X016491Y009565D01*
X016517Y009588D01*
X016545Y009607D01*
X016575Y009623D01*
X016607Y009635D01*
X016640Y009644D01*
X016674Y009649D01*
X016709Y009650D01*
X016743Y009647D01*
X016776Y009640D01*
X016809Y009630D01*
X016840Y009615D01*
X016869Y009598D01*
X016896Y009577D01*
X016921Y009553D01*
X016943Y009526D01*
X016961Y009498D01*
X016976Y009467D01*
X016988Y009435D01*
X016996Y009401D01*
X017000Y009367D01*
X017000Y009333D01*
X016996Y009299D01*
X016988Y009265D01*
X016976Y009233D01*
X016961Y009202D01*
X016943Y009174D01*
X016921Y009147D01*
X016896Y009123D01*
X016869Y009102D01*
X016840Y009085D01*
X016809Y009070D01*
X016776Y009060D01*
X016743Y009053D01*
X016709Y009050D01*
X016674Y009051D01*
X016640Y009056D01*
X016607Y009065D01*
X016575Y009077D01*
X016545Y009093D01*
X016517Y009112D01*
X016491Y009135D01*
X016468Y009160D01*
X016448Y009188D01*
X016431Y009218D01*
X016417Y009249D01*
X016408Y009282D01*
X016402Y009316D01*
X016400Y009350D01*
X019350Y007650D02*
X019352Y007684D01*
X019358Y007718D01*
X019367Y007751D01*
X019381Y007782D01*
X019398Y007812D01*
X019418Y007840D01*
X019441Y007865D01*
X019467Y007888D01*
X019495Y007907D01*
X019525Y007923D01*
X019557Y007935D01*
X019590Y007944D01*
X019624Y007949D01*
X019659Y007950D01*
X019693Y007947D01*
X019726Y007940D01*
X019759Y007930D01*
X019790Y007915D01*
X019819Y007898D01*
X019846Y007877D01*
X019871Y007853D01*
X019893Y007826D01*
X019911Y007798D01*
X019926Y007767D01*
X019938Y007735D01*
X019946Y007701D01*
X019950Y007667D01*
X019950Y007633D01*
X019946Y007599D01*
X019938Y007565D01*
X019926Y007533D01*
X019911Y007502D01*
X019893Y007474D01*
X019871Y007447D01*
X019846Y007423D01*
X019819Y007402D01*
X019790Y007385D01*
X019759Y007370D01*
X019726Y007360D01*
X019693Y007353D01*
X019659Y007350D01*
X019624Y007351D01*
X019590Y007356D01*
X019557Y007365D01*
X019525Y007377D01*
X019495Y007393D01*
X019467Y007412D01*
X019441Y007435D01*
X019418Y007460D01*
X019398Y007488D01*
X019381Y007518D01*
X019367Y007549D01*
X019358Y007582D01*
X019352Y007616D01*
X019350Y007650D01*
X019050Y005150D02*
X019052Y005199D01*
X019058Y005247D01*
X019068Y005295D01*
X019082Y005342D01*
X019099Y005388D01*
X019120Y005432D01*
X019145Y005474D01*
X019173Y005514D01*
X019205Y005552D01*
X019239Y005587D01*
X019276Y005619D01*
X019315Y005648D01*
X019357Y005674D01*
X019401Y005696D01*
X019446Y005714D01*
X019493Y005729D01*
X019540Y005740D01*
X019589Y005747D01*
X019638Y005750D01*
X019687Y005749D01*
X019735Y005744D01*
X019784Y005735D01*
X019831Y005722D01*
X019877Y005705D01*
X019921Y005685D01*
X019964Y005661D01*
X020005Y005634D01*
X020043Y005603D01*
X020079Y005570D01*
X020111Y005534D01*
X020141Y005495D01*
X020168Y005454D01*
X020191Y005410D01*
X020210Y005365D01*
X020226Y005319D01*
X020238Y005272D01*
X020246Y005223D01*
X020250Y005174D01*
X020250Y005126D01*
X020246Y005077D01*
X020238Y005028D01*
X020226Y004981D01*
X020210Y004935D01*
X020191Y004890D01*
X020168Y004846D01*
X020141Y004805D01*
X020111Y004766D01*
X020079Y004730D01*
X020043Y004697D01*
X020005Y004666D01*
X019964Y004639D01*
X019921Y004615D01*
X019877Y004595D01*
X019831Y004578D01*
X019784Y004565D01*
X019735Y004556D01*
X019687Y004551D01*
X019638Y004550D01*
X019589Y004553D01*
X019540Y004560D01*
X019493Y004571D01*
X019446Y004586D01*
X019401Y004604D01*
X019357Y004626D01*
X019315Y004652D01*
X019276Y004681D01*
X019239Y004713D01*
X019205Y004748D01*
X019173Y004786D01*
X019145Y004826D01*
X019120Y004868D01*
X019099Y004912D01*
X019082Y004958D01*
X019068Y005005D01*
X019058Y005053D01*
X019052Y005101D01*
X019050Y005150D01*
X027050Y005150D02*
X027052Y005199D01*
X027058Y005247D01*
X027068Y005295D01*
X027082Y005342D01*
X027099Y005388D01*
X027120Y005432D01*
X027145Y005474D01*
X027173Y005514D01*
X027205Y005552D01*
X027239Y005587D01*
X027276Y005619D01*
X027315Y005648D01*
X027357Y005674D01*
X027401Y005696D01*
X027446Y005714D01*
X027493Y005729D01*
X027540Y005740D01*
X027589Y005747D01*
X027638Y005750D01*
X027687Y005749D01*
X027735Y005744D01*
X027784Y005735D01*
X027831Y005722D01*
X027877Y005705D01*
X027921Y005685D01*
X027964Y005661D01*
X028005Y005634D01*
X028043Y005603D01*
X028079Y005570D01*
X028111Y005534D01*
X028141Y005495D01*
X028168Y005454D01*
X028191Y005410D01*
X028210Y005365D01*
X028226Y005319D01*
X028238Y005272D01*
X028246Y005223D01*
X028250Y005174D01*
X028250Y005126D01*
X028246Y005077D01*
X028238Y005028D01*
X028226Y004981D01*
X028210Y004935D01*
X028191Y004890D01*
X028168Y004846D01*
X028141Y004805D01*
X028111Y004766D01*
X028079Y004730D01*
X028043Y004697D01*
X028005Y004666D01*
X027964Y004639D01*
X027921Y004615D01*
X027877Y004595D01*
X027831Y004578D01*
X027784Y004565D01*
X027735Y004556D01*
X027687Y004551D01*
X027638Y004550D01*
X027589Y004553D01*
X027540Y004560D01*
X027493Y004571D01*
X027446Y004586D01*
X027401Y004604D01*
X027357Y004626D01*
X027315Y004652D01*
X027276Y004681D01*
X027239Y004713D01*
X027205Y004748D01*
X027173Y004786D01*
X027145Y004826D01*
X027120Y004868D01*
X027099Y004912D01*
X027082Y004958D01*
X027068Y005005D01*
X027058Y005053D01*
X027052Y005101D01*
X027050Y005150D01*
X027350Y007650D02*
X027352Y007684D01*
X027358Y007718D01*
X027367Y007751D01*
X027381Y007782D01*
X027398Y007812D01*
X027418Y007840D01*
X027441Y007865D01*
X027467Y007888D01*
X027495Y007907D01*
X027525Y007923D01*
X027557Y007935D01*
X027590Y007944D01*
X027624Y007949D01*
X027659Y007950D01*
X027693Y007947D01*
X027726Y007940D01*
X027759Y007930D01*
X027790Y007915D01*
X027819Y007898D01*
X027846Y007877D01*
X027871Y007853D01*
X027893Y007826D01*
X027911Y007798D01*
X027926Y007767D01*
X027938Y007735D01*
X027946Y007701D01*
X027950Y007667D01*
X027950Y007633D01*
X027946Y007599D01*
X027938Y007565D01*
X027926Y007533D01*
X027911Y007502D01*
X027893Y007474D01*
X027871Y007447D01*
X027846Y007423D01*
X027819Y007402D01*
X027790Y007385D01*
X027759Y007370D01*
X027726Y007360D01*
X027693Y007353D01*
X027659Y007350D01*
X027624Y007351D01*
X027590Y007356D01*
X027557Y007365D01*
X027525Y007377D01*
X027495Y007393D01*
X027467Y007412D01*
X027441Y007435D01*
X027418Y007460D01*
X027398Y007488D01*
X027381Y007518D01*
X027367Y007549D01*
X027358Y007582D01*
X027352Y007616D01*
X027350Y007650D01*
X030350Y009450D02*
X030352Y009484D01*
X030358Y009518D01*
X030367Y009551D01*
X030381Y009582D01*
X030398Y009612D01*
X030418Y009640D01*
X030441Y009665D01*
X030467Y009688D01*
X030495Y009707D01*
X030525Y009723D01*
X030557Y009735D01*
X030590Y009744D01*
X030624Y009749D01*
X030659Y009750D01*
X030693Y009747D01*
X030726Y009740D01*
X030759Y009730D01*
X030790Y009715D01*
X030819Y009698D01*
X030846Y009677D01*
X030871Y009653D01*
X030893Y009626D01*
X030911Y009598D01*
X030926Y009567D01*
X030938Y009535D01*
X030946Y009501D01*
X030950Y009467D01*
X030950Y009433D01*
X030946Y009399D01*
X030938Y009365D01*
X030926Y009333D01*
X030911Y009302D01*
X030893Y009274D01*
X030871Y009247D01*
X030846Y009223D01*
X030819Y009202D01*
X030790Y009185D01*
X030759Y009170D01*
X030726Y009160D01*
X030693Y009153D01*
X030659Y009150D01*
X030624Y009151D01*
X030590Y009156D01*
X030557Y009165D01*
X030525Y009177D01*
X030495Y009193D01*
X030467Y009212D01*
X030441Y009235D01*
X030418Y009260D01*
X030398Y009288D01*
X030381Y009318D01*
X030367Y009349D01*
X030358Y009382D01*
X030352Y009416D01*
X030350Y009450D01*
X032400Y009350D02*
X032402Y009384D01*
X032408Y009418D01*
X032417Y009451D01*
X032431Y009482D01*
X032448Y009512D01*
X032468Y009540D01*
X032491Y009565D01*
X032517Y009588D01*
X032545Y009607D01*
X032575Y009623D01*
X032607Y009635D01*
X032640Y009644D01*
X032674Y009649D01*
X032709Y009650D01*
X032743Y009647D01*
X032776Y009640D01*
X032809Y009630D01*
X032840Y009615D01*
X032869Y009598D01*
X032896Y009577D01*
X032921Y009553D01*
X032943Y009526D01*
X032961Y009498D01*
X032976Y009467D01*
X032988Y009435D01*
X032996Y009401D01*
X033000Y009367D01*
X033000Y009333D01*
X032996Y009299D01*
X032988Y009265D01*
X032976Y009233D01*
X032961Y009202D01*
X032943Y009174D01*
X032921Y009147D01*
X032896Y009123D01*
X032869Y009102D01*
X032840Y009085D01*
X032809Y009070D01*
X032776Y009060D01*
X032743Y009053D01*
X032709Y009050D01*
X032674Y009051D01*
X032640Y009056D01*
X032607Y009065D01*
X032575Y009077D01*
X032545Y009093D01*
X032517Y009112D01*
X032491Y009135D01*
X032468Y009160D01*
X032448Y009188D01*
X032431Y009218D01*
X032417Y009249D01*
X032408Y009282D01*
X032402Y009316D01*
X032400Y009350D01*
X035350Y007650D02*
X035352Y007684D01*
X035358Y007718D01*
X035367Y007751D01*
X035381Y007782D01*
X035398Y007812D01*
X035418Y007840D01*
X035441Y007865D01*
X035467Y007888D01*
X035495Y007907D01*
X035525Y007923D01*
X035557Y007935D01*
X035590Y007944D01*
X035624Y007949D01*
X035659Y007950D01*
X035693Y007947D01*
X035726Y007940D01*
X035759Y007930D01*
X035790Y007915D01*
X035819Y007898D01*
X035846Y007877D01*
X035871Y007853D01*
X035893Y007826D01*
X035911Y007798D01*
X035926Y007767D01*
X035938Y007735D01*
X035946Y007701D01*
X035950Y007667D01*
X035950Y007633D01*
X035946Y007599D01*
X035938Y007565D01*
X035926Y007533D01*
X035911Y007502D01*
X035893Y007474D01*
X035871Y007447D01*
X035846Y007423D01*
X035819Y007402D01*
X035790Y007385D01*
X035759Y007370D01*
X035726Y007360D01*
X035693Y007353D01*
X035659Y007350D01*
X035624Y007351D01*
X035590Y007356D01*
X035557Y007365D01*
X035525Y007377D01*
X035495Y007393D01*
X035467Y007412D01*
X035441Y007435D01*
X035418Y007460D01*
X035398Y007488D01*
X035381Y007518D01*
X035367Y007549D01*
X035358Y007582D01*
X035352Y007616D01*
X035350Y007650D01*
X035050Y005150D02*
X035052Y005199D01*
X035058Y005247D01*
X035068Y005295D01*
X035082Y005342D01*
X035099Y005388D01*
X035120Y005432D01*
X035145Y005474D01*
X035173Y005514D01*
X035205Y005552D01*
X035239Y005587D01*
X035276Y005619D01*
X035315Y005648D01*
X035357Y005674D01*
X035401Y005696D01*
X035446Y005714D01*
X035493Y005729D01*
X035540Y005740D01*
X035589Y005747D01*
X035638Y005750D01*
X035687Y005749D01*
X035735Y005744D01*
X035784Y005735D01*
X035831Y005722D01*
X035877Y005705D01*
X035921Y005685D01*
X035964Y005661D01*
X036005Y005634D01*
X036043Y005603D01*
X036079Y005570D01*
X036111Y005534D01*
X036141Y005495D01*
X036168Y005454D01*
X036191Y005410D01*
X036210Y005365D01*
X036226Y005319D01*
X036238Y005272D01*
X036246Y005223D01*
X036250Y005174D01*
X036250Y005126D01*
X036246Y005077D01*
X036238Y005028D01*
X036226Y004981D01*
X036210Y004935D01*
X036191Y004890D01*
X036168Y004846D01*
X036141Y004805D01*
X036111Y004766D01*
X036079Y004730D01*
X036043Y004697D01*
X036005Y004666D01*
X035964Y004639D01*
X035921Y004615D01*
X035877Y004595D01*
X035831Y004578D01*
X035784Y004565D01*
X035735Y004556D01*
X035687Y004551D01*
X035638Y004550D01*
X035589Y004553D01*
X035540Y004560D01*
X035493Y004571D01*
X035446Y004586D01*
X035401Y004604D01*
X035357Y004626D01*
X035315Y004652D01*
X035276Y004681D01*
X035239Y004713D01*
X035205Y004748D01*
X035173Y004786D01*
X035145Y004826D01*
X035120Y004868D01*
X035099Y004912D01*
X035082Y004958D01*
X035068Y005005D01*
X035058Y005053D01*
X035052Y005101D01*
X035050Y005150D01*
X043050Y005150D02*
X043052Y005199D01*
X043058Y005247D01*
X043068Y005295D01*
X043082Y005342D01*
X043099Y005388D01*
X043120Y005432D01*
X043145Y005474D01*
X043173Y005514D01*
X043205Y005552D01*
X043239Y005587D01*
X043276Y005619D01*
X043315Y005648D01*
X043357Y005674D01*
X043401Y005696D01*
X043446Y005714D01*
X043493Y005729D01*
X043540Y005740D01*
X043589Y005747D01*
X043638Y005750D01*
X043687Y005749D01*
X043735Y005744D01*
X043784Y005735D01*
X043831Y005722D01*
X043877Y005705D01*
X043921Y005685D01*
X043964Y005661D01*
X044005Y005634D01*
X044043Y005603D01*
X044079Y005570D01*
X044111Y005534D01*
X044141Y005495D01*
X044168Y005454D01*
X044191Y005410D01*
X044210Y005365D01*
X044226Y005319D01*
X044238Y005272D01*
X044246Y005223D01*
X044250Y005174D01*
X044250Y005126D01*
X044246Y005077D01*
X044238Y005028D01*
X044226Y004981D01*
X044210Y004935D01*
X044191Y004890D01*
X044168Y004846D01*
X044141Y004805D01*
X044111Y004766D01*
X044079Y004730D01*
X044043Y004697D01*
X044005Y004666D01*
X043964Y004639D01*
X043921Y004615D01*
X043877Y004595D01*
X043831Y004578D01*
X043784Y004565D01*
X043735Y004556D01*
X043687Y004551D01*
X043638Y004550D01*
X043589Y004553D01*
X043540Y004560D01*
X043493Y004571D01*
X043446Y004586D01*
X043401Y004604D01*
X043357Y004626D01*
X043315Y004652D01*
X043276Y004681D01*
X043239Y004713D01*
X043205Y004748D01*
X043173Y004786D01*
X043145Y004826D01*
X043120Y004868D01*
X043099Y004912D01*
X043082Y004958D01*
X043068Y005005D01*
X043058Y005053D01*
X043052Y005101D01*
X043050Y005150D01*
X043350Y007650D02*
X043352Y007684D01*
X043358Y007718D01*
X043367Y007751D01*
X043381Y007782D01*
X043398Y007812D01*
X043418Y007840D01*
X043441Y007865D01*
X043467Y007888D01*
X043495Y007907D01*
X043525Y007923D01*
X043557Y007935D01*
X043590Y007944D01*
X043624Y007949D01*
X043659Y007950D01*
X043693Y007947D01*
X043726Y007940D01*
X043759Y007930D01*
X043790Y007915D01*
X043819Y007898D01*
X043846Y007877D01*
X043871Y007853D01*
X043893Y007826D01*
X043911Y007798D01*
X043926Y007767D01*
X043938Y007735D01*
X043946Y007701D01*
X043950Y007667D01*
X043950Y007633D01*
X043946Y007599D01*
X043938Y007565D01*
X043926Y007533D01*
X043911Y007502D01*
X043893Y007474D01*
X043871Y007447D01*
X043846Y007423D01*
X043819Y007402D01*
X043790Y007385D01*
X043759Y007370D01*
X043726Y007360D01*
X043693Y007353D01*
X043659Y007350D01*
X043624Y007351D01*
X043590Y007356D01*
X043557Y007365D01*
X043525Y007377D01*
X043495Y007393D01*
X043467Y007412D01*
X043441Y007435D01*
X043418Y007460D01*
X043398Y007488D01*
X043381Y007518D01*
X043367Y007549D01*
X043358Y007582D01*
X043352Y007616D01*
X043350Y007650D01*
X046350Y009450D02*
X046352Y009484D01*
X046358Y009518D01*
X046367Y009551D01*
X046381Y009582D01*
X046398Y009612D01*
X046418Y009640D01*
X046441Y009665D01*
X046467Y009688D01*
X046495Y009707D01*
X046525Y009723D01*
X046557Y009735D01*
X046590Y009744D01*
X046624Y009749D01*
X046659Y009750D01*
X046693Y009747D01*
X046726Y009740D01*
X046759Y009730D01*
X046790Y009715D01*
X046819Y009698D01*
X046846Y009677D01*
X046871Y009653D01*
X046893Y009626D01*
X046911Y009598D01*
X046926Y009567D01*
X046938Y009535D01*
X046946Y009501D01*
X046950Y009467D01*
X046950Y009433D01*
X046946Y009399D01*
X046938Y009365D01*
X046926Y009333D01*
X046911Y009302D01*
X046893Y009274D01*
X046871Y009247D01*
X046846Y009223D01*
X046819Y009202D01*
X046790Y009185D01*
X046759Y009170D01*
X046726Y009160D01*
X046693Y009153D01*
X046659Y009150D01*
X046624Y009151D01*
X046590Y009156D01*
X046557Y009165D01*
X046525Y009177D01*
X046495Y009193D01*
X046467Y009212D01*
X046441Y009235D01*
X046418Y009260D01*
X046398Y009288D01*
X046381Y009318D01*
X046367Y009349D01*
X046358Y009382D01*
X046352Y009416D01*
X046350Y009450D01*
X043050Y017150D02*
X043052Y017199D01*
X043058Y017247D01*
X043068Y017295D01*
X043082Y017342D01*
X043099Y017388D01*
X043120Y017432D01*
X043145Y017474D01*
X043173Y017514D01*
X043205Y017552D01*
X043239Y017587D01*
X043276Y017619D01*
X043315Y017648D01*
X043357Y017674D01*
X043401Y017696D01*
X043446Y017714D01*
X043493Y017729D01*
X043540Y017740D01*
X043589Y017747D01*
X043638Y017750D01*
X043687Y017749D01*
X043735Y017744D01*
X043784Y017735D01*
X043831Y017722D01*
X043877Y017705D01*
X043921Y017685D01*
X043964Y017661D01*
X044005Y017634D01*
X044043Y017603D01*
X044079Y017570D01*
X044111Y017534D01*
X044141Y017495D01*
X044168Y017454D01*
X044191Y017410D01*
X044210Y017365D01*
X044226Y017319D01*
X044238Y017272D01*
X044246Y017223D01*
X044250Y017174D01*
X044250Y017126D01*
X044246Y017077D01*
X044238Y017028D01*
X044226Y016981D01*
X044210Y016935D01*
X044191Y016890D01*
X044168Y016846D01*
X044141Y016805D01*
X044111Y016766D01*
X044079Y016730D01*
X044043Y016697D01*
X044005Y016666D01*
X043964Y016639D01*
X043921Y016615D01*
X043877Y016595D01*
X043831Y016578D01*
X043784Y016565D01*
X043735Y016556D01*
X043687Y016551D01*
X043638Y016550D01*
X043589Y016553D01*
X043540Y016560D01*
X043493Y016571D01*
X043446Y016586D01*
X043401Y016604D01*
X043357Y016626D01*
X043315Y016652D01*
X043276Y016681D01*
X043239Y016713D01*
X043205Y016748D01*
X043173Y016786D01*
X043145Y016826D01*
X043120Y016868D01*
X043099Y016912D01*
X043082Y016958D01*
X043068Y017005D01*
X043058Y017053D01*
X043052Y017101D01*
X043050Y017150D01*
X052050Y020150D02*
X052052Y020199D01*
X052058Y020247D01*
X052068Y020295D01*
X052082Y020342D01*
X052099Y020388D01*
X052120Y020432D01*
X052145Y020474D01*
X052173Y020514D01*
X052205Y020552D01*
X052239Y020587D01*
X052276Y020619D01*
X052315Y020648D01*
X052357Y020674D01*
X052401Y020696D01*
X052446Y020714D01*
X052493Y020729D01*
X052540Y020740D01*
X052589Y020747D01*
X052638Y020750D01*
X052687Y020749D01*
X052735Y020744D01*
X052784Y020735D01*
X052831Y020722D01*
X052877Y020705D01*
X052921Y020685D01*
X052964Y020661D01*
X053005Y020634D01*
X053043Y020603D01*
X053079Y020570D01*
X053111Y020534D01*
X053141Y020495D01*
X053168Y020454D01*
X053191Y020410D01*
X053210Y020365D01*
X053226Y020319D01*
X053238Y020272D01*
X053246Y020223D01*
X053250Y020174D01*
X053250Y020126D01*
X053246Y020077D01*
X053238Y020028D01*
X053226Y019981D01*
X053210Y019935D01*
X053191Y019890D01*
X053168Y019846D01*
X053141Y019805D01*
X053111Y019766D01*
X053079Y019730D01*
X053043Y019697D01*
X053005Y019666D01*
X052964Y019639D01*
X052921Y019615D01*
X052877Y019595D01*
X052831Y019578D01*
X052784Y019565D01*
X052735Y019556D01*
X052687Y019551D01*
X052638Y019550D01*
X052589Y019553D01*
X052540Y019560D01*
X052493Y019571D01*
X052446Y019586D01*
X052401Y019604D01*
X052357Y019626D01*
X052315Y019652D01*
X052276Y019681D01*
X052239Y019713D01*
X052205Y019748D01*
X052173Y019786D01*
X052145Y019826D01*
X052120Y019868D01*
X052099Y019912D01*
X052082Y019958D01*
X052068Y020005D01*
X052058Y020053D01*
X052052Y020101D01*
X052050Y020150D01*
X052050Y001650D02*
X052052Y001699D01*
X052058Y001747D01*
X052068Y001795D01*
X052082Y001842D01*
X052099Y001888D01*
X052120Y001932D01*
X052145Y001974D01*
X052173Y002014D01*
X052205Y002052D01*
X052239Y002087D01*
X052276Y002119D01*
X052315Y002148D01*
X052357Y002174D01*
X052401Y002196D01*
X052446Y002214D01*
X052493Y002229D01*
X052540Y002240D01*
X052589Y002247D01*
X052638Y002250D01*
X052687Y002249D01*
X052735Y002244D01*
X052784Y002235D01*
X052831Y002222D01*
X052877Y002205D01*
X052921Y002185D01*
X052964Y002161D01*
X053005Y002134D01*
X053043Y002103D01*
X053079Y002070D01*
X053111Y002034D01*
X053141Y001995D01*
X053168Y001954D01*
X053191Y001910D01*
X053210Y001865D01*
X053226Y001819D01*
X053238Y001772D01*
X053246Y001723D01*
X053250Y001674D01*
X053250Y001626D01*
X053246Y001577D01*
X053238Y001528D01*
X053226Y001481D01*
X053210Y001435D01*
X053191Y001390D01*
X053168Y001346D01*
X053141Y001305D01*
X053111Y001266D01*
X053079Y001230D01*
X053043Y001197D01*
X053005Y001166D01*
X052964Y001139D01*
X052921Y001115D01*
X052877Y001095D01*
X052831Y001078D01*
X052784Y001065D01*
X052735Y001056D01*
X052687Y001051D01*
X052638Y001050D01*
X052589Y001053D01*
X052540Y001060D01*
X052493Y001071D01*
X052446Y001086D01*
X052401Y001104D01*
X052357Y001126D01*
X052315Y001152D01*
X052276Y001181D01*
X052239Y001213D01*
X052205Y001248D01*
X052173Y001286D01*
X052145Y001326D01*
X052120Y001368D01*
X052099Y001412D01*
X052082Y001458D01*
X052068Y001505D01*
X052058Y001553D01*
X052052Y001601D01*
X052050Y001650D01*
X001050Y020150D02*
X001052Y020199D01*
X001058Y020247D01*
X001068Y020295D01*
X001082Y020342D01*
X001099Y020388D01*
X001120Y020432D01*
X001145Y020474D01*
X001173Y020514D01*
X001205Y020552D01*
X001239Y020587D01*
X001276Y020619D01*
X001315Y020648D01*
X001357Y020674D01*
X001401Y020696D01*
X001446Y020714D01*
X001493Y020729D01*
X001540Y020740D01*
X001589Y020747D01*
X001638Y020750D01*
X001687Y020749D01*
X001735Y020744D01*
X001784Y020735D01*
X001831Y020722D01*
X001877Y020705D01*
X001921Y020685D01*
X001964Y020661D01*
X002005Y020634D01*
X002043Y020603D01*
X002079Y020570D01*
X002111Y020534D01*
X002141Y020495D01*
X002168Y020454D01*
X002191Y020410D01*
X002210Y020365D01*
X002226Y020319D01*
X002238Y020272D01*
X002246Y020223D01*
X002250Y020174D01*
X002250Y020126D01*
X002246Y020077D01*
X002238Y020028D01*
X002226Y019981D01*
X002210Y019935D01*
X002191Y019890D01*
X002168Y019846D01*
X002141Y019805D01*
X002111Y019766D01*
X002079Y019730D01*
X002043Y019697D01*
X002005Y019666D01*
X001964Y019639D01*
X001921Y019615D01*
X001877Y019595D01*
X001831Y019578D01*
X001784Y019565D01*
X001735Y019556D01*
X001687Y019551D01*
X001638Y019550D01*
X001589Y019553D01*
X001540Y019560D01*
X001493Y019571D01*
X001446Y019586D01*
X001401Y019604D01*
X001357Y019626D01*
X001315Y019652D01*
X001276Y019681D01*
X001239Y019713D01*
X001205Y019748D01*
X001173Y019786D01*
X001145Y019826D01*
X001120Y019868D01*
X001099Y019912D01*
X001082Y019958D01*
X001068Y020005D01*
X001058Y020053D01*
X001052Y020101D01*
X001050Y020150D01*
M02*
