G75*
G70*
%OFA0B0*%
%FSLAX24Y24*%
%IPPOS*%
%LPD*%
%AMOC8*
5,1,8,0,0,1.08239X$1,22.5*
%
%ADD10C,0.0680*%
%ADD11C,0.1280*%
D10*
X011650Y007650D03*
X008700Y009350D03*
X011150Y010150D03*
X012150Y010150D03*
X014650Y009450D03*
X016700Y009350D03*
X019150Y010150D03*
X020150Y010150D03*
X022650Y009450D03*
X024700Y009350D03*
X027150Y010150D03*
X028150Y010150D03*
X028150Y011150D03*
X027150Y011150D03*
X027150Y012150D03*
X028150Y012150D03*
X030650Y012850D03*
X032650Y012850D03*
X035150Y012150D03*
X036150Y012150D03*
X036150Y011150D03*
X035150Y011150D03*
X035150Y010150D03*
X036150Y010150D03*
X038650Y009450D03*
X040700Y009350D03*
X043150Y010150D03*
X044150Y010150D03*
X046650Y009450D03*
X044150Y011150D03*
X043150Y011150D03*
X043150Y012150D03*
X044150Y012150D03*
X046650Y012850D03*
X043650Y014650D03*
X040650Y012850D03*
X038650Y012850D03*
X035650Y014650D03*
X027650Y014650D03*
X024650Y012850D03*
X022650Y012850D03*
X020150Y012150D03*
X019150Y012150D03*
X019150Y011150D03*
X020150Y011150D03*
X016650Y012850D03*
X014650Y012850D03*
X012150Y012150D03*
X011150Y012150D03*
X011150Y011150D03*
X012150Y011150D03*
X008650Y012850D03*
X011650Y014650D03*
X019650Y014650D03*
X030650Y009450D03*
X032700Y009350D03*
X035650Y007650D03*
X027650Y007650D03*
X019650Y007650D03*
X043650Y007650D03*
D11*
X001650Y001650D03*
X011650Y005150D03*
X019650Y005150D03*
X027650Y005150D03*
X035650Y005150D03*
X043650Y005150D03*
X052650Y001650D03*
X043650Y017150D03*
X035650Y017150D03*
X027650Y017150D03*
X019650Y017150D03*
X011650Y017150D03*
X001650Y020150D03*
X052650Y020150D03*
M02*
