%
M48
M72
T01C0.0200
T02C0.0866
%
T01
X5240Y4740
X6240Y4740
X6240Y5740
X5740Y6240
X5240Y5740
X5240Y6740
X4990Y7240
X6240Y6740
X6240Y12740
X6240Y13740
X5740Y14240
X5240Y13740
X5240Y12740
X5240Y14740
X4990Y15240
X6240Y14740
X6240Y20740
X5240Y20740
X5240Y21740
X5740Y22240
X5240Y22740
X4990Y23240
X6240Y22740
X6240Y21740
X12990Y23240
X13240Y22740
X13740Y22240
X13240Y21740
X14240Y21740
X14240Y22740
X14240Y20740
X13240Y20740
X12990Y15240
X13240Y14740
X13740Y14240
X13240Y13740
X13240Y12740
X14240Y12740
X14240Y13740
X14240Y14740
X20990Y15240
X21240Y14740
X21740Y14240
X22240Y13740
X22240Y12740
X21240Y12740
X21240Y13740
X22240Y14740
X22240Y20740
X22240Y21740
X21740Y22240
X22240Y22740
X21240Y22740
X20990Y23240
X21240Y21740
X21240Y20740
X28990Y23240
X29240Y22740
X29740Y22240
X29240Y21740
X30240Y21740
X30240Y22740
X30240Y20740
X29240Y20740
X28990Y15240
X29240Y14740
X29740Y14240
X29240Y13740
X29240Y12740
X30240Y12740
X30240Y13740
X30240Y14740
X36990Y15240
X37240Y14740
X37740Y14240
X37240Y13740
X37240Y12740
X38240Y12740
X38240Y13740
X38240Y14740
X38240Y20740
X37240Y20740
X37240Y21740
X37740Y22240
X37240Y22740
X36990Y23240
X38240Y22740
X38240Y21740
X38240Y28740
X38240Y29740
X37740Y30240
X37240Y29740
X37240Y28740
X37240Y30740
X36990Y31240
X38240Y30740
X38240Y36740
X38240Y37740
X37740Y38240
X37240Y37740
X37240Y36740
X37240Y38740
X36990Y39240
X38240Y38740
X30240Y38740
X29740Y38240
X29240Y37740
X29240Y36740
X30240Y36740
X30240Y37740
X29240Y38740
X28990Y39240
X22240Y38740
X21740Y38240
X22240Y37740
X22240Y36740
X21240Y36740
X21240Y37740
X21240Y38740
X20990Y39240
X14240Y38740
X13740Y38240
X13240Y37740
X13240Y36740
X14240Y36740
X14240Y37740
X13240Y38740
X12990Y39240
X6240Y38740
X5740Y38240
X5240Y37740
X5240Y36740
X6240Y36740
X6240Y37740
X5240Y38740
X4990Y39240
X4990Y31240
X5240Y30740
X5740Y30240
X5240Y29740
X5240Y28740
X6240Y28740
X6240Y29740
X6240Y30740
X12990Y31240
X13240Y30740
X13740Y30240
X13240Y29740
X13240Y28740
X14240Y28740
X14240Y29740
X14240Y30740
X20990Y31240
X21240Y30740
X21740Y30240
X22240Y29740
X22240Y28740
X21240Y28740
X21240Y29740
X22240Y30740
X28990Y31240
X29240Y30740
X29740Y30240
X29240Y29740
X29240Y28740
X30240Y28740
X30240Y29740
X30240Y30740
X28990Y7240
X29240Y6740
X29740Y6240
X29240Y5740
X30240Y5740
X30240Y6740
X30240Y4740
X29240Y4740
X22240Y4740
X22240Y5740
X21740Y6240
X22240Y6740
X21240Y6740
X20990Y7240
X21240Y5740
X21240Y4740
X14240Y4740
X13240Y4740
X13240Y5740
X13740Y6240
X13240Y6740
X12990Y7240
X14240Y6740
X14240Y5740
X36990Y7240
X37240Y6740
X37740Y6240
X37240Y5740
X38240Y5740
X38240Y6740
X38240Y4740
X37240Y4740
T02
X3182Y4263
X5739Y2786
X8298Y4264
X11182Y4263
X13739Y2786
X16298Y4264
X19182Y4263
X21739Y2786
X24298Y4264
X27182Y4263
X29739Y2786
X32298Y4264
X35182Y4263
X37739Y2786
X40298Y4264
X40297Y7218
X37740Y8690
X37739Y10786
X35182Y12263
X32298Y12264
X32297Y15218
X35182Y15217
X37740Y16690
X37739Y18786
X35182Y20263
X32298Y20264
X29739Y18786
X29740Y16690
X27182Y15217
X27182Y12263
X29739Y10786
X29740Y8690
X32297Y7218
X35182Y7217
X40298Y12264
X40297Y15218
X40298Y20264
X40297Y23218
X37740Y24690
X37739Y26786
X35182Y28263
X32298Y28264
X32297Y31218
X35182Y31217
X37740Y32690
X37739Y34786
X35182Y36263
X32298Y36264
X29739Y34786
X29740Y32690
X27182Y31217
X27182Y28263
X29739Y26786
X29740Y24690
X32297Y23218
X35182Y23217
X40298Y28264
X40297Y31218
X40298Y36264
X40297Y39218
X37740Y40690
X35182Y39217
X32297Y39218
X29740Y40690
X27182Y39217
X24297Y39218
X21740Y40690
X19182Y39217
X16297Y39218
X13740Y40690
X11182Y39217
X8297Y39218
X5740Y40690
X3182Y39217
X3182Y36263
X5739Y34786
X5740Y32690
X8297Y31218
X11182Y31217
X13740Y32690
X13739Y34786
X11182Y36263
X8298Y36264
X3182Y31217
X3182Y28263
X5739Y26786
X5740Y24690
X8297Y23218
X11182Y23217
X13740Y24690
X13739Y26786
X11182Y28263
X8298Y28264
X3182Y23217
X3182Y20263
X5739Y18786
X5740Y16690
X8297Y15218
X11182Y15217
X13740Y16690
X13739Y18786
X11182Y20263
X8298Y20264
X3182Y15217
X3182Y12263
X5739Y10786
X5740Y8690
X8297Y7218
X11182Y7217
X13740Y8690
X13739Y10786
X11182Y12263
X8298Y12264
X3182Y7217
X16297Y7218
X19182Y7217
X21740Y8690
X21739Y10786
X19182Y12263
X19182Y15217
X21740Y16690
X21739Y18786
X19182Y20263
X16298Y20264
X16297Y23218
X19182Y23217
X21740Y24690
X21739Y26786
X19182Y28263
X19182Y31217
X21740Y32690
X21739Y34786
X19182Y36263
X16298Y36264
X16297Y31218
X16298Y28264
X24298Y28264
X24297Y31218
X24298Y36264
X27182Y36263
X27182Y23217
X24297Y23218
X24298Y20264
X27182Y20263
X24297Y15218
X24298Y12264
X24297Y7218
X27182Y7217
X16298Y12264
X16297Y15218
M30
