%
M48
M72
T01C0.0200
T02C0.0400
T03C0.0440
T04C0.1180
T05C0.1200
T06C0.1260
%
T01
X11660Y5810
X11660Y8510
X19660Y5810
X27660Y5810
X35660Y5810
X43660Y5810
X31510Y19510
X23510Y19510
X14260Y20760
T02
X14160Y32160
X14160Y33160
X13160Y33160
X13160Y32160
X12160Y32160
X12160Y33160
X20160Y33160
X21160Y33160
X21160Y32160
X20160Y32160
X22160Y32160
X22160Y33160
X28160Y33160
X28160Y32160
X29160Y32160
X29160Y33160
X30160Y33160
X30160Y32160
X36160Y32160
X36160Y33160
X37160Y33160
X37160Y32160
X38160Y32160
X38160Y33160
X44160Y33160
X44160Y32160
X45160Y32160
X46160Y32160
X46160Y33160
X45160Y33160
T03
X43660Y21660
X46660Y19860
X44160Y19160
X43160Y19160
X43160Y18160
X43160Y17160
X44160Y17160
X44160Y18160
X46660Y16460
X43660Y14660
X40710Y16360
X38660Y16460
X36160Y17160
X36160Y18160
X35160Y18160
X35160Y17160
X32710Y16360
X30660Y16460
X28160Y17160
X27160Y17160
X27160Y18160
X28160Y18160
X28160Y19160
X27160Y19160
X24660Y19860
X22660Y19860
X20160Y19160
X19160Y19160
X19160Y18160
X19160Y17160
X20160Y17160
X20160Y18160
X22660Y16460
X24710Y16360
X27660Y14660
X30660Y19860
X32660Y19860
X35160Y19160
X36160Y19160
X38660Y19860
X40660Y19860
X35660Y21660
X27660Y21660
X19660Y21660
X16660Y19860
X14660Y19860
X12160Y19160
X11160Y19160
X11160Y18160
X11160Y17160
X12160Y17160
X12160Y18160
X14660Y16460
X16710Y16360
X19660Y14660
X11660Y14660
X8710Y16360
X8660Y19860
X11660Y21660
X35660Y14660
T04
X5150Y32579
X3679Y30947
T05
X1660Y1660
X1660Y8660
X15660Y13660
X23660Y22660
X31660Y13660
X39660Y22660
X52660Y27160
X52660Y32660
X52660Y8660
X52660Y1660
X1660Y27160
X1660Y32660
T06
X5160Y29696
M30
