G75*
G70*
%OFA0B0*%
%FSLAX24Y24*%
%IPPOS*%
%LPD*%
%AMOC8*
5,1,8,0,0,1.08239X$1,22.5*
%
%ADD10C,0.0100*%
%ADD11C,0.1660*%
%ADD12C,0.1620*%
%ADD13OC8,0.0740*%
%ADD14R,0.0472X0.0551*%
%ADD15C,0.0000*%
%ADD16C,0.0740*%
%ADD17C,0.0120*%
%ADD18C,0.0400*%
D10*
X001160Y000160D02*
X053160Y000160D01*
X053220Y000162D01*
X053281Y000167D01*
X053340Y000176D01*
X053399Y000189D01*
X053458Y000205D01*
X053515Y000225D01*
X053570Y000248D01*
X053625Y000275D01*
X053677Y000304D01*
X053728Y000337D01*
X053777Y000373D01*
X053823Y000411D01*
X053867Y000453D01*
X053909Y000497D01*
X053947Y000543D01*
X053983Y000592D01*
X054016Y000643D01*
X054045Y000695D01*
X054072Y000750D01*
X054095Y000805D01*
X054115Y000862D01*
X054131Y000921D01*
X054144Y000980D01*
X054153Y001039D01*
X054158Y001100D01*
X054160Y001160D01*
X054160Y033160D01*
X054158Y033220D01*
X054153Y033281D01*
X054144Y033340D01*
X054131Y033399D01*
X054115Y033458D01*
X054095Y033515D01*
X054072Y033570D01*
X054045Y033625D01*
X054016Y033677D01*
X053983Y033728D01*
X053947Y033777D01*
X053909Y033823D01*
X053867Y033867D01*
X053823Y033909D01*
X053777Y033947D01*
X053728Y033983D01*
X053677Y034016D01*
X053625Y034045D01*
X053570Y034072D01*
X053515Y034095D01*
X053458Y034115D01*
X053399Y034131D01*
X053340Y034144D01*
X053281Y034153D01*
X053220Y034158D01*
X053160Y034160D01*
X001160Y034160D01*
X001100Y034158D01*
X001039Y034153D01*
X000980Y034144D01*
X000921Y034131D01*
X000862Y034115D01*
X000805Y034095D01*
X000750Y034072D01*
X000695Y034045D01*
X000643Y034016D01*
X000592Y033983D01*
X000543Y033947D01*
X000497Y033909D01*
X000453Y033867D01*
X000411Y033823D01*
X000373Y033777D01*
X000337Y033728D01*
X000304Y033677D01*
X000275Y033625D01*
X000248Y033570D01*
X000225Y033515D01*
X000205Y033458D01*
X000189Y033399D01*
X000176Y033340D01*
X000167Y033281D01*
X000162Y033220D01*
X000160Y033160D01*
X000160Y001160D01*
X000162Y001100D01*
X000167Y001039D01*
X000176Y000980D01*
X000189Y000921D01*
X000205Y000862D01*
X000225Y000805D01*
X000248Y000750D01*
X000275Y000695D01*
X000304Y000643D01*
X000337Y000592D01*
X000373Y000543D01*
X000411Y000497D01*
X000453Y000453D01*
X000497Y000411D01*
X000543Y000373D01*
X000592Y000337D01*
X000643Y000304D01*
X000695Y000275D01*
X000750Y000248D01*
X000805Y000225D01*
X000862Y000205D01*
X000921Y000189D01*
X000980Y000176D01*
X001039Y000167D01*
X001100Y000162D01*
X001160Y000160D01*
D11*
X005160Y029696D03*
D12*
X003679Y030947D03*
X005150Y032579D03*
D13*
X012160Y032160D03*
X012160Y033160D03*
X013160Y033160D03*
X013160Y032160D03*
X014160Y032160D03*
X014160Y033160D03*
X020160Y033160D03*
X021160Y033160D03*
X021160Y032160D03*
X020160Y032160D03*
X022160Y032160D03*
X022160Y033160D03*
X028160Y033160D03*
X028160Y032160D03*
X029160Y032160D03*
X029160Y033160D03*
X030160Y033160D03*
X030160Y032160D03*
X036160Y032160D03*
X036160Y033160D03*
X037160Y033160D03*
X037160Y032160D03*
X038160Y032160D03*
X038160Y033160D03*
X044160Y033160D03*
X044160Y032160D03*
X045160Y032160D03*
X046160Y032160D03*
X046160Y033160D03*
X045160Y033160D03*
D14*
X044251Y004660D03*
X043069Y004660D03*
X036251Y004660D03*
X035069Y004660D03*
X028251Y004660D03*
X027069Y004660D03*
X020251Y004660D03*
X019069Y004660D03*
X012251Y004660D03*
X011069Y004660D03*
D15*
X001060Y001660D02*
X001062Y001709D01*
X001068Y001757D01*
X001078Y001805D01*
X001092Y001852D01*
X001109Y001898D01*
X001130Y001942D01*
X001155Y001984D01*
X001183Y002024D01*
X001215Y002062D01*
X001249Y002097D01*
X001286Y002129D01*
X001325Y002158D01*
X001367Y002184D01*
X001411Y002206D01*
X001456Y002224D01*
X001503Y002239D01*
X001550Y002250D01*
X001599Y002257D01*
X001648Y002260D01*
X001697Y002259D01*
X001745Y002254D01*
X001794Y002245D01*
X001841Y002232D01*
X001887Y002215D01*
X001931Y002195D01*
X001974Y002171D01*
X002015Y002144D01*
X002053Y002113D01*
X002089Y002080D01*
X002121Y002044D01*
X002151Y002005D01*
X002178Y001964D01*
X002201Y001920D01*
X002220Y001875D01*
X002236Y001829D01*
X002248Y001782D01*
X002256Y001733D01*
X002260Y001684D01*
X002260Y001636D01*
X002256Y001587D01*
X002248Y001538D01*
X002236Y001491D01*
X002220Y001445D01*
X002201Y001400D01*
X002178Y001356D01*
X002151Y001315D01*
X002121Y001276D01*
X002089Y001240D01*
X002053Y001207D01*
X002015Y001176D01*
X001974Y001149D01*
X001931Y001125D01*
X001887Y001105D01*
X001841Y001088D01*
X001794Y001075D01*
X001745Y001066D01*
X001697Y001061D01*
X001648Y001060D01*
X001599Y001063D01*
X001550Y001070D01*
X001503Y001081D01*
X001456Y001096D01*
X001411Y001114D01*
X001367Y001136D01*
X001325Y001162D01*
X001286Y001191D01*
X001249Y001223D01*
X001215Y001258D01*
X001183Y001296D01*
X001155Y001336D01*
X001130Y001378D01*
X001109Y001422D01*
X001092Y001468D01*
X001078Y001515D01*
X001068Y001563D01*
X001062Y001611D01*
X001060Y001660D01*
X001060Y008660D02*
X001062Y008709D01*
X001068Y008757D01*
X001078Y008805D01*
X001092Y008852D01*
X001109Y008898D01*
X001130Y008942D01*
X001155Y008984D01*
X001183Y009024D01*
X001215Y009062D01*
X001249Y009097D01*
X001286Y009129D01*
X001325Y009158D01*
X001367Y009184D01*
X001411Y009206D01*
X001456Y009224D01*
X001503Y009239D01*
X001550Y009250D01*
X001599Y009257D01*
X001648Y009260D01*
X001697Y009259D01*
X001745Y009254D01*
X001794Y009245D01*
X001841Y009232D01*
X001887Y009215D01*
X001931Y009195D01*
X001974Y009171D01*
X002015Y009144D01*
X002053Y009113D01*
X002089Y009080D01*
X002121Y009044D01*
X002151Y009005D01*
X002178Y008964D01*
X002201Y008920D01*
X002220Y008875D01*
X002236Y008829D01*
X002248Y008782D01*
X002256Y008733D01*
X002260Y008684D01*
X002260Y008636D01*
X002256Y008587D01*
X002248Y008538D01*
X002236Y008491D01*
X002220Y008445D01*
X002201Y008400D01*
X002178Y008356D01*
X002151Y008315D01*
X002121Y008276D01*
X002089Y008240D01*
X002053Y008207D01*
X002015Y008176D01*
X001974Y008149D01*
X001931Y008125D01*
X001887Y008105D01*
X001841Y008088D01*
X001794Y008075D01*
X001745Y008066D01*
X001697Y008061D01*
X001648Y008060D01*
X001599Y008063D01*
X001550Y008070D01*
X001503Y008081D01*
X001456Y008096D01*
X001411Y008114D01*
X001367Y008136D01*
X001325Y008162D01*
X001286Y008191D01*
X001249Y008223D01*
X001215Y008258D01*
X001183Y008296D01*
X001155Y008336D01*
X001130Y008378D01*
X001109Y008422D01*
X001092Y008468D01*
X001078Y008515D01*
X001068Y008563D01*
X001062Y008611D01*
X001060Y008660D01*
X015060Y013660D02*
X015062Y013709D01*
X015068Y013757D01*
X015078Y013805D01*
X015092Y013852D01*
X015109Y013898D01*
X015130Y013942D01*
X015155Y013984D01*
X015183Y014024D01*
X015215Y014062D01*
X015249Y014097D01*
X015286Y014129D01*
X015325Y014158D01*
X015367Y014184D01*
X015411Y014206D01*
X015456Y014224D01*
X015503Y014239D01*
X015550Y014250D01*
X015599Y014257D01*
X015648Y014260D01*
X015697Y014259D01*
X015745Y014254D01*
X015794Y014245D01*
X015841Y014232D01*
X015887Y014215D01*
X015931Y014195D01*
X015974Y014171D01*
X016015Y014144D01*
X016053Y014113D01*
X016089Y014080D01*
X016121Y014044D01*
X016151Y014005D01*
X016178Y013964D01*
X016201Y013920D01*
X016220Y013875D01*
X016236Y013829D01*
X016248Y013782D01*
X016256Y013733D01*
X016260Y013684D01*
X016260Y013636D01*
X016256Y013587D01*
X016248Y013538D01*
X016236Y013491D01*
X016220Y013445D01*
X016201Y013400D01*
X016178Y013356D01*
X016151Y013315D01*
X016121Y013276D01*
X016089Y013240D01*
X016053Y013207D01*
X016015Y013176D01*
X015974Y013149D01*
X015931Y013125D01*
X015887Y013105D01*
X015841Y013088D01*
X015794Y013075D01*
X015745Y013066D01*
X015697Y013061D01*
X015648Y013060D01*
X015599Y013063D01*
X015550Y013070D01*
X015503Y013081D01*
X015456Y013096D01*
X015411Y013114D01*
X015367Y013136D01*
X015325Y013162D01*
X015286Y013191D01*
X015249Y013223D01*
X015215Y013258D01*
X015183Y013296D01*
X015155Y013336D01*
X015130Y013378D01*
X015109Y013422D01*
X015092Y013468D01*
X015078Y013515D01*
X015068Y013563D01*
X015062Y013611D01*
X015060Y013660D01*
X023060Y022660D02*
X023062Y022709D01*
X023068Y022757D01*
X023078Y022805D01*
X023092Y022852D01*
X023109Y022898D01*
X023130Y022942D01*
X023155Y022984D01*
X023183Y023024D01*
X023215Y023062D01*
X023249Y023097D01*
X023286Y023129D01*
X023325Y023158D01*
X023367Y023184D01*
X023411Y023206D01*
X023456Y023224D01*
X023503Y023239D01*
X023550Y023250D01*
X023599Y023257D01*
X023648Y023260D01*
X023697Y023259D01*
X023745Y023254D01*
X023794Y023245D01*
X023841Y023232D01*
X023887Y023215D01*
X023931Y023195D01*
X023974Y023171D01*
X024015Y023144D01*
X024053Y023113D01*
X024089Y023080D01*
X024121Y023044D01*
X024151Y023005D01*
X024178Y022964D01*
X024201Y022920D01*
X024220Y022875D01*
X024236Y022829D01*
X024248Y022782D01*
X024256Y022733D01*
X024260Y022684D01*
X024260Y022636D01*
X024256Y022587D01*
X024248Y022538D01*
X024236Y022491D01*
X024220Y022445D01*
X024201Y022400D01*
X024178Y022356D01*
X024151Y022315D01*
X024121Y022276D01*
X024089Y022240D01*
X024053Y022207D01*
X024015Y022176D01*
X023974Y022149D01*
X023931Y022125D01*
X023887Y022105D01*
X023841Y022088D01*
X023794Y022075D01*
X023745Y022066D01*
X023697Y022061D01*
X023648Y022060D01*
X023599Y022063D01*
X023550Y022070D01*
X023503Y022081D01*
X023456Y022096D01*
X023411Y022114D01*
X023367Y022136D01*
X023325Y022162D01*
X023286Y022191D01*
X023249Y022223D01*
X023215Y022258D01*
X023183Y022296D01*
X023155Y022336D01*
X023130Y022378D01*
X023109Y022422D01*
X023092Y022468D01*
X023078Y022515D01*
X023068Y022563D01*
X023062Y022611D01*
X023060Y022660D01*
X031060Y013660D02*
X031062Y013709D01*
X031068Y013757D01*
X031078Y013805D01*
X031092Y013852D01*
X031109Y013898D01*
X031130Y013942D01*
X031155Y013984D01*
X031183Y014024D01*
X031215Y014062D01*
X031249Y014097D01*
X031286Y014129D01*
X031325Y014158D01*
X031367Y014184D01*
X031411Y014206D01*
X031456Y014224D01*
X031503Y014239D01*
X031550Y014250D01*
X031599Y014257D01*
X031648Y014260D01*
X031697Y014259D01*
X031745Y014254D01*
X031794Y014245D01*
X031841Y014232D01*
X031887Y014215D01*
X031931Y014195D01*
X031974Y014171D01*
X032015Y014144D01*
X032053Y014113D01*
X032089Y014080D01*
X032121Y014044D01*
X032151Y014005D01*
X032178Y013964D01*
X032201Y013920D01*
X032220Y013875D01*
X032236Y013829D01*
X032248Y013782D01*
X032256Y013733D01*
X032260Y013684D01*
X032260Y013636D01*
X032256Y013587D01*
X032248Y013538D01*
X032236Y013491D01*
X032220Y013445D01*
X032201Y013400D01*
X032178Y013356D01*
X032151Y013315D01*
X032121Y013276D01*
X032089Y013240D01*
X032053Y013207D01*
X032015Y013176D01*
X031974Y013149D01*
X031931Y013125D01*
X031887Y013105D01*
X031841Y013088D01*
X031794Y013075D01*
X031745Y013066D01*
X031697Y013061D01*
X031648Y013060D01*
X031599Y013063D01*
X031550Y013070D01*
X031503Y013081D01*
X031456Y013096D01*
X031411Y013114D01*
X031367Y013136D01*
X031325Y013162D01*
X031286Y013191D01*
X031249Y013223D01*
X031215Y013258D01*
X031183Y013296D01*
X031155Y013336D01*
X031130Y013378D01*
X031109Y013422D01*
X031092Y013468D01*
X031078Y013515D01*
X031068Y013563D01*
X031062Y013611D01*
X031060Y013660D01*
X039060Y022660D02*
X039062Y022709D01*
X039068Y022757D01*
X039078Y022805D01*
X039092Y022852D01*
X039109Y022898D01*
X039130Y022942D01*
X039155Y022984D01*
X039183Y023024D01*
X039215Y023062D01*
X039249Y023097D01*
X039286Y023129D01*
X039325Y023158D01*
X039367Y023184D01*
X039411Y023206D01*
X039456Y023224D01*
X039503Y023239D01*
X039550Y023250D01*
X039599Y023257D01*
X039648Y023260D01*
X039697Y023259D01*
X039745Y023254D01*
X039794Y023245D01*
X039841Y023232D01*
X039887Y023215D01*
X039931Y023195D01*
X039974Y023171D01*
X040015Y023144D01*
X040053Y023113D01*
X040089Y023080D01*
X040121Y023044D01*
X040151Y023005D01*
X040178Y022964D01*
X040201Y022920D01*
X040220Y022875D01*
X040236Y022829D01*
X040248Y022782D01*
X040256Y022733D01*
X040260Y022684D01*
X040260Y022636D01*
X040256Y022587D01*
X040248Y022538D01*
X040236Y022491D01*
X040220Y022445D01*
X040201Y022400D01*
X040178Y022356D01*
X040151Y022315D01*
X040121Y022276D01*
X040089Y022240D01*
X040053Y022207D01*
X040015Y022176D01*
X039974Y022149D01*
X039931Y022125D01*
X039887Y022105D01*
X039841Y022088D01*
X039794Y022075D01*
X039745Y022066D01*
X039697Y022061D01*
X039648Y022060D01*
X039599Y022063D01*
X039550Y022070D01*
X039503Y022081D01*
X039456Y022096D01*
X039411Y022114D01*
X039367Y022136D01*
X039325Y022162D01*
X039286Y022191D01*
X039249Y022223D01*
X039215Y022258D01*
X039183Y022296D01*
X039155Y022336D01*
X039130Y022378D01*
X039109Y022422D01*
X039092Y022468D01*
X039078Y022515D01*
X039068Y022563D01*
X039062Y022611D01*
X039060Y022660D01*
X052060Y027160D02*
X052062Y027209D01*
X052068Y027257D01*
X052078Y027305D01*
X052092Y027352D01*
X052109Y027398D01*
X052130Y027442D01*
X052155Y027484D01*
X052183Y027524D01*
X052215Y027562D01*
X052249Y027597D01*
X052286Y027629D01*
X052325Y027658D01*
X052367Y027684D01*
X052411Y027706D01*
X052456Y027724D01*
X052503Y027739D01*
X052550Y027750D01*
X052599Y027757D01*
X052648Y027760D01*
X052697Y027759D01*
X052745Y027754D01*
X052794Y027745D01*
X052841Y027732D01*
X052887Y027715D01*
X052931Y027695D01*
X052974Y027671D01*
X053015Y027644D01*
X053053Y027613D01*
X053089Y027580D01*
X053121Y027544D01*
X053151Y027505D01*
X053178Y027464D01*
X053201Y027420D01*
X053220Y027375D01*
X053236Y027329D01*
X053248Y027282D01*
X053256Y027233D01*
X053260Y027184D01*
X053260Y027136D01*
X053256Y027087D01*
X053248Y027038D01*
X053236Y026991D01*
X053220Y026945D01*
X053201Y026900D01*
X053178Y026856D01*
X053151Y026815D01*
X053121Y026776D01*
X053089Y026740D01*
X053053Y026707D01*
X053015Y026676D01*
X052974Y026649D01*
X052931Y026625D01*
X052887Y026605D01*
X052841Y026588D01*
X052794Y026575D01*
X052745Y026566D01*
X052697Y026561D01*
X052648Y026560D01*
X052599Y026563D01*
X052550Y026570D01*
X052503Y026581D01*
X052456Y026596D01*
X052411Y026614D01*
X052367Y026636D01*
X052325Y026662D01*
X052286Y026691D01*
X052249Y026723D01*
X052215Y026758D01*
X052183Y026796D01*
X052155Y026836D01*
X052130Y026878D01*
X052109Y026922D01*
X052092Y026968D01*
X052078Y027015D01*
X052068Y027063D01*
X052062Y027111D01*
X052060Y027160D01*
X052060Y032660D02*
X052062Y032709D01*
X052068Y032757D01*
X052078Y032805D01*
X052092Y032852D01*
X052109Y032898D01*
X052130Y032942D01*
X052155Y032984D01*
X052183Y033024D01*
X052215Y033062D01*
X052249Y033097D01*
X052286Y033129D01*
X052325Y033158D01*
X052367Y033184D01*
X052411Y033206D01*
X052456Y033224D01*
X052503Y033239D01*
X052550Y033250D01*
X052599Y033257D01*
X052648Y033260D01*
X052697Y033259D01*
X052745Y033254D01*
X052794Y033245D01*
X052841Y033232D01*
X052887Y033215D01*
X052931Y033195D01*
X052974Y033171D01*
X053015Y033144D01*
X053053Y033113D01*
X053089Y033080D01*
X053121Y033044D01*
X053151Y033005D01*
X053178Y032964D01*
X053201Y032920D01*
X053220Y032875D01*
X053236Y032829D01*
X053248Y032782D01*
X053256Y032733D01*
X053260Y032684D01*
X053260Y032636D01*
X053256Y032587D01*
X053248Y032538D01*
X053236Y032491D01*
X053220Y032445D01*
X053201Y032400D01*
X053178Y032356D01*
X053151Y032315D01*
X053121Y032276D01*
X053089Y032240D01*
X053053Y032207D01*
X053015Y032176D01*
X052974Y032149D01*
X052931Y032125D01*
X052887Y032105D01*
X052841Y032088D01*
X052794Y032075D01*
X052745Y032066D01*
X052697Y032061D01*
X052648Y032060D01*
X052599Y032063D01*
X052550Y032070D01*
X052503Y032081D01*
X052456Y032096D01*
X052411Y032114D01*
X052367Y032136D01*
X052325Y032162D01*
X052286Y032191D01*
X052249Y032223D01*
X052215Y032258D01*
X052183Y032296D01*
X052155Y032336D01*
X052130Y032378D01*
X052109Y032422D01*
X052092Y032468D01*
X052078Y032515D01*
X052068Y032563D01*
X052062Y032611D01*
X052060Y032660D01*
X052060Y008660D02*
X052062Y008709D01*
X052068Y008757D01*
X052078Y008805D01*
X052092Y008852D01*
X052109Y008898D01*
X052130Y008942D01*
X052155Y008984D01*
X052183Y009024D01*
X052215Y009062D01*
X052249Y009097D01*
X052286Y009129D01*
X052325Y009158D01*
X052367Y009184D01*
X052411Y009206D01*
X052456Y009224D01*
X052503Y009239D01*
X052550Y009250D01*
X052599Y009257D01*
X052648Y009260D01*
X052697Y009259D01*
X052745Y009254D01*
X052794Y009245D01*
X052841Y009232D01*
X052887Y009215D01*
X052931Y009195D01*
X052974Y009171D01*
X053015Y009144D01*
X053053Y009113D01*
X053089Y009080D01*
X053121Y009044D01*
X053151Y009005D01*
X053178Y008964D01*
X053201Y008920D01*
X053220Y008875D01*
X053236Y008829D01*
X053248Y008782D01*
X053256Y008733D01*
X053260Y008684D01*
X053260Y008636D01*
X053256Y008587D01*
X053248Y008538D01*
X053236Y008491D01*
X053220Y008445D01*
X053201Y008400D01*
X053178Y008356D01*
X053151Y008315D01*
X053121Y008276D01*
X053089Y008240D01*
X053053Y008207D01*
X053015Y008176D01*
X052974Y008149D01*
X052931Y008125D01*
X052887Y008105D01*
X052841Y008088D01*
X052794Y008075D01*
X052745Y008066D01*
X052697Y008061D01*
X052648Y008060D01*
X052599Y008063D01*
X052550Y008070D01*
X052503Y008081D01*
X052456Y008096D01*
X052411Y008114D01*
X052367Y008136D01*
X052325Y008162D01*
X052286Y008191D01*
X052249Y008223D01*
X052215Y008258D01*
X052183Y008296D01*
X052155Y008336D01*
X052130Y008378D01*
X052109Y008422D01*
X052092Y008468D01*
X052078Y008515D01*
X052068Y008563D01*
X052062Y008611D01*
X052060Y008660D01*
X052060Y001660D02*
X052062Y001709D01*
X052068Y001757D01*
X052078Y001805D01*
X052092Y001852D01*
X052109Y001898D01*
X052130Y001942D01*
X052155Y001984D01*
X052183Y002024D01*
X052215Y002062D01*
X052249Y002097D01*
X052286Y002129D01*
X052325Y002158D01*
X052367Y002184D01*
X052411Y002206D01*
X052456Y002224D01*
X052503Y002239D01*
X052550Y002250D01*
X052599Y002257D01*
X052648Y002260D01*
X052697Y002259D01*
X052745Y002254D01*
X052794Y002245D01*
X052841Y002232D01*
X052887Y002215D01*
X052931Y002195D01*
X052974Y002171D01*
X053015Y002144D01*
X053053Y002113D01*
X053089Y002080D01*
X053121Y002044D01*
X053151Y002005D01*
X053178Y001964D01*
X053201Y001920D01*
X053220Y001875D01*
X053236Y001829D01*
X053248Y001782D01*
X053256Y001733D01*
X053260Y001684D01*
X053260Y001636D01*
X053256Y001587D01*
X053248Y001538D01*
X053236Y001491D01*
X053220Y001445D01*
X053201Y001400D01*
X053178Y001356D01*
X053151Y001315D01*
X053121Y001276D01*
X053089Y001240D01*
X053053Y001207D01*
X053015Y001176D01*
X052974Y001149D01*
X052931Y001125D01*
X052887Y001105D01*
X052841Y001088D01*
X052794Y001075D01*
X052745Y001066D01*
X052697Y001061D01*
X052648Y001060D01*
X052599Y001063D01*
X052550Y001070D01*
X052503Y001081D01*
X052456Y001096D01*
X052411Y001114D01*
X052367Y001136D01*
X052325Y001162D01*
X052286Y001191D01*
X052249Y001223D01*
X052215Y001258D01*
X052183Y001296D01*
X052155Y001336D01*
X052130Y001378D01*
X052109Y001422D01*
X052092Y001468D01*
X052078Y001515D01*
X052068Y001563D01*
X052062Y001611D01*
X052060Y001660D01*
X001060Y027160D02*
X001062Y027209D01*
X001068Y027257D01*
X001078Y027305D01*
X001092Y027352D01*
X001109Y027398D01*
X001130Y027442D01*
X001155Y027484D01*
X001183Y027524D01*
X001215Y027562D01*
X001249Y027597D01*
X001286Y027629D01*
X001325Y027658D01*
X001367Y027684D01*
X001411Y027706D01*
X001456Y027724D01*
X001503Y027739D01*
X001550Y027750D01*
X001599Y027757D01*
X001648Y027760D01*
X001697Y027759D01*
X001745Y027754D01*
X001794Y027745D01*
X001841Y027732D01*
X001887Y027715D01*
X001931Y027695D01*
X001974Y027671D01*
X002015Y027644D01*
X002053Y027613D01*
X002089Y027580D01*
X002121Y027544D01*
X002151Y027505D01*
X002178Y027464D01*
X002201Y027420D01*
X002220Y027375D01*
X002236Y027329D01*
X002248Y027282D01*
X002256Y027233D01*
X002260Y027184D01*
X002260Y027136D01*
X002256Y027087D01*
X002248Y027038D01*
X002236Y026991D01*
X002220Y026945D01*
X002201Y026900D01*
X002178Y026856D01*
X002151Y026815D01*
X002121Y026776D01*
X002089Y026740D01*
X002053Y026707D01*
X002015Y026676D01*
X001974Y026649D01*
X001931Y026625D01*
X001887Y026605D01*
X001841Y026588D01*
X001794Y026575D01*
X001745Y026566D01*
X001697Y026561D01*
X001648Y026560D01*
X001599Y026563D01*
X001550Y026570D01*
X001503Y026581D01*
X001456Y026596D01*
X001411Y026614D01*
X001367Y026636D01*
X001325Y026662D01*
X001286Y026691D01*
X001249Y026723D01*
X001215Y026758D01*
X001183Y026796D01*
X001155Y026836D01*
X001130Y026878D01*
X001109Y026922D01*
X001092Y026968D01*
X001078Y027015D01*
X001068Y027063D01*
X001062Y027111D01*
X001060Y027160D01*
X001060Y032660D02*
X001062Y032709D01*
X001068Y032757D01*
X001078Y032805D01*
X001092Y032852D01*
X001109Y032898D01*
X001130Y032942D01*
X001155Y032984D01*
X001183Y033024D01*
X001215Y033062D01*
X001249Y033097D01*
X001286Y033129D01*
X001325Y033158D01*
X001367Y033184D01*
X001411Y033206D01*
X001456Y033224D01*
X001503Y033239D01*
X001550Y033250D01*
X001599Y033257D01*
X001648Y033260D01*
X001697Y033259D01*
X001745Y033254D01*
X001794Y033245D01*
X001841Y033232D01*
X001887Y033215D01*
X001931Y033195D01*
X001974Y033171D01*
X002015Y033144D01*
X002053Y033113D01*
X002089Y033080D01*
X002121Y033044D01*
X002151Y033005D01*
X002178Y032964D01*
X002201Y032920D01*
X002220Y032875D01*
X002236Y032829D01*
X002248Y032782D01*
X002256Y032733D01*
X002260Y032684D01*
X002260Y032636D01*
X002256Y032587D01*
X002248Y032538D01*
X002236Y032491D01*
X002220Y032445D01*
X002201Y032400D01*
X002178Y032356D01*
X002151Y032315D01*
X002121Y032276D01*
X002089Y032240D01*
X002053Y032207D01*
X002015Y032176D01*
X001974Y032149D01*
X001931Y032125D01*
X001887Y032105D01*
X001841Y032088D01*
X001794Y032075D01*
X001745Y032066D01*
X001697Y032061D01*
X001648Y032060D01*
X001599Y032063D01*
X001550Y032070D01*
X001503Y032081D01*
X001456Y032096D01*
X001411Y032114D01*
X001367Y032136D01*
X001325Y032162D01*
X001286Y032191D01*
X001249Y032223D01*
X001215Y032258D01*
X001183Y032296D01*
X001155Y032336D01*
X001130Y032378D01*
X001109Y032422D01*
X001092Y032468D01*
X001078Y032515D01*
X001068Y032563D01*
X001062Y032611D01*
X001060Y032660D01*
D16*
X011290Y021660D02*
X012030Y021660D01*
X014660Y020230D02*
X014660Y019490D01*
X016290Y019860D02*
X017030Y019860D01*
X018420Y019160D02*
X019160Y019160D01*
X020160Y019160D02*
X020900Y019160D01*
X020900Y018160D02*
X020160Y018160D01*
X020160Y017160D02*
X020900Y017160D01*
X019160Y017160D02*
X018420Y017160D01*
X018420Y018160D02*
X019160Y018160D01*
X016710Y016730D02*
X016710Y015990D01*
X014660Y016090D02*
X014660Y016830D01*
X012900Y017160D02*
X012160Y017160D01*
X012160Y018160D02*
X012900Y018160D01*
X012900Y019160D02*
X012160Y019160D01*
X011160Y019160D02*
X010420Y019160D01*
X010420Y018160D02*
X011160Y018160D01*
X011160Y017160D02*
X010420Y017160D01*
X008710Y016730D02*
X008710Y015990D01*
X011290Y014660D02*
X012030Y014660D01*
X019290Y014660D02*
X020030Y014660D01*
X022660Y016090D02*
X022660Y016830D01*
X024710Y016730D02*
X024710Y015990D01*
X026420Y017160D02*
X027160Y017160D01*
X028160Y017160D02*
X028900Y017160D01*
X028900Y018160D02*
X028160Y018160D01*
X027160Y018160D02*
X026420Y018160D01*
X026420Y019160D02*
X027160Y019160D01*
X028160Y019160D02*
X028900Y019160D01*
X030660Y019490D02*
X030660Y020230D01*
X032290Y019860D02*
X033030Y019860D01*
X034420Y019160D02*
X035160Y019160D01*
X036160Y019160D02*
X036900Y019160D01*
X036900Y018160D02*
X036160Y018160D01*
X036160Y017160D02*
X036900Y017160D01*
X035160Y017160D02*
X034420Y017160D01*
X034420Y018160D02*
X035160Y018160D01*
X032710Y016730D02*
X032710Y015990D01*
X030660Y016090D02*
X030660Y016830D01*
X028030Y014660D02*
X027290Y014660D01*
X022660Y019490D02*
X022660Y020230D01*
X024290Y019860D02*
X025030Y019860D01*
X027290Y021660D02*
X028030Y021660D01*
X035290Y021660D02*
X036030Y021660D01*
X038660Y020230D02*
X038660Y019490D01*
X040290Y019860D02*
X041030Y019860D01*
X042420Y019160D02*
X043160Y019160D01*
X044160Y019160D02*
X044900Y019160D01*
X044900Y018160D02*
X044160Y018160D01*
X044160Y017160D02*
X044900Y017160D01*
X043160Y017160D02*
X042420Y017160D01*
X042420Y018160D02*
X043160Y018160D01*
X040710Y016730D02*
X040710Y015990D01*
X038660Y016090D02*
X038660Y016830D01*
X036030Y014660D02*
X035290Y014660D01*
X043290Y014660D02*
X044030Y014660D01*
X046660Y016090D02*
X046660Y016830D01*
X046660Y019490D02*
X046660Y020230D01*
X044030Y021660D02*
X043290Y021660D01*
X020030Y021660D02*
X019290Y021660D01*
X009030Y019860D02*
X008290Y019860D01*
D17*
X000501Y000824D02*
X000637Y000637D01*
X000824Y000501D01*
X001044Y000429D01*
X001160Y000420D01*
X053160Y000420D01*
X053276Y000429D01*
X053496Y000501D01*
X053683Y000637D01*
X053819Y000824D01*
X053891Y001044D01*
X053900Y001160D01*
X053900Y033160D01*
X053891Y033276D01*
X053819Y033496D01*
X053683Y033683D01*
X053496Y033819D01*
X053276Y033891D01*
X053160Y033900D01*
X046952Y033900D01*
X047739Y033113D01*
X047780Y033014D01*
X047780Y019056D01*
X047739Y018957D01*
X047663Y018881D01*
X046080Y017298D01*
X046080Y016756D01*
X046039Y016657D01*
X045963Y016581D01*
X044446Y015064D01*
X044522Y014989D01*
X044610Y014775D01*
X044610Y014545D01*
X044522Y014331D01*
X044359Y014168D01*
X044145Y014080D01*
X043175Y014080D01*
X042961Y014168D01*
X042798Y014331D01*
X042710Y014545D01*
X042710Y014775D01*
X042798Y014989D01*
X042961Y015152D01*
X043175Y015240D01*
X043858Y015240D01*
X045540Y016922D01*
X045540Y017308D01*
X045480Y017248D01*
X045480Y017045D01*
X045392Y016831D01*
X045229Y016668D01*
X045015Y016580D01*
X044045Y016580D01*
X043831Y016668D01*
X043668Y016831D01*
X043632Y016919D01*
X043613Y016882D01*
X043564Y016815D01*
X043505Y016756D01*
X043438Y016707D01*
X043363Y016669D01*
X043284Y016643D01*
X043210Y016631D01*
X043210Y017110D01*
X043110Y017110D01*
X043110Y016630D01*
X042378Y016630D01*
X042296Y016643D01*
X042217Y016669D01*
X042142Y016707D01*
X042075Y016756D01*
X042016Y016815D01*
X041967Y016882D01*
X041929Y016957D01*
X041903Y017036D01*
X041891Y017110D01*
X043110Y017110D01*
X043110Y017210D01*
X041891Y017210D01*
X041903Y017284D01*
X041929Y017363D01*
X041967Y017438D01*
X042016Y017505D01*
X042075Y017564D01*
X042142Y017613D01*
X042179Y017632D01*
X042091Y017668D01*
X041928Y017831D01*
X041840Y018045D01*
X041840Y018275D01*
X041928Y018489D01*
X042091Y018652D01*
X042111Y018660D01*
X042091Y018668D01*
X041928Y018831D01*
X041840Y019045D01*
X041840Y019058D01*
X041830Y019048D01*
X041830Y018956D01*
X041789Y018857D01*
X041713Y018781D01*
X041614Y018740D01*
X039722Y018740D01*
X038130Y017148D01*
X038130Y017106D01*
X038089Y017007D01*
X038013Y016931D01*
X037914Y016890D01*
X037416Y016890D01*
X037392Y016831D01*
X037229Y016668D01*
X037015Y016580D01*
X036045Y016580D01*
X035831Y016668D01*
X035668Y016831D01*
X035632Y016919D01*
X035613Y016882D01*
X035564Y016815D01*
X035505Y016756D01*
X035438Y016707D01*
X035363Y016669D01*
X035284Y016643D01*
X035210Y016631D01*
X035210Y017110D01*
X035110Y017110D01*
X035110Y016630D01*
X034378Y016630D01*
X034296Y016643D01*
X034217Y016669D01*
X034142Y016707D01*
X034075Y016756D01*
X034016Y016815D01*
X033967Y016882D01*
X033929Y016957D01*
X033903Y017036D01*
X033891Y017110D01*
X035110Y017110D01*
X035110Y017210D01*
X033891Y017210D01*
X033903Y017284D01*
X033929Y017363D01*
X033967Y017438D01*
X034016Y017505D01*
X034075Y017564D01*
X034142Y017613D01*
X034179Y017632D01*
X034091Y017668D01*
X033928Y017831D01*
X033840Y018045D01*
X033840Y018275D01*
X033928Y018489D01*
X034091Y018652D01*
X034111Y018660D01*
X034091Y018668D01*
X033928Y018831D01*
X033840Y019045D01*
X033840Y019275D01*
X033928Y019489D01*
X034091Y019652D01*
X034305Y019740D01*
X035275Y019740D01*
X035489Y019652D01*
X035652Y019489D01*
X035660Y019469D01*
X035668Y019489D01*
X035831Y019652D01*
X036045Y019740D01*
X037015Y019740D01*
X037229Y019652D01*
X037392Y019489D01*
X037480Y019275D01*
X037480Y019045D01*
X037392Y018831D01*
X037229Y018668D01*
X037209Y018660D01*
X037229Y018652D01*
X037392Y018489D01*
X037480Y018275D01*
X037480Y018045D01*
X037392Y017831D01*
X037229Y017668D01*
X037209Y017660D01*
X037229Y017652D01*
X037392Y017489D01*
X037416Y017430D01*
X037648Y017430D01*
X039381Y019163D01*
X039381Y019163D01*
X039457Y019239D01*
X039556Y019280D01*
X041317Y019280D01*
X041331Y019313D01*
X041640Y019622D01*
X041640Y028198D01*
X038258Y031580D01*
X037920Y031580D01*
X037660Y031840D01*
X037400Y031580D01*
X036920Y031580D01*
X036660Y031840D01*
X036400Y031580D01*
X035920Y031580D01*
X035580Y031920D01*
X035580Y032400D01*
X035840Y032660D01*
X035580Y032920D01*
X035580Y033400D01*
X035920Y033740D01*
X036400Y033740D01*
X036660Y033480D01*
X036920Y033740D01*
X037400Y033740D01*
X037695Y033445D01*
X037940Y033690D01*
X038120Y033690D01*
X038120Y033200D01*
X038200Y033200D01*
X038200Y033690D01*
X038380Y033690D01*
X038690Y033380D01*
X038690Y033200D01*
X038200Y033200D01*
X038200Y033120D01*
X038690Y033120D01*
X038690Y032940D01*
X038445Y032695D01*
X038740Y032400D01*
X038740Y031920D01*
X038711Y031891D01*
X042139Y028463D01*
X042140Y028460D01*
X042140Y031214D01*
X042181Y031313D01*
X043684Y032816D01*
X043580Y032920D01*
X043580Y033400D01*
X043920Y033740D01*
X044400Y033740D01*
X044660Y033480D01*
X044920Y033740D01*
X045090Y033740D01*
X045090Y033900D01*
X012652Y033900D01*
X012689Y033863D01*
X012724Y033778D01*
X012841Y033661D01*
X012920Y033740D01*
X013400Y033740D01*
X013695Y033445D01*
X013940Y033690D01*
X014120Y033690D01*
X014120Y033200D01*
X014200Y033200D01*
X014200Y033690D01*
X014380Y033690D01*
X014690Y033380D01*
X014690Y033200D01*
X014200Y033200D01*
X014200Y033120D01*
X014690Y033120D01*
X014690Y032940D01*
X014445Y032695D01*
X014740Y032400D01*
X014740Y031920D01*
X014400Y031580D01*
X014380Y031580D01*
X014380Y021154D01*
X014492Y021108D01*
X014608Y020992D01*
X014670Y020842D01*
X014670Y020810D01*
X014775Y020810D01*
X014989Y020722D01*
X015152Y020559D01*
X015240Y020345D01*
X015240Y019375D01*
X015152Y019161D01*
X014989Y018998D01*
X014775Y018910D01*
X014545Y018910D01*
X014331Y018998D01*
X014230Y019100D01*
X014230Y017422D01*
X014331Y017321D01*
X014331Y017322D01*
X014545Y017410D01*
X014775Y017410D01*
X014989Y017322D01*
X015152Y017159D01*
X015240Y016945D01*
X015240Y015975D01*
X015152Y015761D01*
X014989Y015598D01*
X014775Y015510D01*
X014545Y015510D01*
X014331Y015598D01*
X014168Y015761D01*
X014080Y015975D01*
X014080Y016808D01*
X014030Y016858D01*
X014030Y010556D01*
X013989Y010457D01*
X013913Y010381D01*
X012070Y008538D01*
X012070Y008428D01*
X012008Y008278D01*
X011892Y008162D01*
X011742Y008100D01*
X011578Y008100D01*
X011428Y008162D01*
X011312Y008278D01*
X011250Y008428D01*
X011250Y008592D01*
X011312Y008742D01*
X011428Y008858D01*
X011578Y008920D01*
X011688Y008920D01*
X013490Y010722D01*
X013490Y019398D01*
X011808Y021080D01*
X011175Y021080D01*
X010961Y021168D01*
X010798Y021331D01*
X010710Y021545D01*
X010710Y021775D01*
X010798Y021989D01*
X010961Y022152D01*
X011175Y022240D01*
X012145Y022240D01*
X012359Y022152D01*
X012522Y021989D01*
X012610Y021775D01*
X012610Y021545D01*
X012522Y021331D01*
X012421Y021231D01*
X012640Y021012D01*
X012640Y030998D01*
X012058Y031580D01*
X011920Y031580D01*
X011580Y031920D01*
X011580Y031948D01*
X010680Y031048D01*
X010680Y020022D01*
X010962Y019740D01*
X011275Y019740D01*
X011489Y019652D01*
X011652Y019489D01*
X011660Y019469D01*
X011668Y019489D01*
X011831Y019652D01*
X012045Y019740D01*
X013015Y019740D01*
X013229Y019652D01*
X013392Y019489D01*
X013480Y019275D01*
X013480Y019045D01*
X013392Y018831D01*
X013229Y018668D01*
X013209Y018660D01*
X013229Y018652D01*
X013392Y018489D01*
X013480Y018275D01*
X013480Y018045D01*
X013392Y017831D01*
X013229Y017668D01*
X013209Y017660D01*
X013229Y017652D01*
X013392Y017489D01*
X013480Y017275D01*
X013480Y017045D01*
X013392Y016831D01*
X013229Y016668D01*
X013015Y016580D01*
X012045Y016580D01*
X011831Y016668D01*
X011668Y016831D01*
X011632Y016919D01*
X011613Y016882D01*
X011564Y016815D01*
X011505Y016756D01*
X011438Y016707D01*
X011363Y016669D01*
X011284Y016643D01*
X011210Y016631D01*
X011210Y017110D01*
X011110Y017110D01*
X011110Y016630D01*
X010378Y016630D01*
X010296Y016643D01*
X010217Y016669D01*
X010142Y016707D01*
X010075Y016756D01*
X010016Y016815D01*
X009967Y016882D01*
X009929Y016957D01*
X009903Y017036D01*
X009891Y017110D01*
X011110Y017110D01*
X011110Y017210D01*
X009891Y017210D01*
X009903Y017284D01*
X009929Y017363D01*
X009967Y017438D01*
X010016Y017505D01*
X010075Y017564D01*
X010142Y017613D01*
X010179Y017632D01*
X010091Y017668D01*
X009928Y017831D01*
X009840Y018045D01*
X009840Y018275D01*
X009928Y018489D01*
X010091Y018652D01*
X010111Y018660D01*
X010091Y018668D01*
X009928Y018831D01*
X009840Y019045D01*
X009840Y019058D01*
X009830Y019048D01*
X009830Y016872D01*
X011462Y015240D01*
X012145Y015240D01*
X012359Y015152D01*
X012522Y014989D01*
X012610Y014775D01*
X012610Y014545D01*
X012522Y014331D01*
X012359Y014168D01*
X012145Y014080D01*
X011175Y014080D01*
X010961Y014168D01*
X010798Y014331D01*
X010710Y014545D01*
X010710Y014775D01*
X010798Y014989D01*
X010874Y015064D01*
X009407Y016531D01*
X009331Y016607D01*
X009290Y016706D01*
X009290Y019214D01*
X009331Y019313D01*
X009940Y019922D01*
X009940Y032014D01*
X009981Y032113D01*
X011731Y033863D01*
X011768Y033900D01*
X001160Y033900D01*
X001044Y033891D01*
X000824Y033819D01*
X000637Y033683D01*
X000501Y033496D01*
X000429Y033276D01*
X000420Y033160D01*
X000420Y001160D01*
X000429Y001044D01*
X000501Y000824D01*
X000485Y000871D02*
X001076Y000871D01*
X001162Y000798D02*
X000898Y001020D01*
X000898Y001020D01*
X000725Y001320D01*
X000725Y001320D01*
X000665Y001660D01*
X000665Y001660D01*
X000725Y002000D01*
X000725Y002000D01*
X000898Y002300D01*
X000898Y002300D01*
X001162Y002522D01*
X001162Y002522D01*
X001487Y002640D01*
X001833Y002640D01*
X002158Y002522D01*
X002158Y002522D01*
X002422Y002300D01*
X002422Y002300D01*
X002595Y002000D01*
X002595Y002000D01*
X002655Y001660D01*
X002655Y001660D01*
X002595Y001320D01*
X002595Y001320D01*
X002422Y001020D01*
X002422Y001020D01*
X002422Y001020D01*
X002158Y000798D01*
X002158Y000798D01*
X001833Y000680D01*
X001610Y000680D01*
X001487Y000680D01*
X001162Y000798D01*
X001162Y000798D01*
X001288Y000753D02*
X000553Y000753D01*
X000641Y000634D02*
X053679Y000634D01*
X053767Y000753D02*
X053032Y000753D01*
X053158Y000798D02*
X053158Y000798D01*
X053422Y001020D01*
X053422Y001020D01*
X053422Y001020D01*
X053595Y001320D01*
X053655Y001660D01*
X053595Y002000D01*
X053595Y002000D01*
X053422Y002300D01*
X053158Y002522D01*
X053158Y002522D01*
X052833Y002640D01*
X052487Y002640D01*
X052162Y002522D01*
X051898Y002300D01*
X051898Y002300D01*
X051725Y002000D01*
X051665Y001660D01*
X051725Y001320D01*
X051725Y001320D01*
X051898Y001020D01*
X052162Y000798D01*
X052162Y000798D01*
X052487Y000680D01*
X052710Y000680D01*
X052833Y000680D01*
X053158Y000798D01*
X053244Y000871D02*
X053835Y000871D01*
X053873Y000990D02*
X053386Y000990D01*
X053473Y001108D02*
X053896Y001108D01*
X053900Y001227D02*
X053541Y001227D01*
X053595Y001320D02*
X053595Y001320D01*
X053600Y001345D02*
X053900Y001345D01*
X053900Y001464D02*
X053620Y001464D01*
X053641Y001582D02*
X053900Y001582D01*
X053900Y001701D02*
X053648Y001701D01*
X053655Y001660D02*
X053655Y001660D01*
X053627Y001819D02*
X053900Y001819D01*
X053900Y001938D02*
X053606Y001938D01*
X053563Y002056D02*
X053900Y002056D01*
X053900Y002175D02*
X053495Y002175D01*
X053426Y002293D02*
X053900Y002293D01*
X053900Y002412D02*
X053289Y002412D01*
X053422Y002300D02*
X053422Y002300D01*
X053135Y002530D02*
X053900Y002530D01*
X053900Y002649D02*
X000420Y002649D01*
X000420Y002767D02*
X053900Y002767D01*
X053900Y002886D02*
X000420Y002886D01*
X000420Y003004D02*
X053900Y003004D01*
X053900Y003123D02*
X000420Y003123D01*
X000420Y003241D02*
X053900Y003241D01*
X053900Y003360D02*
X000420Y003360D01*
X000420Y003478D02*
X053900Y003478D01*
X053900Y003597D02*
X000420Y003597D01*
X000420Y003715D02*
X053900Y003715D01*
X053900Y003834D02*
X000420Y003834D01*
X000420Y003952D02*
X053900Y003952D01*
X053900Y004071D02*
X000420Y004071D01*
X000420Y004189D02*
X010732Y004189D01*
X010746Y004174D02*
X011393Y004174D01*
X011516Y004297D01*
X011516Y005023D01*
X011393Y005146D01*
X011380Y005146D01*
X011380Y005148D01*
X011632Y005400D01*
X011742Y005400D01*
X011892Y005462D01*
X012008Y005578D01*
X012070Y005728D01*
X012070Y005892D01*
X012008Y006042D01*
X011892Y006158D01*
X011742Y006220D01*
X011578Y006220D01*
X011428Y006158D01*
X011312Y006042D01*
X011250Y005892D01*
X011250Y005782D01*
X010957Y005489D01*
X010881Y005413D01*
X010840Y005314D01*
X010840Y005146D01*
X010746Y005146D01*
X010623Y005023D01*
X010623Y004297D01*
X010746Y004174D01*
X010623Y004308D02*
X000420Y004308D01*
X000420Y004426D02*
X010623Y004426D01*
X010623Y004545D02*
X000420Y004545D01*
X000420Y004663D02*
X010623Y004663D01*
X010623Y004782D02*
X000420Y004782D01*
X000420Y004900D02*
X010623Y004900D01*
X010623Y005019D02*
X000420Y005019D01*
X000420Y005137D02*
X010738Y005137D01*
X010840Y005256D02*
X000420Y005256D01*
X000420Y005374D02*
X010865Y005374D01*
X010957Y005489D02*
X010957Y005489D01*
X010961Y005493D02*
X000420Y005493D01*
X000420Y005611D02*
X011079Y005611D01*
X011198Y005730D02*
X000420Y005730D01*
X000420Y005848D02*
X011250Y005848D01*
X011281Y005967D02*
X000420Y005967D01*
X000420Y006085D02*
X011355Y006085D01*
X011539Y006204D02*
X000420Y006204D01*
X000420Y006322D02*
X053900Y006322D01*
X053900Y006204D02*
X043781Y006204D01*
X043742Y006220D02*
X043578Y006220D01*
X043428Y006158D01*
X043312Y006042D01*
X043250Y005892D01*
X043250Y005782D01*
X042957Y005489D01*
X042881Y005413D01*
X042840Y005314D01*
X042840Y005146D01*
X042746Y005146D01*
X042623Y005023D01*
X042623Y004297D01*
X042746Y004174D01*
X043393Y004174D01*
X043516Y004297D01*
X043516Y005023D01*
X043393Y005146D01*
X043380Y005146D01*
X043380Y005148D01*
X043632Y005400D01*
X043742Y005400D01*
X043892Y005462D01*
X044008Y005578D01*
X044070Y005728D01*
X044070Y005892D01*
X044008Y006042D01*
X043892Y006158D01*
X043742Y006220D01*
X043539Y006204D02*
X035781Y006204D01*
X035742Y006220D02*
X035578Y006220D01*
X035428Y006158D01*
X035312Y006042D01*
X035250Y005892D01*
X035250Y005782D01*
X034957Y005489D01*
X034881Y005413D01*
X034840Y005314D01*
X034840Y005146D01*
X034746Y005146D01*
X034623Y005023D01*
X034623Y004297D01*
X034746Y004174D01*
X035393Y004174D01*
X035516Y004297D01*
X035516Y005023D01*
X035393Y005146D01*
X035380Y005146D01*
X035380Y005148D01*
X035632Y005400D01*
X035742Y005400D01*
X035892Y005462D01*
X036008Y005578D01*
X036070Y005728D01*
X036070Y005892D01*
X036008Y006042D01*
X035892Y006158D01*
X035742Y006220D01*
X035539Y006204D02*
X027781Y006204D01*
X027742Y006220D02*
X027578Y006220D01*
X027428Y006158D01*
X027312Y006042D01*
X027250Y005892D01*
X027250Y005782D01*
X026957Y005489D01*
X026881Y005413D01*
X026840Y005314D01*
X026840Y005146D01*
X026746Y005146D01*
X026623Y005023D01*
X026623Y004297D01*
X026746Y004174D01*
X027393Y004174D01*
X027516Y004297D01*
X027516Y005023D01*
X027393Y005146D01*
X027380Y005146D01*
X027380Y005148D01*
X027632Y005400D01*
X027742Y005400D01*
X027892Y005462D01*
X028008Y005578D01*
X028070Y005728D01*
X028070Y005892D01*
X028008Y006042D01*
X027892Y006158D01*
X027742Y006220D01*
X027539Y006204D02*
X019781Y006204D01*
X019742Y006220D02*
X019578Y006220D01*
X019428Y006158D01*
X019312Y006042D01*
X019250Y005892D01*
X019250Y005782D01*
X018957Y005489D01*
X018881Y005413D01*
X018840Y005314D01*
X018840Y005146D01*
X018746Y005146D01*
X018623Y005023D01*
X018623Y004297D01*
X018746Y004174D01*
X019393Y004174D01*
X019516Y004297D01*
X019516Y005023D01*
X019393Y005146D01*
X019380Y005146D01*
X019380Y005148D01*
X019632Y005400D01*
X019742Y005400D01*
X019892Y005462D01*
X020008Y005578D01*
X020070Y005728D01*
X020070Y005892D01*
X020008Y006042D01*
X019892Y006158D01*
X019742Y006220D01*
X019539Y006204D02*
X011781Y006204D01*
X011965Y006085D02*
X019355Y006085D01*
X019281Y005967D02*
X012039Y005967D01*
X012070Y005848D02*
X019250Y005848D01*
X019198Y005730D02*
X012070Y005730D01*
X012021Y005611D02*
X019079Y005611D01*
X018961Y005493D02*
X011922Y005493D01*
X011606Y005374D02*
X018865Y005374D01*
X018840Y005256D02*
X011487Y005256D01*
X011401Y005137D02*
X018738Y005137D01*
X018623Y005019D02*
X012624Y005019D01*
X012615Y005034D02*
X012585Y005064D01*
X012549Y005085D01*
X012508Y005096D01*
X012309Y005096D01*
X012309Y004718D01*
X012647Y004718D01*
X012647Y004957D01*
X012636Y004997D01*
X012615Y005034D01*
X012647Y004900D02*
X018623Y004900D01*
X018623Y004782D02*
X012647Y004782D01*
X012647Y004602D02*
X012309Y004602D01*
X012309Y004718D01*
X012192Y004718D01*
X012192Y004602D01*
X011854Y004602D01*
X011854Y004363D01*
X011865Y004323D01*
X011886Y004286D01*
X011916Y004256D01*
X011953Y004235D01*
X011993Y004224D01*
X012192Y004224D01*
X012192Y004602D01*
X012309Y004602D01*
X012309Y004224D01*
X012508Y004224D01*
X012549Y004235D01*
X012585Y004256D01*
X012615Y004286D01*
X012636Y004323D01*
X012647Y004363D01*
X012647Y004602D01*
X012647Y004545D02*
X018623Y004545D01*
X018623Y004663D02*
X012309Y004663D01*
X012192Y004663D02*
X011516Y004663D01*
X011516Y004545D02*
X011854Y004545D01*
X011854Y004426D02*
X011516Y004426D01*
X011516Y004308D02*
X011874Y004308D01*
X012192Y004308D02*
X012309Y004308D01*
X012309Y004426D02*
X012192Y004426D01*
X012192Y004545D02*
X012309Y004545D01*
X012192Y004718D02*
X011854Y004718D01*
X011854Y004957D01*
X011865Y004997D01*
X011886Y005034D01*
X011916Y005064D01*
X011953Y005085D01*
X011993Y005096D01*
X012192Y005096D01*
X012192Y004718D01*
X012192Y004782D02*
X012309Y004782D01*
X012309Y004900D02*
X012192Y004900D01*
X012192Y005019D02*
X012309Y005019D01*
X011877Y005019D02*
X011516Y005019D01*
X011516Y004900D02*
X011854Y004900D01*
X011854Y004782D02*
X011516Y004782D01*
X011110Y004660D02*
X011110Y005260D01*
X011660Y005810D01*
X011110Y004660D02*
X011069Y004660D01*
X011407Y004189D02*
X018732Y004189D01*
X018623Y004308D02*
X012627Y004308D01*
X012647Y004426D02*
X018623Y004426D01*
X019069Y004660D02*
X019110Y004660D01*
X019110Y005260D01*
X019660Y005810D01*
X020039Y005967D02*
X027281Y005967D01*
X027250Y005848D02*
X020070Y005848D01*
X020070Y005730D02*
X027198Y005730D01*
X027079Y005611D02*
X020021Y005611D01*
X019922Y005493D02*
X026961Y005493D01*
X026865Y005374D02*
X019606Y005374D01*
X019487Y005256D02*
X026840Y005256D01*
X026738Y005137D02*
X019401Y005137D01*
X019516Y005019D02*
X019877Y005019D01*
X019886Y005034D02*
X019865Y004997D01*
X019854Y004957D01*
X019854Y004718D01*
X020192Y004718D01*
X020192Y004602D01*
X019854Y004602D01*
X019854Y004363D01*
X019865Y004323D01*
X019886Y004286D01*
X019916Y004256D01*
X019953Y004235D01*
X019993Y004224D01*
X020192Y004224D01*
X020192Y004602D01*
X020309Y004602D01*
X020309Y004718D01*
X020647Y004718D01*
X020647Y004957D01*
X020636Y004997D01*
X020615Y005034D01*
X020585Y005064D01*
X020549Y005085D01*
X020508Y005096D01*
X020309Y005096D01*
X020309Y004718D01*
X020192Y004718D01*
X020192Y005096D01*
X019993Y005096D01*
X019953Y005085D01*
X019916Y005064D01*
X019886Y005034D01*
X019854Y004900D02*
X019516Y004900D01*
X019516Y004782D02*
X019854Y004782D01*
X019854Y004545D02*
X019516Y004545D01*
X019516Y004663D02*
X020192Y004663D01*
X020309Y004663D02*
X026623Y004663D01*
X026623Y004545D02*
X020647Y004545D01*
X020647Y004602D02*
X020309Y004602D01*
X020309Y004224D01*
X020508Y004224D01*
X020549Y004235D01*
X020585Y004256D01*
X020615Y004286D01*
X020636Y004323D01*
X020647Y004363D01*
X020647Y004602D01*
X020647Y004426D02*
X026623Y004426D01*
X026623Y004308D02*
X020627Y004308D01*
X020309Y004308D02*
X020192Y004308D01*
X020192Y004426D02*
X020309Y004426D01*
X020309Y004545D02*
X020192Y004545D01*
X020192Y004782D02*
X020309Y004782D01*
X020309Y004900D02*
X020192Y004900D01*
X020192Y005019D02*
X020309Y005019D01*
X020624Y005019D02*
X026623Y005019D01*
X026623Y004900D02*
X020647Y004900D01*
X020647Y004782D02*
X026623Y004782D01*
X027069Y004660D02*
X027110Y004660D01*
X027110Y005260D01*
X027660Y005810D01*
X028039Y005967D02*
X035281Y005967D01*
X035250Y005848D02*
X028070Y005848D01*
X028070Y005730D02*
X035198Y005730D01*
X035079Y005611D02*
X028021Y005611D01*
X027922Y005493D02*
X034961Y005493D01*
X034957Y005489D02*
X034957Y005489D01*
X034865Y005374D02*
X027606Y005374D01*
X027487Y005256D02*
X034840Y005256D01*
X034738Y005137D02*
X027401Y005137D01*
X027516Y005019D02*
X027877Y005019D01*
X027886Y005034D02*
X027865Y004997D01*
X027854Y004957D01*
X027854Y004718D01*
X028192Y004718D01*
X028192Y004602D01*
X027854Y004602D01*
X027854Y004363D01*
X027865Y004323D01*
X027886Y004286D01*
X027916Y004256D01*
X027953Y004235D01*
X027993Y004224D01*
X028192Y004224D01*
X028192Y004602D01*
X028309Y004602D01*
X028309Y004718D01*
X028647Y004718D01*
X028647Y004957D01*
X028636Y004997D01*
X028615Y005034D01*
X028585Y005064D01*
X028549Y005085D01*
X028508Y005096D01*
X028309Y005096D01*
X028309Y004718D01*
X028192Y004718D01*
X028192Y005096D01*
X027993Y005096D01*
X027953Y005085D01*
X027916Y005064D01*
X027886Y005034D01*
X027854Y004900D02*
X027516Y004900D01*
X027516Y004782D02*
X027854Y004782D01*
X027854Y004545D02*
X027516Y004545D01*
X027516Y004663D02*
X028192Y004663D01*
X028309Y004663D02*
X034623Y004663D01*
X034623Y004545D02*
X028647Y004545D01*
X028647Y004602D02*
X028309Y004602D01*
X028309Y004224D01*
X028508Y004224D01*
X028549Y004235D01*
X028585Y004256D01*
X028615Y004286D01*
X028636Y004323D01*
X028647Y004363D01*
X028647Y004602D01*
X028647Y004426D02*
X034623Y004426D01*
X034623Y004308D02*
X028627Y004308D01*
X028309Y004308D02*
X028192Y004308D01*
X028192Y004426D02*
X028309Y004426D01*
X028309Y004545D02*
X028192Y004545D01*
X028192Y004782D02*
X028309Y004782D01*
X028309Y004900D02*
X028192Y004900D01*
X028192Y005019D02*
X028309Y005019D01*
X028624Y005019D02*
X034623Y005019D01*
X034623Y004900D02*
X028647Y004900D01*
X028647Y004782D02*
X034623Y004782D01*
X035069Y004660D02*
X035110Y004660D01*
X035110Y005260D01*
X035660Y005810D01*
X036039Y005967D02*
X043281Y005967D01*
X043250Y005848D02*
X036070Y005848D01*
X036070Y005730D02*
X043198Y005730D01*
X043079Y005611D02*
X036021Y005611D01*
X035922Y005493D02*
X042961Y005493D01*
X042865Y005374D02*
X035606Y005374D01*
X035487Y005256D02*
X042840Y005256D01*
X042738Y005137D02*
X035401Y005137D01*
X035516Y005019D02*
X035877Y005019D01*
X035886Y005034D02*
X035865Y004997D01*
X035854Y004957D01*
X035854Y004718D01*
X036192Y004718D01*
X036192Y004602D01*
X035854Y004602D01*
X035854Y004363D01*
X035865Y004323D01*
X035886Y004286D01*
X035916Y004256D01*
X035953Y004235D01*
X035993Y004224D01*
X036192Y004224D01*
X036192Y004602D01*
X036309Y004602D01*
X036309Y004718D01*
X036647Y004718D01*
X036647Y004957D01*
X036636Y004997D01*
X036615Y005034D01*
X036585Y005064D01*
X036549Y005085D01*
X036508Y005096D01*
X036309Y005096D01*
X036309Y004718D01*
X036192Y004718D01*
X036192Y005096D01*
X035993Y005096D01*
X035953Y005085D01*
X035916Y005064D01*
X035886Y005034D01*
X035854Y004900D02*
X035516Y004900D01*
X035516Y004782D02*
X035854Y004782D01*
X035854Y004545D02*
X035516Y004545D01*
X035516Y004663D02*
X036192Y004663D01*
X036309Y004663D02*
X042623Y004663D01*
X042623Y004545D02*
X036647Y004545D01*
X036647Y004602D02*
X036309Y004602D01*
X036309Y004224D01*
X036508Y004224D01*
X036549Y004235D01*
X036585Y004256D01*
X036615Y004286D01*
X036636Y004323D01*
X036647Y004363D01*
X036647Y004602D01*
X036647Y004426D02*
X042623Y004426D01*
X042623Y004308D02*
X036627Y004308D01*
X036309Y004308D02*
X036192Y004308D01*
X036192Y004426D02*
X036309Y004426D01*
X036309Y004545D02*
X036192Y004545D01*
X036192Y004782D02*
X036309Y004782D01*
X036309Y004900D02*
X036192Y004900D01*
X036192Y005019D02*
X036309Y005019D01*
X036624Y005019D02*
X042623Y005019D01*
X042623Y004900D02*
X036647Y004900D01*
X036647Y004782D02*
X042623Y004782D01*
X043069Y004660D02*
X043110Y004660D01*
X043110Y005260D01*
X043660Y005810D01*
X044039Y005967D02*
X053900Y005967D01*
X053900Y006085D02*
X043965Y006085D01*
X044070Y005848D02*
X053900Y005848D01*
X053900Y005730D02*
X044070Y005730D01*
X044021Y005611D02*
X053900Y005611D01*
X053900Y005493D02*
X043922Y005493D01*
X043606Y005374D02*
X053900Y005374D01*
X053900Y005256D02*
X043487Y005256D01*
X043401Y005137D02*
X053900Y005137D01*
X053900Y005019D02*
X044624Y005019D01*
X044615Y005034D02*
X044585Y005064D01*
X044549Y005085D01*
X044508Y005096D01*
X044309Y005096D01*
X044309Y004718D01*
X044647Y004718D01*
X044647Y004957D01*
X044636Y004997D01*
X044615Y005034D01*
X044647Y004900D02*
X053900Y004900D01*
X053900Y004782D02*
X044647Y004782D01*
X044647Y004602D02*
X044309Y004602D01*
X044309Y004718D01*
X044192Y004718D01*
X044192Y004602D01*
X043854Y004602D01*
X043854Y004363D01*
X043865Y004323D01*
X043886Y004286D01*
X043916Y004256D01*
X043953Y004235D01*
X043993Y004224D01*
X044192Y004224D01*
X044192Y004602D01*
X044309Y004602D01*
X044309Y004224D01*
X044508Y004224D01*
X044549Y004235D01*
X044585Y004256D01*
X044615Y004286D01*
X044636Y004323D01*
X044647Y004363D01*
X044647Y004602D01*
X044647Y004545D02*
X053900Y004545D01*
X053900Y004663D02*
X044309Y004663D01*
X044192Y004663D02*
X043516Y004663D01*
X043516Y004545D02*
X043854Y004545D01*
X043854Y004426D02*
X043516Y004426D01*
X043516Y004308D02*
X043874Y004308D01*
X044192Y004308D02*
X044309Y004308D01*
X044309Y004426D02*
X044192Y004426D01*
X044192Y004545D02*
X044309Y004545D01*
X044192Y004718D02*
X043854Y004718D01*
X043854Y004957D01*
X043865Y004997D01*
X043886Y005034D01*
X043916Y005064D01*
X043953Y005085D01*
X043993Y005096D01*
X044192Y005096D01*
X044192Y004718D01*
X044192Y004782D02*
X044309Y004782D01*
X044309Y004900D02*
X044192Y004900D01*
X044192Y005019D02*
X044309Y005019D01*
X043877Y005019D02*
X043516Y005019D01*
X043516Y004900D02*
X043854Y004900D01*
X043854Y004782D02*
X043516Y004782D01*
X043407Y004189D02*
X053900Y004189D01*
X053900Y004308D02*
X044627Y004308D01*
X044647Y004426D02*
X053900Y004426D01*
X052185Y002530D02*
X002135Y002530D01*
X002289Y002412D02*
X052031Y002412D01*
X052162Y002522D02*
X052162Y002522D01*
X051898Y002300D02*
X051898Y002300D01*
X051894Y002293D02*
X002426Y002293D01*
X002495Y002175D02*
X051825Y002175D01*
X051757Y002056D02*
X002563Y002056D01*
X002606Y001938D02*
X051714Y001938D01*
X051725Y002000D02*
X051725Y002000D01*
X051693Y001819D02*
X002627Y001819D01*
X002648Y001701D02*
X051672Y001701D01*
X051665Y001660D02*
X051665Y001660D01*
X051679Y001582D02*
X002641Y001582D01*
X002620Y001464D02*
X051700Y001464D01*
X051720Y001345D02*
X002600Y001345D01*
X002541Y001227D02*
X051779Y001227D01*
X051847Y001108D02*
X002473Y001108D01*
X002386Y000990D02*
X051934Y000990D01*
X051898Y001020D02*
X051898Y001020D01*
X052076Y000871D02*
X002244Y000871D01*
X002032Y000753D02*
X052288Y000753D01*
X052833Y000680D02*
X052833Y000680D01*
X053516Y000516D02*
X000804Y000516D01*
X000934Y000990D02*
X000447Y000990D01*
X000424Y001108D02*
X000847Y001108D01*
X000779Y001227D02*
X000420Y001227D01*
X000420Y001345D02*
X000720Y001345D01*
X000700Y001464D02*
X000420Y001464D01*
X000420Y001582D02*
X000679Y001582D01*
X000672Y001701D02*
X000420Y001701D01*
X000420Y001819D02*
X000693Y001819D01*
X000714Y001938D02*
X000420Y001938D01*
X000420Y002056D02*
X000757Y002056D01*
X000825Y002175D02*
X000420Y002175D01*
X000420Y002293D02*
X000894Y002293D01*
X000898Y002300D02*
X000898Y002300D01*
X001031Y002412D02*
X000420Y002412D01*
X000420Y002530D02*
X001185Y002530D01*
X000420Y006441D02*
X053900Y006441D01*
X053900Y006559D02*
X000420Y006559D01*
X000420Y006678D02*
X053900Y006678D01*
X053900Y006796D02*
X000420Y006796D01*
X000420Y006915D02*
X053900Y006915D01*
X053900Y007033D02*
X000420Y007033D01*
X000420Y007152D02*
X053900Y007152D01*
X053900Y007270D02*
X000420Y007270D01*
X000420Y007389D02*
X053900Y007389D01*
X053900Y007507D02*
X000420Y007507D01*
X000420Y007626D02*
X053900Y007626D01*
X053900Y007744D02*
X053009Y007744D01*
X053158Y007798D02*
X053158Y007798D01*
X053422Y008020D01*
X053422Y008020D01*
X053422Y008020D01*
X053595Y008320D01*
X053655Y008660D01*
X053595Y009000D01*
X053422Y009300D01*
X053158Y009522D01*
X052833Y009640D01*
X052487Y009640D01*
X052162Y009522D01*
X051898Y009300D01*
X051898Y009300D01*
X051725Y009000D01*
X051665Y008660D01*
X051725Y008320D01*
X051725Y008320D01*
X051898Y008020D01*
X052162Y007798D01*
X052162Y007798D01*
X052487Y007680D01*
X052610Y007680D01*
X052833Y007680D01*
X053158Y007798D01*
X053234Y007863D02*
X053900Y007863D01*
X053900Y007981D02*
X053375Y007981D01*
X053468Y008100D02*
X053900Y008100D01*
X053900Y008218D02*
X053536Y008218D01*
X053595Y008320D02*
X053595Y008320D01*
X053598Y008337D02*
X053900Y008337D01*
X053900Y008455D02*
X053619Y008455D01*
X053640Y008574D02*
X053900Y008574D01*
X053900Y008692D02*
X053649Y008692D01*
X053655Y008660D02*
X053655Y008660D01*
X053629Y008811D02*
X053900Y008811D01*
X053900Y008929D02*
X053608Y008929D01*
X053595Y009000D02*
X053595Y009000D01*
X053568Y009048D02*
X053900Y009048D01*
X053900Y009166D02*
X053499Y009166D01*
X053431Y009285D02*
X053900Y009285D01*
X053900Y009403D02*
X053299Y009403D01*
X053422Y009300D02*
X053422Y009300D01*
X053158Y009522D02*
X053900Y009522D01*
X053900Y009640D02*
X013172Y009640D01*
X013290Y009759D02*
X053900Y009759D01*
X053900Y009877D02*
X013409Y009877D01*
X013527Y009996D02*
X053900Y009996D01*
X053900Y010114D02*
X013646Y010114D01*
X013764Y010233D02*
X053900Y010233D01*
X053900Y010351D02*
X013883Y010351D01*
X013994Y010470D02*
X053900Y010470D01*
X053900Y010588D02*
X014030Y010588D01*
X014030Y010707D02*
X053900Y010707D01*
X053900Y010825D02*
X014030Y010825D01*
X014030Y010944D02*
X053900Y010944D01*
X053900Y011062D02*
X014030Y011062D01*
X014030Y011181D02*
X053900Y011181D01*
X053900Y011299D02*
X014030Y011299D01*
X014030Y011418D02*
X053900Y011418D01*
X053900Y011536D02*
X014030Y011536D01*
X014030Y011655D02*
X053900Y011655D01*
X053900Y011773D02*
X014030Y011773D01*
X014030Y011892D02*
X053900Y011892D01*
X053900Y012010D02*
X014030Y012010D01*
X014030Y012129D02*
X053900Y012129D01*
X053900Y012247D02*
X014030Y012247D01*
X014030Y012366D02*
X053900Y012366D01*
X053900Y012484D02*
X014030Y012484D01*
X014030Y012603D02*
X053900Y012603D01*
X053900Y012721D02*
X031946Y012721D01*
X031833Y012680D02*
X032158Y012798D01*
X032422Y013020D01*
X032422Y013020D01*
X032422Y013020D01*
X032595Y013320D01*
X032655Y013660D01*
X032595Y014000D01*
X032422Y014300D01*
X032158Y014522D01*
X031833Y014640D01*
X031487Y014640D01*
X031162Y014522D01*
X030898Y014300D01*
X030898Y014300D01*
X030725Y014000D01*
X030665Y013660D01*
X030725Y013320D01*
X030725Y013320D01*
X030898Y013020D01*
X031162Y012798D01*
X031162Y012798D01*
X031487Y012680D01*
X031610Y012680D01*
X031833Y012680D01*
X032158Y012798D02*
X032158Y012798D01*
X032207Y012840D02*
X053900Y012840D01*
X053900Y012958D02*
X032348Y012958D01*
X032455Y013077D02*
X053900Y013077D01*
X053900Y013195D02*
X032523Y013195D01*
X032592Y013314D02*
X053900Y013314D01*
X053900Y013432D02*
X032615Y013432D01*
X032595Y013320D02*
X032595Y013320D01*
X032636Y013551D02*
X053900Y013551D01*
X053900Y013669D02*
X032654Y013669D01*
X032655Y013660D02*
X032655Y013660D01*
X032633Y013788D02*
X053900Y013788D01*
X053900Y013906D02*
X032612Y013906D01*
X032595Y014000D02*
X032595Y014000D01*
X032581Y014025D02*
X053900Y014025D01*
X053900Y014143D02*
X044298Y014143D01*
X044452Y014262D02*
X053900Y014262D01*
X053900Y014380D02*
X044542Y014380D01*
X044591Y014499D02*
X053900Y014499D01*
X053900Y014617D02*
X044610Y014617D01*
X044610Y014736D02*
X053900Y014736D01*
X053900Y014854D02*
X044577Y014854D01*
X044528Y014973D02*
X053900Y014973D01*
X053900Y015091D02*
X044473Y015091D01*
X044591Y015210D02*
X053900Y015210D01*
X053900Y015328D02*
X044710Y015328D01*
X044828Y015447D02*
X053900Y015447D01*
X053900Y015565D02*
X046908Y015565D01*
X046989Y015598D02*
X047152Y015761D01*
X047240Y015975D01*
X047240Y016945D01*
X047152Y017159D01*
X046989Y017322D01*
X046775Y017410D01*
X046545Y017410D01*
X046331Y017322D01*
X046168Y017159D01*
X046080Y016945D01*
X046080Y015975D01*
X046168Y015761D01*
X046331Y015598D01*
X046545Y015510D01*
X046775Y015510D01*
X046989Y015598D01*
X047074Y015684D02*
X053900Y015684D01*
X053900Y015802D02*
X047169Y015802D01*
X047218Y015921D02*
X053900Y015921D01*
X053900Y016039D02*
X047240Y016039D01*
X047240Y016158D02*
X053900Y016158D01*
X053900Y016276D02*
X047240Y016276D01*
X047240Y016395D02*
X053900Y016395D01*
X053900Y016513D02*
X047240Y016513D01*
X047240Y016632D02*
X053900Y016632D01*
X053900Y016750D02*
X047240Y016750D01*
X047240Y016869D02*
X053900Y016869D01*
X053900Y016987D02*
X047223Y016987D01*
X047174Y017106D02*
X053900Y017106D01*
X053900Y017224D02*
X047086Y017224D01*
X046938Y017343D02*
X053900Y017343D01*
X053900Y017461D02*
X046243Y017461D01*
X046361Y017580D02*
X053900Y017580D01*
X053900Y017698D02*
X046480Y017698D01*
X046598Y017817D02*
X053900Y017817D01*
X053900Y017935D02*
X046717Y017935D01*
X046835Y018054D02*
X053900Y018054D01*
X053900Y018172D02*
X046954Y018172D01*
X047072Y018291D02*
X053900Y018291D01*
X053900Y018409D02*
X047191Y018409D01*
X047309Y018528D02*
X053900Y018528D01*
X053900Y018646D02*
X047428Y018646D01*
X047546Y018765D02*
X053900Y018765D01*
X053900Y018883D02*
X047665Y018883D01*
X047757Y019002D02*
X053900Y019002D01*
X053900Y019120D02*
X047780Y019120D01*
X047780Y019239D02*
X053900Y019239D01*
X053900Y019357D02*
X047780Y019357D01*
X047780Y019476D02*
X053900Y019476D01*
X053900Y019594D02*
X047780Y019594D01*
X047780Y019713D02*
X053900Y019713D01*
X053900Y019831D02*
X047780Y019831D01*
X047780Y019950D02*
X053900Y019950D01*
X053900Y020068D02*
X047780Y020068D01*
X047780Y020187D02*
X053900Y020187D01*
X053900Y020305D02*
X047780Y020305D01*
X047780Y020424D02*
X053900Y020424D01*
X053900Y020542D02*
X047780Y020542D01*
X047780Y020661D02*
X053900Y020661D01*
X053900Y020779D02*
X047780Y020779D01*
X047780Y020898D02*
X053900Y020898D01*
X053900Y021016D02*
X047780Y021016D01*
X047780Y021135D02*
X053900Y021135D01*
X053900Y021253D02*
X047780Y021253D01*
X047780Y021372D02*
X053900Y021372D01*
X053900Y021490D02*
X047780Y021490D01*
X047780Y021609D02*
X053900Y021609D01*
X053900Y021727D02*
X047780Y021727D01*
X047780Y021846D02*
X053900Y021846D01*
X053900Y021964D02*
X047780Y021964D01*
X047780Y022083D02*
X053900Y022083D01*
X053900Y022201D02*
X047780Y022201D01*
X047780Y022320D02*
X053900Y022320D01*
X053900Y022438D02*
X047780Y022438D01*
X047780Y022557D02*
X053900Y022557D01*
X053900Y022675D02*
X047780Y022675D01*
X047780Y022794D02*
X053900Y022794D01*
X053900Y022912D02*
X047780Y022912D01*
X047780Y023031D02*
X053900Y023031D01*
X053900Y023149D02*
X047780Y023149D01*
X047780Y023268D02*
X053900Y023268D01*
X053900Y023386D02*
X047780Y023386D01*
X047780Y023505D02*
X053900Y023505D01*
X053900Y023623D02*
X047780Y023623D01*
X047780Y023742D02*
X053900Y023742D01*
X053900Y023860D02*
X047780Y023860D01*
X047780Y023979D02*
X053900Y023979D01*
X053900Y024097D02*
X047780Y024097D01*
X047780Y024216D02*
X053900Y024216D01*
X053900Y024334D02*
X047780Y024334D01*
X047780Y024453D02*
X053900Y024453D01*
X053900Y024571D02*
X047780Y024571D01*
X047780Y024690D02*
X053900Y024690D01*
X053900Y024808D02*
X047780Y024808D01*
X047780Y024927D02*
X053900Y024927D01*
X053900Y025045D02*
X047780Y025045D01*
X047780Y025164D02*
X053900Y025164D01*
X053900Y025282D02*
X047780Y025282D01*
X047780Y025401D02*
X053900Y025401D01*
X053900Y025519D02*
X047780Y025519D01*
X047780Y025638D02*
X053900Y025638D01*
X053900Y025756D02*
X047780Y025756D01*
X047780Y025875D02*
X053900Y025875D01*
X053900Y025993D02*
X047780Y025993D01*
X047780Y026112D02*
X053900Y026112D01*
X053900Y026230D02*
X052970Y026230D01*
X052833Y026180D02*
X053158Y026298D01*
X053422Y026520D01*
X053422Y026520D01*
X053422Y026520D01*
X053595Y026820D01*
X053655Y027160D01*
X053595Y027500D01*
X053595Y027500D01*
X053422Y027800D01*
X053158Y028022D01*
X053158Y028022D01*
X052833Y028140D01*
X052487Y028140D01*
X052162Y028022D01*
X051898Y027800D01*
X051898Y027800D01*
X051725Y027500D01*
X051665Y027160D01*
X051725Y026820D01*
X051725Y026820D01*
X051898Y026520D01*
X052162Y026298D01*
X052162Y026298D01*
X052487Y026180D01*
X052710Y026180D01*
X052833Y026180D01*
X052833Y026180D01*
X053158Y026298D02*
X053158Y026298D01*
X053218Y026349D02*
X053900Y026349D01*
X053900Y026467D02*
X053359Y026467D01*
X053460Y026586D02*
X053900Y026586D01*
X053900Y026704D02*
X053528Y026704D01*
X053595Y026820D02*
X053595Y026820D01*
X053596Y026823D02*
X053900Y026823D01*
X053900Y026941D02*
X053617Y026941D01*
X053637Y027060D02*
X053900Y027060D01*
X053900Y027178D02*
X053652Y027178D01*
X053655Y027160D02*
X053655Y027160D01*
X053631Y027297D02*
X053900Y027297D01*
X053900Y027415D02*
X053610Y027415D01*
X053576Y027534D02*
X053900Y027534D01*
X053900Y027652D02*
X053508Y027652D01*
X053439Y027771D02*
X053900Y027771D01*
X053900Y027889D02*
X053316Y027889D01*
X053422Y027800D02*
X053422Y027800D01*
X053175Y028008D02*
X053900Y028008D01*
X053900Y028126D02*
X052871Y028126D01*
X052449Y028126D02*
X047780Y028126D01*
X047780Y028008D02*
X052145Y028008D01*
X052162Y028022D02*
X052162Y028022D01*
X052004Y027889D02*
X047780Y027889D01*
X047780Y027771D02*
X051881Y027771D01*
X051898Y027800D02*
X051898Y027800D01*
X051812Y027652D02*
X047780Y027652D01*
X047780Y027534D02*
X051744Y027534D01*
X051725Y027500D02*
X051725Y027500D01*
X051710Y027415D02*
X047780Y027415D01*
X047780Y027297D02*
X051689Y027297D01*
X051668Y027178D02*
X047780Y027178D01*
X047780Y027060D02*
X051683Y027060D01*
X051665Y027160D02*
X051665Y027160D01*
X051703Y026941D02*
X047780Y026941D01*
X047780Y026823D02*
X051724Y026823D01*
X051792Y026704D02*
X047780Y026704D01*
X047780Y026586D02*
X051860Y026586D01*
X051898Y026520D02*
X051898Y026520D01*
X051961Y026467D02*
X047780Y026467D01*
X047780Y026349D02*
X052102Y026349D01*
X052350Y026230D02*
X047780Y026230D01*
X047240Y026230D02*
X046080Y026230D01*
X046080Y026112D02*
X047240Y026112D01*
X047240Y025993D02*
X046080Y025993D01*
X046080Y025875D02*
X047240Y025875D01*
X047240Y025756D02*
X046080Y025756D01*
X046080Y025638D02*
X047240Y025638D01*
X047240Y025519D02*
X046080Y025519D01*
X046080Y025401D02*
X047240Y025401D01*
X047240Y025282D02*
X046080Y025282D01*
X046080Y025164D02*
X047240Y025164D01*
X047240Y025045D02*
X046080Y025045D01*
X046080Y024927D02*
X047240Y024927D01*
X047240Y024808D02*
X046080Y024808D01*
X046080Y024690D02*
X047240Y024690D01*
X047240Y024571D02*
X046080Y024571D01*
X046080Y024453D02*
X047240Y024453D01*
X047240Y024334D02*
X046080Y024334D01*
X046080Y024216D02*
X047240Y024216D01*
X047240Y024097D02*
X046080Y024097D01*
X046080Y023979D02*
X047240Y023979D01*
X047240Y023860D02*
X046080Y023860D01*
X046080Y023742D02*
X047240Y023742D01*
X047240Y023623D02*
X046080Y023623D01*
X046080Y023505D02*
X047240Y023505D01*
X047240Y023386D02*
X046080Y023386D01*
X046080Y023268D02*
X047240Y023268D01*
X047240Y023149D02*
X046080Y023149D01*
X046080Y023031D02*
X047240Y023031D01*
X047240Y022912D02*
X046080Y022912D01*
X046080Y022794D02*
X047240Y022794D01*
X047240Y022675D02*
X046080Y022675D01*
X046080Y022557D02*
X047240Y022557D01*
X047240Y022438D02*
X046080Y022438D01*
X046080Y022320D02*
X047240Y022320D01*
X047240Y022201D02*
X046080Y022201D01*
X046080Y022083D02*
X047240Y022083D01*
X047240Y021964D02*
X046080Y021964D01*
X046080Y021846D02*
X047240Y021846D01*
X047240Y021727D02*
X046080Y021727D01*
X046080Y021609D02*
X047240Y021609D01*
X047240Y021490D02*
X046080Y021490D01*
X046080Y021372D02*
X047240Y021372D01*
X047240Y021253D02*
X046080Y021253D01*
X046080Y021135D02*
X047240Y021135D01*
X047240Y021016D02*
X046080Y021016D01*
X046080Y020898D02*
X047240Y020898D01*
X047240Y020779D02*
X046850Y020779D01*
X046775Y020810D02*
X046545Y020810D01*
X046331Y020722D01*
X046168Y020559D01*
X046080Y020345D01*
X046080Y019375D01*
X046168Y019161D01*
X046331Y018998D01*
X046545Y018910D01*
X046775Y018910D01*
X046989Y018998D01*
X047152Y019161D01*
X047240Y019375D01*
X047240Y020345D01*
X047152Y020559D01*
X046989Y020722D01*
X046775Y020810D01*
X046470Y020779D02*
X046080Y020779D01*
X046080Y020661D02*
X046270Y020661D01*
X046161Y020542D02*
X046080Y020542D01*
X046080Y020424D02*
X046112Y020424D01*
X046080Y020305D02*
X046080Y020305D01*
X046080Y020187D02*
X046080Y020187D01*
X046080Y020068D02*
X046080Y020068D01*
X046080Y019950D02*
X046080Y019950D01*
X046080Y019831D02*
X046080Y019831D01*
X046080Y019713D02*
X046080Y019713D01*
X046080Y019594D02*
X046080Y019594D01*
X046080Y019476D02*
X046080Y019476D01*
X046080Y019357D02*
X046087Y019357D01*
X046080Y019239D02*
X046136Y019239D01*
X046080Y019120D02*
X046210Y019120D01*
X046328Y019002D02*
X046080Y019002D01*
X046080Y018883D02*
X046901Y018883D01*
X046992Y019002D02*
X047020Y019002D01*
X047110Y019120D02*
X047138Y019120D01*
X047184Y019239D02*
X047240Y019239D01*
X047240Y019222D02*
X046080Y018062D01*
X046080Y030948D01*
X046363Y031231D01*
X046439Y031307D01*
X046480Y031406D01*
X046480Y031660D01*
X046740Y031920D01*
X046740Y032400D01*
X046445Y032695D01*
X046690Y032940D01*
X046690Y033120D01*
X046200Y033120D01*
X046200Y033200D01*
X046120Y033200D01*
X046120Y033690D01*
X045940Y033690D01*
X045695Y033445D01*
X045630Y033510D01*
X045630Y033690D01*
X046398Y033690D01*
X047240Y032848D01*
X047240Y019222D01*
X047233Y019357D02*
X047240Y019357D01*
X047240Y019476D02*
X047240Y019476D01*
X047240Y019594D02*
X047240Y019594D01*
X047240Y019713D02*
X047240Y019713D01*
X047240Y019831D02*
X047240Y019831D01*
X047240Y019950D02*
X047240Y019950D01*
X047240Y020068D02*
X047240Y020068D01*
X047240Y020187D02*
X047240Y020187D01*
X047240Y020305D02*
X047240Y020305D01*
X047240Y020424D02*
X047208Y020424D01*
X047240Y020542D02*
X047159Y020542D01*
X047240Y020661D02*
X047050Y020661D01*
X047510Y019110D02*
X047510Y032960D01*
X046510Y033960D01*
X045360Y033960D01*
X045360Y033460D01*
X045160Y033260D01*
X045160Y033160D01*
X045682Y033459D02*
X045709Y033459D01*
X045630Y033577D02*
X045828Y033577D01*
X046120Y033577D02*
X046200Y033577D01*
X046200Y033690D02*
X046200Y033200D01*
X046690Y033200D01*
X046690Y033380D01*
X046380Y033690D01*
X046200Y033690D01*
X046200Y033459D02*
X046120Y033459D01*
X046120Y033340D02*
X046200Y033340D01*
X046200Y033222D02*
X046120Y033222D01*
X046492Y033577D02*
X046511Y033577D01*
X046611Y033459D02*
X046630Y033459D01*
X046690Y033340D02*
X046748Y033340D01*
X046690Y033222D02*
X046867Y033222D01*
X046985Y033103D02*
X046690Y033103D01*
X046690Y032985D02*
X047104Y032985D01*
X047222Y032866D02*
X046616Y032866D01*
X046497Y032748D02*
X047240Y032748D01*
X047240Y032629D02*
X046511Y032629D01*
X046630Y032511D02*
X047240Y032511D01*
X047240Y032392D02*
X046740Y032392D01*
X046740Y032274D02*
X047240Y032274D01*
X047240Y032155D02*
X046740Y032155D01*
X046740Y032037D02*
X047240Y032037D01*
X047240Y031918D02*
X046738Y031918D01*
X046620Y031800D02*
X047240Y031800D01*
X047240Y031681D02*
X046501Y031681D01*
X046480Y031563D02*
X047240Y031563D01*
X047240Y031444D02*
X046480Y031444D01*
X046447Y031326D02*
X047240Y031326D01*
X047240Y031207D02*
X046339Y031207D01*
X046220Y031089D02*
X047240Y031089D01*
X047240Y030970D02*
X046102Y030970D01*
X046080Y030852D02*
X047240Y030852D01*
X047240Y030733D02*
X046080Y030733D01*
X046080Y030615D02*
X047240Y030615D01*
X047240Y030496D02*
X046080Y030496D01*
X046080Y030378D02*
X047240Y030378D01*
X047240Y030259D02*
X046080Y030259D01*
X046080Y030141D02*
X047240Y030141D01*
X047240Y030022D02*
X046080Y030022D01*
X046080Y029904D02*
X047240Y029904D01*
X047240Y029785D02*
X046080Y029785D01*
X046080Y029667D02*
X047240Y029667D01*
X047240Y029548D02*
X046080Y029548D01*
X046080Y029430D02*
X047240Y029430D01*
X047240Y029311D02*
X046080Y029311D01*
X046080Y029193D02*
X047240Y029193D01*
X047240Y029074D02*
X046080Y029074D01*
X046080Y028956D02*
X047240Y028956D01*
X047240Y028837D02*
X046080Y028837D01*
X046080Y028719D02*
X047240Y028719D01*
X047240Y028600D02*
X046080Y028600D01*
X046080Y028482D02*
X047240Y028482D01*
X047240Y028363D02*
X046080Y028363D01*
X046080Y028245D02*
X047240Y028245D01*
X047240Y028126D02*
X046080Y028126D01*
X046080Y028008D02*
X047240Y028008D01*
X047240Y027889D02*
X046080Y027889D01*
X046080Y027771D02*
X047240Y027771D01*
X047240Y027652D02*
X046080Y027652D01*
X046080Y027534D02*
X047240Y027534D01*
X047240Y027415D02*
X046080Y027415D01*
X046080Y027297D02*
X047240Y027297D01*
X047240Y027178D02*
X046080Y027178D01*
X046080Y027060D02*
X047240Y027060D01*
X047240Y026941D02*
X046080Y026941D01*
X046080Y026823D02*
X047240Y026823D01*
X047240Y026704D02*
X046080Y026704D01*
X046080Y026586D02*
X047240Y026586D01*
X047240Y026467D02*
X046080Y026467D01*
X046080Y026349D02*
X047240Y026349D01*
X047780Y028245D02*
X053900Y028245D01*
X053900Y028363D02*
X047780Y028363D01*
X047780Y028482D02*
X053900Y028482D01*
X053900Y028600D02*
X047780Y028600D01*
X047780Y028719D02*
X053900Y028719D01*
X053900Y028837D02*
X047780Y028837D01*
X047780Y028956D02*
X053900Y028956D01*
X053900Y029074D02*
X047780Y029074D01*
X047780Y029193D02*
X053900Y029193D01*
X053900Y029311D02*
X047780Y029311D01*
X047780Y029430D02*
X053900Y029430D01*
X053900Y029548D02*
X047780Y029548D01*
X047780Y029667D02*
X053900Y029667D01*
X053900Y029785D02*
X047780Y029785D01*
X047780Y029904D02*
X053900Y029904D01*
X053900Y030022D02*
X047780Y030022D01*
X047780Y030141D02*
X053900Y030141D01*
X053900Y030259D02*
X047780Y030259D01*
X047780Y030378D02*
X053900Y030378D01*
X053900Y030496D02*
X047780Y030496D01*
X047780Y030615D02*
X053900Y030615D01*
X053900Y030733D02*
X047780Y030733D01*
X047780Y030852D02*
X053900Y030852D01*
X053900Y030970D02*
X047780Y030970D01*
X047780Y031089D02*
X053900Y031089D01*
X053900Y031207D02*
X047780Y031207D01*
X047780Y031326D02*
X053900Y031326D01*
X053900Y031444D02*
X047780Y031444D01*
X047780Y031563D02*
X053900Y031563D01*
X053900Y031681D02*
X052836Y031681D01*
X052833Y031680D02*
X053158Y031798D01*
X053422Y032020D01*
X053422Y032020D01*
X053422Y032020D01*
X053595Y032320D01*
X053655Y032660D01*
X053595Y033000D01*
X053595Y033000D01*
X053422Y033300D01*
X053158Y033522D01*
X053158Y033522D01*
X052833Y033640D01*
X052487Y033640D01*
X052162Y033522D01*
X051898Y033300D01*
X051898Y033300D01*
X051725Y033000D01*
X051665Y032660D01*
X051725Y032320D01*
X051725Y032320D01*
X051898Y032020D01*
X052162Y031798D01*
X052487Y031680D01*
X052610Y031680D01*
X052833Y031680D01*
X053158Y031798D02*
X053158Y031798D01*
X053159Y031800D02*
X053900Y031800D01*
X053900Y031918D02*
X053300Y031918D01*
X053432Y032037D02*
X053900Y032037D01*
X053900Y032155D02*
X053500Y032155D01*
X053568Y032274D02*
X053900Y032274D01*
X053900Y032392D02*
X053608Y032392D01*
X053595Y032320D02*
X053595Y032320D01*
X053629Y032511D02*
X053900Y032511D01*
X053900Y032629D02*
X053650Y032629D01*
X053655Y032660D02*
X053655Y032660D01*
X053640Y032748D02*
X053900Y032748D01*
X053900Y032866D02*
X053619Y032866D01*
X053598Y032985D02*
X053900Y032985D01*
X053900Y033103D02*
X053536Y033103D01*
X053467Y033222D02*
X053895Y033222D01*
X053870Y033340D02*
X053374Y033340D01*
X053422Y033300D02*
X053422Y033300D01*
X053233Y033459D02*
X053831Y033459D01*
X053760Y033577D02*
X053006Y033577D01*
X053503Y033814D02*
X047038Y033814D01*
X047156Y033696D02*
X053666Y033696D01*
X052314Y033577D02*
X047275Y033577D01*
X047393Y033459D02*
X052087Y033459D01*
X052162Y033522D02*
X052162Y033522D01*
X051946Y033340D02*
X047512Y033340D01*
X047630Y033222D02*
X051853Y033222D01*
X051898Y033300D02*
X051898Y033300D01*
X051784Y033103D02*
X047743Y033103D01*
X047780Y032985D02*
X051722Y032985D01*
X051725Y033000D02*
X051725Y033000D01*
X051701Y032866D02*
X047780Y032866D01*
X047780Y032748D02*
X051680Y032748D01*
X051665Y032660D02*
X051665Y032660D01*
X051670Y032629D02*
X047780Y032629D01*
X047780Y032511D02*
X051691Y032511D01*
X051712Y032392D02*
X047780Y032392D01*
X047780Y032274D02*
X051752Y032274D01*
X051820Y032155D02*
X047780Y032155D01*
X047780Y032037D02*
X051888Y032037D01*
X051898Y032020D02*
X051898Y032020D01*
X052020Y031918D02*
X047780Y031918D01*
X047780Y031800D02*
X052161Y031800D01*
X052484Y031681D02*
X047780Y031681D01*
X046210Y031460D02*
X046210Y032110D01*
X046160Y032160D01*
X046210Y031460D02*
X045810Y031060D01*
X045810Y017960D01*
X045160Y017310D01*
X045160Y017160D01*
X044160Y017160D01*
X043653Y016869D02*
X043603Y016869D01*
X043497Y016750D02*
X043750Y016750D01*
X043920Y016632D02*
X043211Y016632D01*
X043210Y016632D02*
X043110Y016632D01*
X043110Y016750D02*
X043210Y016750D01*
X043210Y016869D02*
X043110Y016869D01*
X043110Y016987D02*
X043210Y016987D01*
X043210Y017106D02*
X043110Y017106D01*
X042369Y016632D02*
X041240Y016632D01*
X041240Y016750D02*
X042083Y016750D01*
X041977Y016869D02*
X041222Y016869D01*
X041227Y016854D02*
X041201Y016933D01*
X041163Y017008D01*
X041114Y017075D01*
X041055Y017134D01*
X040988Y017183D01*
X040913Y017221D01*
X040834Y017247D01*
X040760Y017259D01*
X040760Y016410D01*
X041240Y016410D01*
X041240Y016772D01*
X041227Y016854D01*
X041174Y016987D02*
X041919Y016987D01*
X041892Y017106D02*
X041084Y017106D01*
X040905Y017224D02*
X041894Y017224D01*
X041922Y017343D02*
X038938Y017343D01*
X038989Y017322D02*
X038775Y017410D01*
X038545Y017410D01*
X038331Y017322D01*
X038168Y017159D01*
X038080Y016945D01*
X038080Y015975D01*
X038168Y015761D01*
X038331Y015598D01*
X038545Y015510D01*
X038775Y015510D01*
X038989Y015598D01*
X039152Y015761D01*
X039240Y015975D01*
X039240Y016945D01*
X039152Y017159D01*
X038989Y017322D01*
X039086Y017224D02*
X040515Y017224D01*
X040507Y017221D02*
X040432Y017183D01*
X040365Y017134D01*
X040306Y017075D01*
X040257Y017008D01*
X040219Y016933D01*
X040193Y016854D01*
X040180Y016772D01*
X040180Y016410D01*
X040660Y016410D01*
X040660Y017259D01*
X040586Y017247D01*
X040507Y017221D01*
X040660Y017224D02*
X040760Y017224D01*
X040760Y017106D02*
X040660Y017106D01*
X040660Y016987D02*
X040760Y016987D01*
X040760Y016869D02*
X040660Y016869D01*
X040660Y016750D02*
X040760Y016750D01*
X040760Y016632D02*
X040660Y016632D01*
X040660Y016513D02*
X040760Y016513D01*
X040760Y016410D02*
X040660Y016410D01*
X040660Y016310D01*
X040760Y016310D01*
X040760Y016410D01*
X040760Y016395D02*
X045013Y016395D01*
X045131Y016513D02*
X041240Y016513D01*
X041240Y016310D02*
X040760Y016310D01*
X040760Y015461D01*
X040834Y015473D01*
X040913Y015499D01*
X040988Y015537D01*
X041055Y015586D01*
X041114Y015645D01*
X041163Y015712D01*
X041201Y015787D01*
X041227Y015866D01*
X041240Y015948D01*
X041240Y016310D01*
X041240Y016276D02*
X044894Y016276D01*
X044776Y016158D02*
X041240Y016158D01*
X041240Y016039D02*
X044657Y016039D01*
X044539Y015921D02*
X041236Y015921D01*
X041206Y015802D02*
X044420Y015802D01*
X044302Y015684D02*
X041142Y015684D01*
X041027Y015565D02*
X044183Y015565D01*
X044065Y015447D02*
X014030Y015447D01*
X014030Y015565D02*
X014412Y015565D01*
X014246Y015684D02*
X014030Y015684D01*
X014030Y015802D02*
X014151Y015802D01*
X014102Y015921D02*
X014030Y015921D01*
X014030Y016039D02*
X014080Y016039D01*
X014080Y016158D02*
X014030Y016158D01*
X014030Y016276D02*
X014080Y016276D01*
X014080Y016395D02*
X014030Y016395D01*
X014030Y016513D02*
X014080Y016513D01*
X014080Y016632D02*
X014030Y016632D01*
X014030Y016750D02*
X014080Y016750D01*
X014360Y016760D02*
X014360Y016910D01*
X013960Y017310D01*
X013960Y019610D01*
X012910Y020660D01*
X012910Y031110D01*
X012160Y031860D01*
X012160Y032160D01*
X011700Y031800D02*
X011431Y031800D01*
X011550Y031918D02*
X011582Y031918D01*
X011819Y031681D02*
X011313Y031681D01*
X011194Y031563D02*
X012076Y031563D01*
X012194Y031444D02*
X011076Y031444D01*
X010957Y031326D02*
X012313Y031326D01*
X012431Y031207D02*
X010839Y031207D01*
X010720Y031089D02*
X012550Y031089D01*
X012640Y030970D02*
X010680Y030970D01*
X010680Y030852D02*
X012640Y030852D01*
X012640Y030733D02*
X010680Y030733D01*
X010680Y030615D02*
X012640Y030615D01*
X012640Y030496D02*
X010680Y030496D01*
X010680Y030378D02*
X012640Y030378D01*
X012640Y030259D02*
X010680Y030259D01*
X010680Y030141D02*
X012640Y030141D01*
X012640Y030022D02*
X010680Y030022D01*
X010680Y029904D02*
X012640Y029904D01*
X012640Y029785D02*
X010680Y029785D01*
X010680Y029667D02*
X012640Y029667D01*
X012640Y029548D02*
X010680Y029548D01*
X010680Y029430D02*
X012640Y029430D01*
X012640Y029311D02*
X010680Y029311D01*
X010680Y029193D02*
X012640Y029193D01*
X012640Y029074D02*
X010680Y029074D01*
X010680Y028956D02*
X012640Y028956D01*
X012640Y028837D02*
X010680Y028837D01*
X010680Y028719D02*
X012640Y028719D01*
X012640Y028600D02*
X010680Y028600D01*
X010680Y028482D02*
X012640Y028482D01*
X012640Y028363D02*
X010680Y028363D01*
X010680Y028245D02*
X012640Y028245D01*
X012640Y028126D02*
X010680Y028126D01*
X010680Y028008D02*
X012640Y028008D01*
X012640Y027889D02*
X010680Y027889D01*
X010680Y027771D02*
X012640Y027771D01*
X012640Y027652D02*
X010680Y027652D01*
X010680Y027534D02*
X012640Y027534D01*
X012640Y027415D02*
X010680Y027415D01*
X010680Y027297D02*
X012640Y027297D01*
X012640Y027178D02*
X010680Y027178D01*
X010680Y027060D02*
X012640Y027060D01*
X012640Y026941D02*
X010680Y026941D01*
X010680Y026823D02*
X012640Y026823D01*
X012640Y026704D02*
X010680Y026704D01*
X010680Y026586D02*
X012640Y026586D01*
X012640Y026467D02*
X010680Y026467D01*
X010680Y026349D02*
X012640Y026349D01*
X012640Y026230D02*
X010680Y026230D01*
X010680Y026112D02*
X012640Y026112D01*
X012640Y025993D02*
X010680Y025993D01*
X010680Y025875D02*
X012640Y025875D01*
X012640Y025756D02*
X010680Y025756D01*
X010680Y025638D02*
X012640Y025638D01*
X012640Y025519D02*
X010680Y025519D01*
X010680Y025401D02*
X012640Y025401D01*
X012640Y025282D02*
X010680Y025282D01*
X010680Y025164D02*
X012640Y025164D01*
X012640Y025045D02*
X010680Y025045D01*
X010680Y024927D02*
X012640Y024927D01*
X012640Y024808D02*
X010680Y024808D01*
X010680Y024690D02*
X012640Y024690D01*
X012640Y024571D02*
X010680Y024571D01*
X010680Y024453D02*
X012640Y024453D01*
X012640Y024334D02*
X010680Y024334D01*
X010680Y024216D02*
X012640Y024216D01*
X012640Y024097D02*
X010680Y024097D01*
X010680Y023979D02*
X012640Y023979D01*
X012640Y023860D02*
X010680Y023860D01*
X010680Y023742D02*
X012640Y023742D01*
X012640Y023623D02*
X010680Y023623D01*
X010680Y023505D02*
X012640Y023505D01*
X012640Y023386D02*
X010680Y023386D01*
X010680Y023268D02*
X012640Y023268D01*
X012640Y023149D02*
X010680Y023149D01*
X010680Y023031D02*
X012640Y023031D01*
X012640Y022912D02*
X010680Y022912D01*
X010680Y022794D02*
X012640Y022794D01*
X012640Y022675D02*
X010680Y022675D01*
X010680Y022557D02*
X012640Y022557D01*
X012640Y022438D02*
X010680Y022438D01*
X010680Y022320D02*
X012640Y022320D01*
X012640Y022201D02*
X012239Y022201D01*
X012428Y022083D02*
X012640Y022083D01*
X012640Y021964D02*
X012532Y021964D01*
X012581Y021846D02*
X012640Y021846D01*
X012640Y021727D02*
X012610Y021727D01*
X012610Y021609D02*
X012640Y021609D01*
X012640Y021490D02*
X012587Y021490D01*
X012538Y021372D02*
X012640Y021372D01*
X012640Y021253D02*
X012443Y021253D01*
X012517Y021135D02*
X012640Y021135D01*
X012636Y021016D02*
X012640Y021016D01*
X012228Y020661D02*
X010680Y020661D01*
X010680Y020779D02*
X012109Y020779D01*
X011991Y020898D02*
X010680Y020898D01*
X010680Y021016D02*
X011872Y021016D01*
X012346Y020542D02*
X010680Y020542D01*
X010680Y020424D02*
X012465Y020424D01*
X012583Y020305D02*
X010680Y020305D01*
X010680Y020187D02*
X012702Y020187D01*
X012820Y020068D02*
X010680Y020068D01*
X010752Y019950D02*
X012939Y019950D01*
X013057Y019831D02*
X010871Y019831D01*
X010410Y019910D02*
X010410Y031160D01*
X012160Y032910D01*
X012160Y033160D01*
X012460Y033660D02*
X012960Y033160D01*
X013160Y033160D01*
X013682Y033459D02*
X013709Y033459D01*
X013828Y033577D02*
X013563Y033577D01*
X013445Y033696D02*
X019875Y033696D01*
X019920Y033740D02*
X019580Y033400D01*
X019580Y032920D01*
X019840Y032660D01*
X019580Y032400D01*
X019580Y031920D01*
X019920Y031580D01*
X020400Y031580D01*
X020660Y031840D01*
X020920Y031580D01*
X021400Y031580D01*
X021660Y031840D01*
X021920Y031580D01*
X022400Y031580D01*
X022740Y031920D01*
X022740Y032400D01*
X022445Y032695D01*
X022690Y032940D01*
X022690Y033120D01*
X022200Y033120D01*
X022200Y033200D01*
X022690Y033200D01*
X022690Y033380D01*
X022380Y033690D01*
X022200Y033690D01*
X022200Y033200D01*
X022120Y033200D01*
X022120Y033690D01*
X021940Y033690D01*
X021695Y033445D01*
X021400Y033740D01*
X020920Y033740D01*
X020660Y033480D01*
X020400Y033740D01*
X019920Y033740D01*
X019757Y033577D02*
X014492Y033577D01*
X014611Y033459D02*
X019638Y033459D01*
X019580Y033340D02*
X014690Y033340D01*
X014690Y033222D02*
X019580Y033222D01*
X019580Y033103D02*
X014690Y033103D01*
X014690Y032985D02*
X019580Y032985D01*
X019634Y032866D02*
X014616Y032866D01*
X014497Y032748D02*
X019752Y032748D01*
X019809Y032629D02*
X014511Y032629D01*
X014630Y032511D02*
X019690Y032511D01*
X019580Y032392D02*
X014740Y032392D01*
X014740Y032274D02*
X019580Y032274D01*
X019580Y032155D02*
X014740Y032155D01*
X014740Y032037D02*
X019580Y032037D01*
X019582Y031918D02*
X014738Y031918D01*
X014620Y031800D02*
X019700Y031800D01*
X019819Y031681D02*
X014501Y031681D01*
X014380Y031563D02*
X038276Y031563D01*
X038394Y031444D02*
X014380Y031444D01*
X014380Y031326D02*
X038513Y031326D01*
X038631Y031207D02*
X014380Y031207D01*
X014380Y031089D02*
X038750Y031089D01*
X038868Y030970D02*
X014380Y030970D01*
X014380Y030852D02*
X038987Y030852D01*
X039105Y030733D02*
X014380Y030733D01*
X014380Y030615D02*
X039224Y030615D01*
X039342Y030496D02*
X014380Y030496D01*
X014380Y030378D02*
X039461Y030378D01*
X039579Y030259D02*
X014380Y030259D01*
X014380Y030141D02*
X039698Y030141D01*
X039816Y030022D02*
X014380Y030022D01*
X014380Y029904D02*
X039935Y029904D01*
X040053Y029785D02*
X014380Y029785D01*
X014380Y029667D02*
X040172Y029667D01*
X040290Y029548D02*
X014380Y029548D01*
X014380Y029430D02*
X040409Y029430D01*
X040527Y029311D02*
X014380Y029311D01*
X014380Y029193D02*
X040646Y029193D01*
X040764Y029074D02*
X014380Y029074D01*
X014380Y028956D02*
X040883Y028956D01*
X041001Y028837D02*
X014380Y028837D01*
X014380Y028719D02*
X041120Y028719D01*
X041238Y028600D02*
X014380Y028600D01*
X014380Y028482D02*
X041357Y028482D01*
X041475Y028363D02*
X014380Y028363D01*
X014380Y028245D02*
X041594Y028245D01*
X041640Y028126D02*
X014380Y028126D01*
X014380Y028008D02*
X041640Y028008D01*
X041640Y027889D02*
X014380Y027889D01*
X014380Y027771D02*
X041640Y027771D01*
X041640Y027652D02*
X014380Y027652D01*
X014380Y027534D02*
X041640Y027534D01*
X041640Y027415D02*
X014380Y027415D01*
X014380Y027297D02*
X041640Y027297D01*
X041640Y027178D02*
X014380Y027178D01*
X014380Y027060D02*
X041640Y027060D01*
X041640Y026941D02*
X014380Y026941D01*
X014380Y026823D02*
X041640Y026823D01*
X041640Y026704D02*
X014380Y026704D01*
X014380Y026586D02*
X041640Y026586D01*
X041640Y026467D02*
X014380Y026467D01*
X014380Y026349D02*
X041640Y026349D01*
X041640Y026230D02*
X014380Y026230D01*
X014380Y026112D02*
X041640Y026112D01*
X041640Y025993D02*
X014380Y025993D01*
X014380Y025875D02*
X041640Y025875D01*
X041640Y025756D02*
X014380Y025756D01*
X014380Y025638D02*
X041640Y025638D01*
X041640Y025519D02*
X014380Y025519D01*
X014380Y025401D02*
X041640Y025401D01*
X041640Y025282D02*
X014380Y025282D01*
X014380Y025164D02*
X041640Y025164D01*
X041640Y025045D02*
X014380Y025045D01*
X014380Y024927D02*
X041640Y024927D01*
X041640Y024808D02*
X014380Y024808D01*
X014380Y024690D02*
X041640Y024690D01*
X041640Y024571D02*
X014380Y024571D01*
X014380Y024453D02*
X041640Y024453D01*
X041640Y024334D02*
X014380Y024334D01*
X014380Y024216D02*
X041640Y024216D01*
X041640Y024097D02*
X014380Y024097D01*
X014380Y023979D02*
X041640Y023979D01*
X041640Y023860D02*
X014380Y023860D01*
X014380Y023742D02*
X041640Y023742D01*
X041640Y023623D02*
X039879Y023623D01*
X039833Y023640D02*
X039487Y023640D01*
X039162Y023522D01*
X038898Y023300D01*
X038898Y023300D01*
X038725Y023000D01*
X038665Y022660D01*
X038725Y022320D01*
X038898Y022020D01*
X039162Y021798D01*
X039162Y021798D01*
X039487Y021680D01*
X039610Y021680D01*
X039833Y021680D01*
X040158Y021798D01*
X040422Y022020D01*
X040422Y022020D01*
X040422Y022020D01*
X040595Y022320D01*
X040655Y022660D01*
X040595Y023000D01*
X040595Y023000D01*
X040422Y023300D01*
X040158Y023522D01*
X040158Y023522D01*
X039833Y023640D01*
X040178Y023505D02*
X041640Y023505D01*
X041640Y023386D02*
X040319Y023386D01*
X040422Y023300D02*
X040422Y023300D01*
X040441Y023268D02*
X041640Y023268D01*
X041640Y023149D02*
X040509Y023149D01*
X040578Y023031D02*
X041640Y023031D01*
X041640Y022912D02*
X040611Y022912D01*
X040632Y022794D02*
X041640Y022794D01*
X041640Y022675D02*
X040652Y022675D01*
X040655Y022660D02*
X040655Y022660D01*
X040637Y022557D02*
X041640Y022557D01*
X041640Y022438D02*
X040616Y022438D01*
X040595Y022320D02*
X040595Y022320D01*
X041640Y022320D01*
X041640Y022201D02*
X040527Y022201D01*
X040458Y022083D02*
X041640Y022083D01*
X041640Y021964D02*
X040355Y021964D01*
X040214Y021846D02*
X041640Y021846D01*
X041640Y021727D02*
X039962Y021727D01*
X040158Y021798D02*
X040158Y021798D01*
X039358Y021727D02*
X036610Y021727D01*
X036610Y021775D02*
X036610Y021545D01*
X036522Y021331D01*
X036359Y021168D01*
X036145Y021080D01*
X035175Y021080D01*
X034961Y021168D01*
X034798Y021331D01*
X034710Y021545D01*
X034710Y021775D01*
X034798Y021989D01*
X034961Y022152D01*
X035175Y022240D01*
X036145Y022240D01*
X036359Y022152D01*
X036522Y021989D01*
X036610Y021775D01*
X036581Y021846D02*
X039106Y021846D01*
X038965Y021964D02*
X036532Y021964D01*
X036428Y022083D02*
X038862Y022083D01*
X038898Y022020D02*
X038898Y022020D01*
X038793Y022201D02*
X036239Y022201D01*
X036610Y021609D02*
X041640Y021609D01*
X041640Y021490D02*
X036587Y021490D01*
X036538Y021372D02*
X036636Y021372D01*
X036656Y021380D02*
X036557Y021339D01*
X035548Y020330D01*
X033380Y020330D01*
X033359Y020352D01*
X033145Y020440D01*
X032462Y020440D01*
X031639Y021263D01*
X031563Y021339D01*
X031464Y021380D01*
X028656Y021380D01*
X028557Y021339D01*
X027548Y020330D01*
X025380Y020330D01*
X025359Y020352D01*
X025145Y020440D01*
X024462Y020440D01*
X023639Y021263D01*
X023563Y021339D01*
X023464Y021380D01*
X020656Y021380D01*
X020557Y021339D01*
X019548Y020330D01*
X017380Y020330D01*
X017359Y020352D01*
X017145Y020440D01*
X016175Y020440D01*
X015961Y020352D01*
X015798Y020189D01*
X015710Y019975D01*
X015710Y019745D01*
X015798Y019531D01*
X015961Y019368D01*
X016175Y019280D01*
X017145Y019280D01*
X017359Y019368D01*
X017522Y019531D01*
X017610Y019745D01*
X017610Y019790D01*
X019714Y019790D01*
X019813Y019831D01*
X019889Y019907D01*
X020822Y020840D01*
X023298Y020840D01*
X023874Y020264D01*
X023798Y020189D01*
X023710Y019975D01*
X023710Y019871D01*
X023592Y019920D01*
X023428Y019920D01*
X023278Y019858D01*
X023240Y019820D01*
X023240Y020345D01*
X023152Y020559D01*
X022989Y020722D01*
X022775Y020810D01*
X022545Y020810D01*
X022331Y020722D01*
X022168Y020559D01*
X022080Y020345D01*
X022080Y019375D01*
X022168Y019161D01*
X022331Y018998D01*
X022545Y018910D01*
X022775Y018910D01*
X022989Y018998D01*
X023152Y019161D01*
X023189Y019251D01*
X023229Y019211D01*
X021631Y017613D01*
X021590Y017514D01*
X021590Y017430D01*
X021416Y017430D01*
X021392Y017489D01*
X021229Y017652D01*
X021209Y017660D01*
X021229Y017668D01*
X021392Y017831D01*
X021480Y018045D01*
X021480Y018275D01*
X021392Y018489D01*
X021229Y018652D01*
X021209Y018660D01*
X021229Y018668D01*
X021392Y018831D01*
X021480Y019045D01*
X021480Y019275D01*
X021392Y019489D01*
X021229Y019652D01*
X021015Y019740D01*
X020045Y019740D01*
X019831Y019652D01*
X019668Y019489D01*
X019660Y019469D01*
X019652Y019489D01*
X019489Y019652D01*
X019275Y019740D01*
X018305Y019740D01*
X018091Y019652D01*
X017928Y019489D01*
X017840Y019275D01*
X017840Y019045D01*
X017928Y018831D01*
X018091Y018668D01*
X018111Y018660D01*
X018091Y018652D01*
X017928Y018489D01*
X017840Y018275D01*
X017840Y018045D01*
X017928Y017831D01*
X018091Y017668D01*
X018179Y017632D01*
X018142Y017613D01*
X018075Y017564D01*
X018016Y017505D01*
X017967Y017438D01*
X017929Y017363D01*
X017903Y017284D01*
X017891Y017210D01*
X019110Y017210D01*
X019110Y017110D01*
X019210Y017110D01*
X019210Y016631D01*
X019284Y016643D01*
X019363Y016669D01*
X019438Y016707D01*
X019505Y016756D01*
X019564Y016815D01*
X019613Y016882D01*
X019632Y016919D01*
X019668Y016831D01*
X019831Y016668D01*
X020045Y016580D01*
X021015Y016580D01*
X021229Y016668D01*
X021392Y016831D01*
X021416Y016890D01*
X021914Y016890D01*
X022013Y016931D01*
X022089Y017007D01*
X022130Y017106D01*
X022130Y017348D01*
X023663Y018881D01*
X023739Y018957D01*
X023780Y019056D01*
X023780Y019200D01*
X023858Y019278D01*
X023915Y019415D01*
X023961Y019368D01*
X024175Y019280D01*
X025145Y019280D01*
X025359Y019368D01*
X025522Y019531D01*
X025610Y019745D01*
X025610Y019790D01*
X027714Y019790D01*
X027813Y019831D01*
X027889Y019907D01*
X028822Y020840D01*
X031298Y020840D01*
X031874Y020264D01*
X031798Y020189D01*
X031710Y019975D01*
X031710Y019871D01*
X031592Y019920D01*
X031428Y019920D01*
X031278Y019858D01*
X031240Y019820D01*
X031240Y020345D01*
X031152Y020559D01*
X030989Y020722D01*
X030775Y020810D01*
X030545Y020810D01*
X030331Y020722D01*
X030168Y020559D01*
X030080Y020345D01*
X030080Y019375D01*
X030168Y019161D01*
X030331Y018998D01*
X030545Y018910D01*
X030775Y018910D01*
X030989Y018998D01*
X031152Y019161D01*
X031189Y019251D01*
X031229Y019211D01*
X029631Y017613D01*
X029590Y017514D01*
X029590Y017430D01*
X029416Y017430D01*
X029392Y017489D01*
X029229Y017652D01*
X029209Y017660D01*
X029229Y017668D01*
X029392Y017831D01*
X029480Y018045D01*
X029480Y018275D01*
X029392Y018489D01*
X029229Y018652D01*
X029209Y018660D01*
X029229Y018668D01*
X029392Y018831D01*
X029480Y019045D01*
X029480Y019275D01*
X029392Y019489D01*
X029229Y019652D01*
X029015Y019740D01*
X028045Y019740D01*
X027831Y019652D01*
X027668Y019489D01*
X027660Y019469D01*
X027652Y019489D01*
X027489Y019652D01*
X027275Y019740D01*
X026305Y019740D01*
X026091Y019652D01*
X025928Y019489D01*
X025840Y019275D01*
X025840Y019045D01*
X025928Y018831D01*
X026091Y018668D01*
X026111Y018660D01*
X026091Y018652D01*
X025928Y018489D01*
X025840Y018275D01*
X025840Y018045D01*
X025928Y017831D01*
X026091Y017668D01*
X026179Y017632D01*
X026142Y017613D01*
X026075Y017564D01*
X026016Y017505D01*
X025967Y017438D01*
X025929Y017363D01*
X025903Y017284D01*
X025891Y017210D01*
X027110Y017210D01*
X027110Y017110D01*
X027210Y017110D01*
X027210Y016631D01*
X027284Y016643D01*
X027363Y016669D01*
X027438Y016707D01*
X027505Y016756D01*
X027564Y016815D01*
X027613Y016882D01*
X027632Y016919D01*
X027668Y016831D01*
X027831Y016668D01*
X028045Y016580D01*
X029015Y016580D01*
X029229Y016668D01*
X029392Y016831D01*
X029416Y016890D01*
X029914Y016890D01*
X030013Y016931D01*
X030089Y017007D01*
X030130Y017106D01*
X030130Y017348D01*
X031663Y018881D01*
X031739Y018957D01*
X031780Y019056D01*
X031780Y019200D01*
X031858Y019278D01*
X031915Y019415D01*
X031961Y019368D01*
X032175Y019280D01*
X033145Y019280D01*
X033359Y019368D01*
X033522Y019531D01*
X033610Y019745D01*
X033610Y019790D01*
X035714Y019790D01*
X035813Y019831D01*
X035889Y019907D01*
X036822Y020840D01*
X039298Y020840D01*
X039874Y020264D01*
X039798Y020189D01*
X039710Y019975D01*
X039710Y019745D01*
X039798Y019531D01*
X039961Y019368D01*
X040175Y019280D01*
X041145Y019280D01*
X041359Y019368D01*
X041522Y019531D01*
X041610Y019745D01*
X041610Y019975D01*
X041522Y020189D01*
X041359Y020352D01*
X041145Y020440D01*
X040462Y020440D01*
X039639Y021263D01*
X039563Y021339D01*
X039464Y021380D01*
X036656Y021380D01*
X036471Y021253D02*
X036443Y021253D01*
X036353Y021135D02*
X036277Y021135D01*
X036234Y021016D02*
X031886Y021016D01*
X032004Y020898D02*
X036116Y020898D01*
X035997Y020779D02*
X032123Y020779D01*
X032241Y020661D02*
X035879Y020661D01*
X035760Y020542D02*
X032360Y020542D01*
X032510Y020060D02*
X032660Y019860D01*
X031410Y021110D01*
X028710Y021110D01*
X027660Y020060D01*
X024510Y020060D01*
X024660Y019860D01*
X023410Y021110D01*
X020710Y021110D01*
X019660Y020060D01*
X016660Y020060D01*
X016660Y019860D01*
X017331Y019357D02*
X017874Y019357D01*
X017840Y019239D02*
X015184Y019239D01*
X015233Y019357D02*
X015989Y019357D01*
X015854Y019476D02*
X015240Y019476D01*
X015240Y019594D02*
X015772Y019594D01*
X015723Y019713D02*
X015240Y019713D01*
X015240Y019831D02*
X015710Y019831D01*
X015710Y019950D02*
X015240Y019950D01*
X015240Y020068D02*
X015748Y020068D01*
X015797Y020187D02*
X015240Y020187D01*
X015240Y020305D02*
X015915Y020305D01*
X016135Y020424D02*
X015208Y020424D01*
X015159Y020542D02*
X019760Y020542D01*
X019642Y020424D02*
X017185Y020424D01*
X017597Y019713D02*
X018238Y019713D01*
X018034Y019594D02*
X017548Y019594D01*
X017466Y019476D02*
X017923Y019476D01*
X017840Y019120D02*
X015110Y019120D01*
X014992Y019002D02*
X017858Y019002D01*
X017907Y018883D02*
X014230Y018883D01*
X014230Y018765D02*
X017995Y018765D01*
X018086Y018646D02*
X014230Y018646D01*
X014230Y018528D02*
X017967Y018528D01*
X017895Y018409D02*
X014230Y018409D01*
X014230Y018291D02*
X017846Y018291D01*
X017840Y018172D02*
X014230Y018172D01*
X014230Y018054D02*
X017840Y018054D01*
X017885Y017935D02*
X014230Y017935D01*
X014230Y017817D02*
X017943Y017817D01*
X018062Y017698D02*
X014230Y017698D01*
X014230Y017580D02*
X018096Y017580D01*
X017984Y017461D02*
X014230Y017461D01*
X014309Y017343D02*
X014382Y017343D01*
X014938Y017343D02*
X017922Y017343D01*
X017894Y017224D02*
X016905Y017224D01*
X016913Y017221D02*
X016834Y017247D01*
X016760Y017259D01*
X016760Y016410D01*
X017240Y016410D01*
X017240Y016772D01*
X017227Y016854D01*
X017201Y016933D01*
X017163Y017008D01*
X017114Y017075D01*
X017055Y017134D01*
X016988Y017183D01*
X016913Y017221D01*
X016760Y017224D02*
X016660Y017224D01*
X016660Y017259D02*
X016586Y017247D01*
X016507Y017221D01*
X016432Y017183D01*
X016365Y017134D01*
X016306Y017075D01*
X016257Y017008D01*
X016219Y016933D01*
X016193Y016854D01*
X016180Y016772D01*
X016180Y016410D01*
X016660Y016410D01*
X016660Y017259D01*
X016515Y017224D02*
X015086Y017224D01*
X015174Y017106D02*
X016336Y017106D01*
X016246Y016987D02*
X015223Y016987D01*
X015240Y016869D02*
X016198Y016869D01*
X016180Y016750D02*
X015240Y016750D01*
X015240Y016632D02*
X016180Y016632D01*
X016180Y016513D02*
X015240Y016513D01*
X015240Y016395D02*
X016660Y016395D01*
X016660Y016410D02*
X016660Y016310D01*
X016760Y016310D01*
X016760Y016410D01*
X016660Y016410D01*
X016660Y016310D02*
X016180Y016310D01*
X016180Y015948D01*
X016193Y015866D01*
X016219Y015787D01*
X016257Y015712D01*
X016306Y015645D01*
X016365Y015586D01*
X016432Y015537D01*
X016507Y015499D01*
X016586Y015473D01*
X016660Y015461D01*
X016660Y016310D01*
X016660Y016276D02*
X016760Y016276D01*
X016760Y016310D02*
X016760Y015461D01*
X016834Y015473D01*
X016913Y015499D01*
X016988Y015537D01*
X017055Y015586D01*
X017114Y015645D01*
X017163Y015712D01*
X017201Y015787D01*
X017227Y015866D01*
X017240Y015948D01*
X017240Y016310D01*
X016760Y016310D01*
X016760Y016395D02*
X022080Y016395D01*
X022080Y016513D02*
X017240Y016513D01*
X017240Y016632D02*
X018369Y016632D01*
X018378Y016630D02*
X019110Y016630D01*
X019110Y017110D01*
X017891Y017110D01*
X017903Y017036D01*
X017929Y016957D01*
X017967Y016882D01*
X018016Y016815D01*
X018075Y016756D01*
X018142Y016707D01*
X018217Y016669D01*
X018296Y016643D01*
X018378Y016630D01*
X018083Y016750D02*
X017240Y016750D01*
X017222Y016869D02*
X017977Y016869D01*
X017919Y016987D02*
X017174Y016987D01*
X017084Y017106D02*
X017892Y017106D01*
X017240Y016276D02*
X022080Y016276D01*
X022080Y016158D02*
X017240Y016158D01*
X017240Y016039D02*
X022080Y016039D01*
X022080Y015975D02*
X022168Y015761D01*
X022331Y015598D01*
X022545Y015510D01*
X022775Y015510D01*
X022989Y015598D01*
X023152Y015761D01*
X023240Y015975D01*
X023240Y016945D01*
X023152Y017159D01*
X022989Y017322D01*
X022775Y017410D01*
X022545Y017410D01*
X022331Y017322D01*
X022168Y017159D01*
X022080Y016945D01*
X022080Y015975D01*
X022102Y015921D02*
X017236Y015921D01*
X017206Y015802D02*
X022151Y015802D01*
X022246Y015684D02*
X017142Y015684D01*
X017027Y015565D02*
X022412Y015565D01*
X022908Y015565D02*
X024393Y015565D01*
X024365Y015586D02*
X024432Y015537D01*
X024507Y015499D01*
X024586Y015473D01*
X024660Y015461D01*
X024660Y016310D01*
X024760Y016310D01*
X024760Y016410D01*
X025240Y016410D01*
X025240Y016772D01*
X025227Y016854D01*
X025201Y016933D01*
X025163Y017008D01*
X025114Y017075D01*
X025055Y017134D01*
X024988Y017183D01*
X024913Y017221D01*
X024834Y017247D01*
X024760Y017259D01*
X024760Y016410D01*
X024660Y016410D01*
X024660Y017259D01*
X024586Y017247D01*
X024507Y017221D01*
X024432Y017183D01*
X024365Y017134D01*
X024306Y017075D01*
X024257Y017008D01*
X024219Y016933D01*
X024193Y016854D01*
X024180Y016772D01*
X024180Y016410D01*
X024660Y016410D01*
X024660Y016310D01*
X024180Y016310D01*
X024180Y015948D01*
X024193Y015866D01*
X024219Y015787D01*
X024257Y015712D01*
X024306Y015645D01*
X024365Y015586D01*
X024278Y015684D02*
X023074Y015684D01*
X023169Y015802D02*
X024214Y015802D01*
X024184Y015921D02*
X023218Y015921D01*
X023240Y016039D02*
X024180Y016039D01*
X024180Y016158D02*
X023240Y016158D01*
X023240Y016276D02*
X024180Y016276D01*
X024180Y016513D02*
X023240Y016513D01*
X023240Y016395D02*
X024660Y016395D01*
X024760Y016395D02*
X030080Y016395D01*
X030080Y016513D02*
X025240Y016513D01*
X025240Y016632D02*
X026369Y016632D01*
X026378Y016630D02*
X027110Y016630D01*
X027110Y017110D01*
X025891Y017110D01*
X025903Y017036D01*
X025929Y016957D01*
X025967Y016882D01*
X026016Y016815D01*
X026075Y016756D01*
X026142Y016707D01*
X026217Y016669D01*
X026296Y016643D01*
X026378Y016630D01*
X026083Y016750D02*
X025240Y016750D01*
X025222Y016869D02*
X025977Y016869D01*
X025919Y016987D02*
X025174Y016987D01*
X025084Y017106D02*
X025892Y017106D01*
X025894Y017224D02*
X024905Y017224D01*
X024760Y017224D02*
X024660Y017224D01*
X024660Y017106D02*
X024760Y017106D01*
X024760Y016987D02*
X024660Y016987D01*
X024660Y016869D02*
X024760Y016869D01*
X024760Y016750D02*
X024660Y016750D01*
X024660Y016632D02*
X024760Y016632D01*
X024760Y016513D02*
X024660Y016513D01*
X024760Y016310D02*
X025240Y016310D01*
X025240Y015948D01*
X025227Y015866D01*
X025201Y015787D01*
X025163Y015712D01*
X025114Y015645D01*
X025055Y015586D01*
X024988Y015537D01*
X024913Y015499D01*
X024834Y015473D01*
X024760Y015461D01*
X024760Y016310D01*
X024760Y016276D02*
X024660Y016276D01*
X024660Y016158D02*
X024760Y016158D01*
X024760Y016039D02*
X024660Y016039D01*
X024660Y015921D02*
X024760Y015921D01*
X024760Y015802D02*
X024660Y015802D01*
X024660Y015684D02*
X024760Y015684D01*
X024760Y015565D02*
X024660Y015565D01*
X025027Y015565D02*
X030412Y015565D01*
X030331Y015598D02*
X030545Y015510D01*
X030775Y015510D01*
X030989Y015598D01*
X031152Y015761D01*
X031240Y015975D01*
X031240Y016945D01*
X031152Y017159D01*
X030989Y017322D01*
X030775Y017410D01*
X030545Y017410D01*
X030331Y017322D01*
X030168Y017159D01*
X030080Y016945D01*
X030080Y015975D01*
X030168Y015761D01*
X030331Y015598D01*
X030246Y015684D02*
X025142Y015684D01*
X025206Y015802D02*
X030151Y015802D01*
X030102Y015921D02*
X025236Y015921D01*
X025240Y016039D02*
X030080Y016039D01*
X030080Y016158D02*
X025240Y016158D01*
X025240Y016276D02*
X030080Y016276D01*
X030080Y016632D02*
X029140Y016632D01*
X029310Y016750D02*
X030080Y016750D01*
X030080Y016869D02*
X029407Y016869D01*
X029860Y017160D02*
X029860Y017460D01*
X031510Y019110D01*
X031510Y019510D01*
X031890Y019357D02*
X031989Y019357D01*
X031818Y019239D02*
X033840Y019239D01*
X033840Y019120D02*
X031780Y019120D01*
X031757Y019002D02*
X033858Y019002D01*
X033907Y018883D02*
X031665Y018883D01*
X031546Y018765D02*
X033995Y018765D01*
X034086Y018646D02*
X031428Y018646D01*
X031309Y018528D02*
X033967Y018528D01*
X033895Y018409D02*
X031191Y018409D01*
X031072Y018291D02*
X033846Y018291D01*
X033840Y018172D02*
X030954Y018172D01*
X030835Y018054D02*
X033840Y018054D01*
X033885Y017935D02*
X030717Y017935D01*
X030598Y017817D02*
X033943Y017817D01*
X034062Y017698D02*
X030480Y017698D01*
X030361Y017580D02*
X034096Y017580D01*
X033984Y017461D02*
X030243Y017461D01*
X030130Y017343D02*
X030382Y017343D01*
X030234Y017224D02*
X030130Y017224D01*
X030130Y017106D02*
X030146Y017106D01*
X030097Y016987D02*
X030069Y016987D01*
X029860Y017160D02*
X028160Y017160D01*
X027653Y016869D02*
X027603Y016869D01*
X027497Y016750D02*
X027750Y016750D01*
X027920Y016632D02*
X027211Y016632D01*
X027210Y016632D02*
X027110Y016632D01*
X027110Y016750D02*
X027210Y016750D01*
X027210Y016869D02*
X027110Y016869D01*
X027110Y016987D02*
X027210Y016987D01*
X027210Y017106D02*
X027110Y017106D01*
X026096Y017580D02*
X022361Y017580D01*
X022480Y017698D02*
X026062Y017698D01*
X025943Y017817D02*
X022598Y017817D01*
X022717Y017935D02*
X025885Y017935D01*
X025840Y018054D02*
X022835Y018054D01*
X022954Y018172D02*
X025840Y018172D01*
X025846Y018291D02*
X023072Y018291D01*
X023191Y018409D02*
X025895Y018409D01*
X025967Y018528D02*
X023309Y018528D01*
X023428Y018646D02*
X026086Y018646D01*
X025995Y018765D02*
X023546Y018765D01*
X023665Y018883D02*
X025907Y018883D01*
X025858Y019002D02*
X023757Y019002D01*
X023780Y019120D02*
X025840Y019120D01*
X025840Y019239D02*
X023818Y019239D01*
X023890Y019357D02*
X023989Y019357D01*
X023510Y019510D02*
X023510Y019110D01*
X021860Y017460D01*
X021860Y017160D01*
X020160Y017160D01*
X019653Y016869D02*
X019603Y016869D01*
X019497Y016750D02*
X019750Y016750D01*
X019920Y016632D02*
X019211Y016632D01*
X019210Y016632D02*
X019110Y016632D01*
X019110Y016750D02*
X019210Y016750D01*
X019210Y016869D02*
X019110Y016869D01*
X019110Y016987D02*
X019210Y016987D01*
X019210Y017106D02*
X019110Y017106D01*
X021140Y016632D02*
X022080Y016632D01*
X022080Y016750D02*
X021310Y016750D01*
X021407Y016869D02*
X022080Y016869D01*
X022069Y016987D02*
X022097Y016987D01*
X022130Y017106D02*
X022146Y017106D01*
X022130Y017224D02*
X022234Y017224D01*
X022130Y017343D02*
X022382Y017343D01*
X022243Y017461D02*
X025984Y017461D01*
X025922Y017343D02*
X022938Y017343D01*
X023086Y017224D02*
X024515Y017224D01*
X024336Y017106D02*
X023174Y017106D01*
X023223Y016987D02*
X024246Y016987D01*
X024198Y016869D02*
X023240Y016869D01*
X023240Y016750D02*
X024180Y016750D01*
X024180Y016632D02*
X023240Y016632D01*
X021835Y017817D02*
X021377Y017817D01*
X021435Y017935D02*
X021953Y017935D01*
X022072Y018054D02*
X021480Y018054D01*
X021480Y018172D02*
X022190Y018172D01*
X022309Y018291D02*
X021474Y018291D01*
X021425Y018409D02*
X022427Y018409D01*
X022546Y018528D02*
X021353Y018528D01*
X021234Y018646D02*
X022664Y018646D01*
X022783Y018765D02*
X021325Y018765D01*
X021413Y018883D02*
X022901Y018883D01*
X022992Y019002D02*
X023020Y019002D01*
X023110Y019120D02*
X023138Y019120D01*
X023184Y019239D02*
X023202Y019239D01*
X022328Y019002D02*
X021462Y019002D01*
X021480Y019120D02*
X022210Y019120D01*
X022136Y019239D02*
X021480Y019239D01*
X021446Y019357D02*
X022087Y019357D01*
X022080Y019476D02*
X021397Y019476D01*
X021286Y019594D02*
X022080Y019594D01*
X022080Y019713D02*
X021082Y019713D01*
X020287Y020305D02*
X022080Y020305D01*
X022080Y020187D02*
X020168Y020187D01*
X020050Y020068D02*
X022080Y020068D01*
X022080Y019950D02*
X019931Y019950D01*
X019813Y019831D02*
X022080Y019831D01*
X022112Y020424D02*
X020405Y020424D01*
X020524Y020542D02*
X022161Y020542D01*
X022270Y020661D02*
X020642Y020661D01*
X020761Y020779D02*
X022470Y020779D01*
X022850Y020779D02*
X023359Y020779D01*
X023478Y020661D02*
X023050Y020661D01*
X023159Y020542D02*
X023596Y020542D01*
X023715Y020424D02*
X023208Y020424D01*
X023240Y020305D02*
X023833Y020305D01*
X023797Y020187D02*
X023240Y020187D01*
X023240Y020068D02*
X023748Y020068D01*
X023710Y019950D02*
X023240Y019950D01*
X023240Y019831D02*
X023251Y019831D01*
X024241Y020661D02*
X027879Y020661D01*
X027997Y020779D02*
X024123Y020779D01*
X024004Y020898D02*
X028116Y020898D01*
X028234Y021016D02*
X023886Y021016D01*
X023767Y021135D02*
X027043Y021135D01*
X026961Y021168D02*
X027175Y021080D01*
X028145Y021080D01*
X028359Y021168D01*
X028522Y021331D01*
X028610Y021545D01*
X028610Y021775D01*
X028522Y021989D01*
X028359Y022152D01*
X028145Y022240D01*
X027175Y022240D01*
X026961Y022152D01*
X026798Y021989D01*
X026710Y021775D01*
X026710Y021545D01*
X026798Y021331D01*
X026961Y021168D01*
X026877Y021253D02*
X023649Y021253D01*
X023484Y021372D02*
X026782Y021372D01*
X026733Y021490D02*
X020587Y021490D01*
X020610Y021545D02*
X020610Y021775D01*
X020522Y021989D01*
X020359Y022152D01*
X020145Y022240D01*
X019175Y022240D01*
X018961Y022152D01*
X018798Y021989D01*
X018710Y021775D01*
X018710Y021545D01*
X018798Y021331D01*
X018961Y021168D01*
X019175Y021080D01*
X020145Y021080D01*
X020359Y021168D01*
X020522Y021331D01*
X020610Y021545D01*
X020610Y021609D02*
X026710Y021609D01*
X026710Y021727D02*
X023962Y021727D01*
X023833Y021680D02*
X024158Y021798D01*
X024422Y022020D01*
X024422Y022020D01*
X024422Y022020D01*
X024595Y022320D01*
X024655Y022660D01*
X024595Y023000D01*
X024595Y023000D01*
X024422Y023300D01*
X024158Y023522D01*
X024158Y023522D01*
X023833Y023640D01*
X023487Y023640D01*
X023162Y023522D01*
X022898Y023300D01*
X022898Y023300D01*
X022725Y023000D01*
X022665Y022660D01*
X022725Y022320D01*
X022725Y022320D01*
X022898Y022020D01*
X023162Y021798D01*
X023162Y021798D01*
X023487Y021680D01*
X023710Y021680D01*
X023833Y021680D01*
X023833Y021680D01*
X024158Y021798D02*
X024158Y021798D01*
X024214Y021846D02*
X026739Y021846D01*
X026788Y021964D02*
X024355Y021964D01*
X024458Y022083D02*
X026892Y022083D01*
X027081Y022201D02*
X024527Y022201D01*
X024595Y022320D02*
X038725Y022320D01*
X038704Y022438D02*
X024616Y022438D01*
X024595Y022320D02*
X024595Y022320D01*
X024637Y022557D02*
X038683Y022557D01*
X038665Y022660D02*
X038665Y022660D01*
X038668Y022675D02*
X024652Y022675D01*
X024655Y022660D02*
X024655Y022660D01*
X024632Y022794D02*
X038688Y022794D01*
X038709Y022912D02*
X024611Y022912D01*
X024578Y023031D02*
X038742Y023031D01*
X038725Y023000D02*
X038725Y023000D01*
X038811Y023149D02*
X024509Y023149D01*
X024441Y023268D02*
X038879Y023268D01*
X038898Y023300D02*
X038898Y023300D01*
X039001Y023386D02*
X024319Y023386D01*
X024422Y023300D02*
X024422Y023300D01*
X024178Y023505D02*
X039142Y023505D01*
X039162Y023522D02*
X039162Y023522D01*
X039441Y023623D02*
X023879Y023623D01*
X023441Y023623D02*
X014380Y023623D01*
X014380Y023505D02*
X023142Y023505D01*
X023162Y023522D02*
X023162Y023522D01*
X023001Y023386D02*
X014380Y023386D01*
X014380Y023268D02*
X022879Y023268D01*
X022898Y023300D02*
X022898Y023300D01*
X022811Y023149D02*
X014380Y023149D01*
X014380Y023031D02*
X022742Y023031D01*
X022725Y023000D02*
X022725Y023000D01*
X022709Y022912D02*
X014380Y022912D01*
X014380Y022794D02*
X022688Y022794D01*
X022668Y022675D02*
X014380Y022675D01*
X014380Y022557D02*
X022683Y022557D01*
X022665Y022660D02*
X022665Y022660D01*
X022704Y022438D02*
X014380Y022438D01*
X014380Y022320D02*
X022725Y022320D01*
X022793Y022201D02*
X020239Y022201D01*
X020428Y022083D02*
X022862Y022083D01*
X022898Y022020D02*
X022898Y022020D01*
X022965Y021964D02*
X020532Y021964D01*
X020581Y021846D02*
X023106Y021846D01*
X023358Y021727D02*
X020610Y021727D01*
X020636Y021372D02*
X020538Y021372D01*
X020471Y021253D02*
X020443Y021253D01*
X020353Y021135D02*
X020277Y021135D01*
X020234Y021016D02*
X014584Y021016D01*
X014647Y020898D02*
X020116Y020898D01*
X019997Y020779D02*
X014850Y020779D01*
X015050Y020661D02*
X019879Y020661D01*
X019978Y019713D02*
X019342Y019713D01*
X019546Y019594D02*
X019774Y019594D01*
X019663Y019476D02*
X019657Y019476D01*
X019043Y021135D02*
X014427Y021135D01*
X014380Y021253D02*
X018877Y021253D01*
X018782Y021372D02*
X014380Y021372D01*
X014380Y021490D02*
X018733Y021490D01*
X018710Y021609D02*
X014380Y021609D01*
X014380Y021727D02*
X018710Y021727D01*
X018739Y021846D02*
X014380Y021846D01*
X014380Y021964D02*
X018788Y021964D01*
X018892Y022083D02*
X014380Y022083D01*
X014380Y022201D02*
X019081Y022201D01*
X014660Y019860D02*
X013210Y021310D01*
X013210Y032110D01*
X013160Y032160D01*
X014110Y032110D02*
X014160Y032160D01*
X014110Y032110D02*
X014110Y020910D01*
X014260Y020760D01*
X013176Y019713D02*
X013082Y019713D01*
X013286Y019594D02*
X013294Y019594D01*
X013397Y019476D02*
X013413Y019476D01*
X013446Y019357D02*
X013490Y019357D01*
X013480Y019239D02*
X013490Y019239D01*
X013480Y019120D02*
X013490Y019120D01*
X013490Y019002D02*
X013462Y019002D01*
X013490Y018883D02*
X013413Y018883D01*
X013490Y018765D02*
X013325Y018765D01*
X013234Y018646D02*
X013490Y018646D01*
X013490Y018528D02*
X013353Y018528D01*
X013425Y018409D02*
X013490Y018409D01*
X013490Y018291D02*
X013474Y018291D01*
X013480Y018172D02*
X013490Y018172D01*
X013480Y018054D02*
X013490Y018054D01*
X013490Y017935D02*
X013435Y017935D01*
X013490Y017817D02*
X013377Y017817D01*
X013490Y017698D02*
X013258Y017698D01*
X013301Y017580D02*
X013490Y017580D01*
X013490Y017461D02*
X013403Y017461D01*
X013452Y017343D02*
X013490Y017343D01*
X013480Y017224D02*
X013490Y017224D01*
X013480Y017106D02*
X013490Y017106D01*
X013490Y016987D02*
X013456Y016987D01*
X013490Y016869D02*
X013407Y016869D01*
X013490Y016750D02*
X013310Y016750D01*
X013140Y016632D02*
X013490Y016632D01*
X013490Y016513D02*
X010189Y016513D01*
X010307Y016395D02*
X013490Y016395D01*
X013490Y016276D02*
X010426Y016276D01*
X010544Y016158D02*
X013490Y016158D01*
X013490Y016039D02*
X010663Y016039D01*
X010781Y015921D02*
X013490Y015921D01*
X013490Y015802D02*
X010900Y015802D01*
X011018Y015684D02*
X013490Y015684D01*
X013490Y015565D02*
X011137Y015565D01*
X011255Y015447D02*
X013490Y015447D01*
X013490Y015328D02*
X011374Y015328D01*
X010847Y015091D02*
X000420Y015091D01*
X000420Y014973D02*
X010792Y014973D01*
X010743Y014854D02*
X000420Y014854D01*
X000420Y014736D02*
X010710Y014736D01*
X010710Y014617D02*
X000420Y014617D01*
X000420Y014499D02*
X010729Y014499D01*
X010778Y014380D02*
X000420Y014380D01*
X000420Y014262D02*
X010868Y014262D01*
X011022Y014143D02*
X000420Y014143D01*
X000420Y014025D02*
X013490Y014025D01*
X013490Y014143D02*
X012298Y014143D01*
X012452Y014262D02*
X013490Y014262D01*
X013490Y014380D02*
X012542Y014380D01*
X012591Y014499D02*
X013490Y014499D01*
X013490Y014617D02*
X012610Y014617D01*
X012610Y014736D02*
X013490Y014736D01*
X013490Y014854D02*
X012577Y014854D01*
X012528Y014973D02*
X013490Y014973D01*
X013490Y015091D02*
X012419Y015091D01*
X012219Y015210D02*
X013490Y015210D01*
X014030Y015210D02*
X019101Y015210D01*
X019175Y015240D02*
X018961Y015152D01*
X018798Y014989D01*
X018710Y014775D01*
X018710Y014545D01*
X018798Y014331D01*
X018961Y014168D01*
X019175Y014080D01*
X020145Y014080D01*
X020359Y014168D01*
X020522Y014331D01*
X020610Y014545D01*
X020610Y014775D01*
X020522Y014989D01*
X020359Y015152D01*
X020145Y015240D01*
X019175Y015240D01*
X018901Y015091D02*
X014030Y015091D01*
X014030Y014973D02*
X018792Y014973D01*
X018743Y014854D02*
X014030Y014854D01*
X014030Y014736D02*
X018710Y014736D01*
X018710Y014617D02*
X015896Y014617D01*
X015833Y014640D02*
X016158Y014522D01*
X016158Y014522D01*
X016422Y014300D01*
X016422Y014300D01*
X016595Y014000D01*
X016595Y014000D01*
X016655Y013660D01*
X016655Y013660D01*
X016595Y013320D01*
X016595Y013320D01*
X016422Y013020D01*
X016422Y013020D01*
X016422Y013020D01*
X016158Y012798D01*
X016158Y012798D01*
X015833Y012680D01*
X015610Y012680D01*
X015487Y012680D01*
X015162Y012798D01*
X014898Y013020D01*
X014898Y013020D01*
X014725Y013320D01*
X014725Y013320D01*
X014665Y013660D01*
X014665Y013660D01*
X014725Y014000D01*
X014725Y014000D01*
X014898Y014300D01*
X014898Y014300D01*
X015162Y014522D01*
X015162Y014522D01*
X015487Y014640D01*
X015833Y014640D01*
X016185Y014499D02*
X018729Y014499D01*
X018778Y014380D02*
X016327Y014380D01*
X016444Y014262D02*
X018868Y014262D01*
X019022Y014143D02*
X016513Y014143D01*
X016581Y014025D02*
X030739Y014025D01*
X030725Y014000D02*
X030725Y014000D01*
X030708Y013906D02*
X016612Y013906D01*
X016633Y013788D02*
X030687Y013788D01*
X030666Y013669D02*
X016654Y013669D01*
X016636Y013551D02*
X030684Y013551D01*
X030665Y013660D02*
X030665Y013660D01*
X030705Y013432D02*
X016615Y013432D01*
X016592Y013314D02*
X030728Y013314D01*
X030797Y013195D02*
X016523Y013195D01*
X016455Y013077D02*
X030865Y013077D01*
X030898Y013020D02*
X030898Y013020D01*
X030972Y012958D02*
X016348Y012958D01*
X016207Y012840D02*
X031113Y012840D01*
X031374Y012721D02*
X015946Y012721D01*
X015374Y012721D02*
X014030Y012721D01*
X014030Y012840D02*
X015113Y012840D01*
X014972Y012958D02*
X014030Y012958D01*
X014030Y013077D02*
X014865Y013077D01*
X014797Y013195D02*
X014030Y013195D01*
X014030Y013314D02*
X014728Y013314D01*
X014705Y013432D02*
X014030Y013432D01*
X014030Y013551D02*
X014684Y013551D01*
X014666Y013669D02*
X014030Y013669D01*
X014030Y013788D02*
X014687Y013788D01*
X014708Y013906D02*
X014030Y013906D01*
X014030Y014025D02*
X014739Y014025D01*
X014807Y014143D02*
X014030Y014143D01*
X014030Y014262D02*
X014876Y014262D01*
X014898Y014300D02*
X014898Y014300D01*
X014993Y014380D02*
X014030Y014380D01*
X014030Y014499D02*
X015135Y014499D01*
X015424Y014617D02*
X014030Y014617D01*
X014030Y015328D02*
X043946Y015328D01*
X043660Y014660D02*
X045810Y016810D01*
X045810Y017410D01*
X047510Y019110D01*
X046783Y018765D02*
X046080Y018765D01*
X046080Y018646D02*
X046664Y018646D01*
X046546Y018528D02*
X046080Y018528D01*
X046080Y018409D02*
X046427Y018409D01*
X046309Y018291D02*
X046080Y018291D01*
X046080Y018172D02*
X046190Y018172D01*
X046124Y017343D02*
X046382Y017343D01*
X046234Y017224D02*
X046080Y017224D01*
X046080Y017106D02*
X046146Y017106D01*
X046097Y016987D02*
X046080Y016987D01*
X046080Y016869D02*
X046080Y016869D01*
X046077Y016750D02*
X046080Y016750D01*
X046080Y016632D02*
X046013Y016632D01*
X046080Y016513D02*
X045895Y016513D01*
X045776Y016395D02*
X046080Y016395D01*
X046080Y016276D02*
X045658Y016276D01*
X045539Y016158D02*
X046080Y016158D01*
X046080Y016039D02*
X045421Y016039D01*
X045302Y015921D02*
X046102Y015921D01*
X046151Y015802D02*
X045184Y015802D01*
X045065Y015684D02*
X046246Y015684D01*
X046412Y015565D02*
X044947Y015565D01*
X045140Y016632D02*
X045250Y016632D01*
X045310Y016750D02*
X045368Y016750D01*
X045407Y016869D02*
X045487Y016869D01*
X045456Y016987D02*
X045540Y016987D01*
X045540Y017106D02*
X045480Y017106D01*
X045480Y017224D02*
X045540Y017224D01*
X043160Y019160D02*
X042410Y019910D01*
X042410Y031160D01*
X044160Y032910D01*
X044160Y033160D01*
X043580Y033103D02*
X038690Y033103D01*
X038690Y032985D02*
X043580Y032985D01*
X043634Y032866D02*
X038616Y032866D01*
X038497Y032748D02*
X043616Y032748D01*
X043497Y032629D02*
X038511Y032629D01*
X038630Y032511D02*
X043379Y032511D01*
X043260Y032392D02*
X038740Y032392D01*
X038740Y032274D02*
X043142Y032274D01*
X043023Y032155D02*
X038740Y032155D01*
X038740Y032037D02*
X042905Y032037D01*
X042786Y031918D02*
X038738Y031918D01*
X038802Y031800D02*
X042668Y031800D01*
X042549Y031681D02*
X038921Y031681D01*
X039039Y031563D02*
X042431Y031563D01*
X042312Y031444D02*
X039158Y031444D01*
X039276Y031326D02*
X042194Y031326D01*
X042140Y031207D02*
X039395Y031207D01*
X039513Y031089D02*
X042140Y031089D01*
X042140Y030970D02*
X039632Y030970D01*
X039750Y030852D02*
X042140Y030852D01*
X042140Y030733D02*
X039869Y030733D01*
X039987Y030615D02*
X042140Y030615D01*
X042140Y030496D02*
X040106Y030496D01*
X040224Y030378D02*
X042140Y030378D01*
X042140Y030259D02*
X040343Y030259D01*
X040461Y030141D02*
X042140Y030141D01*
X042140Y030022D02*
X040580Y030022D01*
X040698Y029904D02*
X042140Y029904D01*
X042140Y029785D02*
X040817Y029785D01*
X040935Y029667D02*
X042140Y029667D01*
X042140Y029548D02*
X041054Y029548D01*
X041172Y029430D02*
X042140Y029430D01*
X042140Y029311D02*
X041291Y029311D01*
X041409Y029193D02*
X042140Y029193D01*
X042140Y029074D02*
X041528Y029074D01*
X041646Y028956D02*
X042140Y028956D01*
X042140Y028837D02*
X041765Y028837D01*
X041883Y028719D02*
X042140Y028719D01*
X042140Y028600D02*
X042002Y028600D01*
X042120Y028482D02*
X042140Y028482D01*
X041910Y028310D02*
X038160Y032060D01*
X038160Y032160D01*
X037700Y031800D02*
X037620Y031800D01*
X037501Y031681D02*
X037819Y031681D01*
X036819Y031681D02*
X036501Y031681D01*
X036620Y031800D02*
X036700Y031800D01*
X035819Y031681D02*
X030501Y031681D01*
X030400Y031580D02*
X030740Y031920D01*
X030740Y032400D01*
X030445Y032695D01*
X030690Y032940D01*
X030690Y033120D01*
X030200Y033120D01*
X030200Y033200D01*
X030690Y033200D01*
X030690Y033380D01*
X030380Y033690D01*
X030200Y033690D01*
X030200Y033200D01*
X030120Y033200D01*
X030120Y033690D01*
X029940Y033690D01*
X029695Y033445D01*
X029400Y033740D01*
X028920Y033740D01*
X028660Y033480D01*
X028400Y033740D01*
X027920Y033740D01*
X027580Y033400D01*
X027580Y032920D01*
X027840Y032660D01*
X027580Y032400D01*
X027580Y031920D01*
X027920Y031580D01*
X028400Y031580D01*
X028660Y031840D01*
X028920Y031580D01*
X029400Y031580D01*
X029660Y031840D01*
X029920Y031580D01*
X030400Y031580D01*
X030620Y031800D02*
X035700Y031800D01*
X035582Y031918D02*
X030738Y031918D01*
X030740Y032037D02*
X035580Y032037D01*
X035580Y032155D02*
X030740Y032155D01*
X030740Y032274D02*
X035580Y032274D01*
X035580Y032392D02*
X030740Y032392D01*
X030630Y032511D02*
X035690Y032511D01*
X035809Y032629D02*
X030511Y032629D01*
X030497Y032748D02*
X035752Y032748D01*
X035634Y032866D02*
X030616Y032866D01*
X030690Y032985D02*
X035580Y032985D01*
X035580Y033103D02*
X030690Y033103D01*
X030690Y033222D02*
X035580Y033222D01*
X035580Y033340D02*
X030690Y033340D01*
X030611Y033459D02*
X035638Y033459D01*
X035757Y033577D02*
X030492Y033577D01*
X030200Y033577D02*
X030120Y033577D01*
X030120Y033459D02*
X030200Y033459D01*
X030200Y033340D02*
X030120Y033340D01*
X030120Y033222D02*
X030200Y033222D01*
X029828Y033577D02*
X029563Y033577D01*
X029445Y033696D02*
X035875Y033696D01*
X036445Y033696D02*
X036875Y033696D01*
X036757Y033577D02*
X036563Y033577D01*
X037445Y033696D02*
X043875Y033696D01*
X043757Y033577D02*
X038492Y033577D01*
X038611Y033459D02*
X043638Y033459D01*
X043580Y033340D02*
X038690Y033340D01*
X038690Y033222D02*
X043580Y033222D01*
X044445Y033696D02*
X044875Y033696D01*
X044757Y033577D02*
X044563Y033577D01*
X045090Y033814D02*
X012709Y033814D01*
X012806Y033696D02*
X012875Y033696D01*
X012460Y033710D02*
X012460Y033660D01*
X012460Y033710D02*
X011960Y033710D01*
X010210Y031960D01*
X010210Y019810D01*
X009560Y019160D01*
X009560Y016760D01*
X011660Y014660D01*
X010729Y015210D02*
X000420Y015210D01*
X000420Y015328D02*
X010610Y015328D01*
X010492Y015447D02*
X000420Y015447D01*
X000420Y015565D02*
X008393Y015565D01*
X008365Y015586D02*
X008432Y015537D01*
X008507Y015499D01*
X008586Y015473D01*
X008660Y015461D01*
X008660Y016310D01*
X008760Y016310D01*
X008760Y016410D01*
X009240Y016410D01*
X009240Y016772D01*
X009227Y016854D01*
X009201Y016933D01*
X009163Y017008D01*
X009114Y017075D01*
X009055Y017134D01*
X008988Y017183D01*
X008913Y017221D01*
X008834Y017247D01*
X008760Y017259D01*
X008760Y016410D01*
X008660Y016410D01*
X008660Y017259D01*
X008586Y017247D01*
X008507Y017221D01*
X008432Y017183D01*
X008365Y017134D01*
X008306Y017075D01*
X008257Y017008D01*
X008219Y016933D01*
X008193Y016854D01*
X008180Y016772D01*
X008180Y016410D01*
X008660Y016410D01*
X008660Y016310D01*
X008180Y016310D01*
X008180Y015948D01*
X008193Y015866D01*
X008219Y015787D01*
X008257Y015712D01*
X008306Y015645D01*
X008365Y015586D01*
X008278Y015684D02*
X000420Y015684D01*
X000420Y015802D02*
X008214Y015802D01*
X008184Y015921D02*
X000420Y015921D01*
X000420Y016039D02*
X008180Y016039D01*
X008180Y016158D02*
X000420Y016158D01*
X000420Y016276D02*
X008180Y016276D01*
X008180Y016513D02*
X000420Y016513D01*
X000420Y016395D02*
X008660Y016395D01*
X008760Y016395D02*
X009544Y016395D01*
X009425Y016513D02*
X009240Y016513D01*
X009240Y016632D02*
X009321Y016632D01*
X009290Y016750D02*
X009240Y016750D01*
X009222Y016869D02*
X009290Y016869D01*
X009290Y016987D02*
X009174Y016987D01*
X009084Y017106D02*
X009290Y017106D01*
X009290Y017224D02*
X008905Y017224D01*
X008760Y017224D02*
X008660Y017224D01*
X008660Y017106D02*
X008760Y017106D01*
X008760Y016987D02*
X008660Y016987D01*
X008660Y016869D02*
X008760Y016869D01*
X008760Y016750D02*
X008660Y016750D01*
X008660Y016632D02*
X008760Y016632D01*
X008760Y016513D02*
X008660Y016513D01*
X008760Y016310D02*
X009240Y016310D01*
X009240Y015948D01*
X009227Y015866D01*
X009201Y015787D01*
X009163Y015712D01*
X009114Y015645D01*
X009055Y015586D01*
X008988Y015537D01*
X008913Y015499D01*
X008834Y015473D01*
X008760Y015461D01*
X008760Y016310D01*
X008760Y016276D02*
X008660Y016276D01*
X008660Y016158D02*
X008760Y016158D01*
X008760Y016039D02*
X008660Y016039D01*
X008660Y015921D02*
X008760Y015921D01*
X008760Y015802D02*
X008660Y015802D01*
X008660Y015684D02*
X008760Y015684D01*
X008760Y015565D02*
X008660Y015565D01*
X009027Y015565D02*
X010373Y015565D01*
X010255Y015684D02*
X009142Y015684D01*
X009206Y015802D02*
X010136Y015802D01*
X010018Y015921D02*
X009236Y015921D01*
X009240Y016039D02*
X009899Y016039D01*
X009781Y016158D02*
X009240Y016158D01*
X009240Y016276D02*
X009662Y016276D01*
X010070Y016632D02*
X010369Y016632D01*
X010083Y016750D02*
X009952Y016750D01*
X009977Y016869D02*
X009833Y016869D01*
X009830Y016987D02*
X009919Y016987D01*
X009892Y017106D02*
X009830Y017106D01*
X009830Y017224D02*
X009894Y017224D01*
X009922Y017343D02*
X009830Y017343D01*
X009830Y017461D02*
X009984Y017461D01*
X010096Y017580D02*
X009830Y017580D01*
X009830Y017698D02*
X010062Y017698D01*
X009943Y017817D02*
X009830Y017817D01*
X009830Y017935D02*
X009885Y017935D01*
X009840Y018054D02*
X009830Y018054D01*
X009830Y018172D02*
X009840Y018172D01*
X009830Y018291D02*
X009846Y018291D01*
X009830Y018409D02*
X009895Y018409D01*
X009830Y018528D02*
X009967Y018528D01*
X010086Y018646D02*
X009830Y018646D01*
X009830Y018765D02*
X009995Y018765D01*
X009907Y018883D02*
X009830Y018883D01*
X009830Y019002D02*
X009858Y019002D01*
X009290Y019002D02*
X000420Y019002D01*
X000420Y019120D02*
X009290Y019120D01*
X009300Y019239D02*
X000420Y019239D01*
X000420Y019357D02*
X007989Y019357D01*
X007961Y019368D02*
X008175Y019280D01*
X009145Y019280D01*
X009359Y019368D01*
X009522Y019531D01*
X009610Y019745D01*
X009610Y019975D01*
X009522Y020189D01*
X009359Y020352D01*
X009145Y020440D01*
X008175Y020440D01*
X007961Y020352D01*
X007798Y020189D01*
X007710Y019975D01*
X007710Y019745D01*
X007798Y019531D01*
X007961Y019368D01*
X007854Y019476D02*
X000420Y019476D01*
X000420Y019594D02*
X007772Y019594D01*
X007723Y019713D02*
X000420Y019713D01*
X000420Y019831D02*
X007710Y019831D01*
X007710Y019950D02*
X000420Y019950D01*
X000420Y020068D02*
X007748Y020068D01*
X007797Y020187D02*
X000420Y020187D01*
X000420Y020305D02*
X007915Y020305D01*
X008135Y020424D02*
X000420Y020424D01*
X000420Y020542D02*
X009940Y020542D01*
X009940Y020424D02*
X009185Y020424D01*
X009405Y020305D02*
X009940Y020305D01*
X009940Y020187D02*
X009523Y020187D01*
X009572Y020068D02*
X009940Y020068D01*
X009940Y019950D02*
X009610Y019950D01*
X009610Y019831D02*
X009849Y019831D01*
X009731Y019713D02*
X009597Y019713D01*
X009612Y019594D02*
X009548Y019594D01*
X009494Y019476D02*
X009466Y019476D01*
X009375Y019357D02*
X009331Y019357D01*
X009290Y018883D02*
X000420Y018883D01*
X000420Y018765D02*
X009290Y018765D01*
X009290Y018646D02*
X000420Y018646D01*
X000420Y018528D02*
X009290Y018528D01*
X009290Y018409D02*
X000420Y018409D01*
X000420Y018291D02*
X009290Y018291D01*
X009290Y018172D02*
X000420Y018172D01*
X000420Y018054D02*
X009290Y018054D01*
X009290Y017935D02*
X000420Y017935D01*
X000420Y017817D02*
X009290Y017817D01*
X009290Y017698D02*
X000420Y017698D01*
X000420Y017580D02*
X009290Y017580D01*
X009290Y017461D02*
X000420Y017461D01*
X000420Y017343D02*
X009290Y017343D01*
X008515Y017224D02*
X000420Y017224D01*
X000420Y017106D02*
X008336Y017106D01*
X008246Y016987D02*
X000420Y016987D01*
X000420Y016869D02*
X008198Y016869D01*
X008180Y016750D02*
X000420Y016750D01*
X000420Y016632D02*
X008180Y016632D01*
X011110Y016632D02*
X011210Y016632D01*
X011211Y016632D02*
X011920Y016632D01*
X011750Y016750D02*
X011497Y016750D01*
X011603Y016869D02*
X011653Y016869D01*
X011210Y016869D02*
X011110Y016869D01*
X011110Y016987D02*
X011210Y016987D01*
X011210Y017106D02*
X011110Y017106D01*
X011110Y016750D02*
X011210Y016750D01*
X014360Y016760D02*
X014660Y016460D01*
X015240Y016276D02*
X016180Y016276D01*
X016180Y016158D02*
X015240Y016158D01*
X015240Y016039D02*
X016180Y016039D01*
X016184Y015921D02*
X015218Y015921D01*
X015169Y015802D02*
X016214Y015802D01*
X016278Y015684D02*
X015074Y015684D01*
X014908Y015565D02*
X016393Y015565D01*
X016660Y015565D02*
X016760Y015565D01*
X016760Y015684D02*
X016660Y015684D01*
X016660Y015802D02*
X016760Y015802D01*
X016760Y015921D02*
X016660Y015921D01*
X016660Y016039D02*
X016760Y016039D01*
X016760Y016158D02*
X016660Y016158D01*
X016660Y016513D02*
X016760Y016513D01*
X016760Y016632D02*
X016660Y016632D01*
X016660Y016750D02*
X016760Y016750D01*
X016760Y016869D02*
X016660Y016869D01*
X016660Y016987D02*
X016760Y016987D01*
X016760Y017106D02*
X016660Y017106D01*
X014328Y019002D02*
X014230Y019002D01*
X013760Y019510D02*
X011660Y021610D01*
X011660Y021660D01*
X011043Y021135D02*
X010680Y021135D01*
X010680Y021253D02*
X010877Y021253D01*
X010782Y021372D02*
X010680Y021372D01*
X010680Y021490D02*
X010733Y021490D01*
X010710Y021609D02*
X010680Y021609D01*
X010680Y021727D02*
X010710Y021727D01*
X010680Y021846D02*
X010739Y021846D01*
X010788Y021964D02*
X010680Y021964D01*
X010680Y022083D02*
X010892Y022083D01*
X011081Y022201D02*
X010680Y022201D01*
X009940Y022201D02*
X000420Y022201D01*
X000420Y022083D02*
X009940Y022083D01*
X009940Y021964D02*
X000420Y021964D01*
X000420Y021846D02*
X009940Y021846D01*
X009940Y021727D02*
X000420Y021727D01*
X000420Y021609D02*
X009940Y021609D01*
X009940Y021490D02*
X000420Y021490D01*
X000420Y021372D02*
X009940Y021372D01*
X009940Y021253D02*
X000420Y021253D01*
X000420Y021135D02*
X009940Y021135D01*
X009940Y021016D02*
X000420Y021016D01*
X000420Y020898D02*
X009940Y020898D01*
X009940Y020779D02*
X000420Y020779D01*
X000420Y020661D02*
X009940Y020661D01*
X010410Y019910D02*
X011160Y019160D01*
X011546Y019594D02*
X011774Y019594D01*
X011663Y019476D02*
X011657Y019476D01*
X011342Y019713D02*
X011978Y019713D01*
X013760Y019510D02*
X013760Y010610D01*
X011660Y008510D01*
X011948Y008218D02*
X051784Y008218D01*
X051722Y008337D02*
X012032Y008337D01*
X012070Y008455D02*
X051701Y008455D01*
X051680Y008574D02*
X012105Y008574D01*
X012224Y008692D02*
X051671Y008692D01*
X051665Y008660D02*
X051665Y008660D01*
X051691Y008811D02*
X012342Y008811D01*
X012461Y008929D02*
X051712Y008929D01*
X051725Y009000D02*
X051725Y009000D01*
X051752Y009048D02*
X012579Y009048D01*
X012698Y009166D02*
X051821Y009166D01*
X051889Y009285D02*
X012816Y009285D01*
X012935Y009403D02*
X052021Y009403D01*
X051898Y009300D02*
X051898Y009300D01*
X052162Y009522D02*
X013053Y009522D01*
X012645Y009877D02*
X000420Y009877D01*
X000420Y009759D02*
X012527Y009759D01*
X012408Y009640D02*
X000420Y009640D01*
X000420Y009522D02*
X001162Y009522D01*
X000898Y009300D01*
X000898Y009300D01*
X000725Y009000D01*
X000665Y008660D01*
X000725Y008320D01*
X000725Y008320D01*
X000898Y008020D01*
X001162Y007798D01*
X001162Y007798D01*
X001487Y007680D01*
X001710Y007680D01*
X001833Y007680D01*
X002158Y007798D01*
X002422Y008020D01*
X002422Y008020D01*
X002422Y008020D01*
X002595Y008320D01*
X002655Y008660D01*
X002595Y009000D01*
X002595Y009000D01*
X002422Y009300D01*
X002158Y009522D01*
X002158Y009522D01*
X001833Y009640D01*
X001487Y009640D01*
X001162Y009522D01*
X001162Y009522D01*
X001021Y009403D02*
X000420Y009403D01*
X000420Y009285D02*
X000889Y009285D01*
X000898Y009300D02*
X000898Y009300D01*
X000821Y009166D02*
X000420Y009166D01*
X000420Y009048D02*
X000752Y009048D01*
X000725Y009000D02*
X000725Y009000D01*
X000712Y008929D02*
X000420Y008929D01*
X000420Y008811D02*
X000691Y008811D01*
X000671Y008692D02*
X000420Y008692D01*
X000420Y008574D02*
X000680Y008574D01*
X000665Y008660D02*
X000665Y008660D01*
X000701Y008455D02*
X000420Y008455D01*
X000420Y008337D02*
X000722Y008337D01*
X000784Y008218D02*
X000420Y008218D01*
X000420Y008100D02*
X000852Y008100D01*
X000898Y008020D02*
X000898Y008020D01*
X000945Y007981D02*
X000420Y007981D01*
X000420Y007863D02*
X001086Y007863D01*
X001311Y007744D02*
X000420Y007744D01*
X001833Y007680D02*
X001833Y007680D01*
X002009Y007744D02*
X052311Y007744D01*
X052086Y007863D02*
X002234Y007863D01*
X002158Y007798D02*
X002158Y007798D01*
X002375Y007981D02*
X051945Y007981D01*
X051898Y008020D02*
X051898Y008020D01*
X051852Y008100D02*
X002468Y008100D01*
X002536Y008218D02*
X011372Y008218D01*
X011288Y008337D02*
X002598Y008337D01*
X002595Y008320D02*
X002595Y008320D01*
X002619Y008455D02*
X011250Y008455D01*
X011250Y008574D02*
X002640Y008574D01*
X002655Y008660D02*
X002655Y008660D01*
X002649Y008692D02*
X011292Y008692D01*
X011381Y008811D02*
X002629Y008811D01*
X002608Y008929D02*
X011697Y008929D01*
X011816Y009048D02*
X002568Y009048D01*
X002499Y009166D02*
X011934Y009166D01*
X012053Y009285D02*
X002431Y009285D01*
X002422Y009300D02*
X002422Y009300D01*
X002299Y009403D02*
X012171Y009403D01*
X012290Y009522D02*
X002158Y009522D01*
X000420Y009996D02*
X012764Y009996D01*
X012882Y010114D02*
X000420Y010114D01*
X000420Y010233D02*
X013001Y010233D01*
X013119Y010351D02*
X000420Y010351D01*
X000420Y010470D02*
X013238Y010470D01*
X013356Y010588D02*
X000420Y010588D01*
X000420Y010707D02*
X013475Y010707D01*
X013490Y010825D02*
X000420Y010825D01*
X000420Y010944D02*
X013490Y010944D01*
X013490Y011062D02*
X000420Y011062D01*
X000420Y011181D02*
X013490Y011181D01*
X013490Y011299D02*
X000420Y011299D01*
X000420Y011418D02*
X013490Y011418D01*
X013490Y011536D02*
X000420Y011536D01*
X000420Y011655D02*
X013490Y011655D01*
X013490Y011773D02*
X000420Y011773D01*
X000420Y011892D02*
X013490Y011892D01*
X013490Y012010D02*
X000420Y012010D01*
X000420Y012129D02*
X013490Y012129D01*
X013490Y012247D02*
X000420Y012247D01*
X000420Y012366D02*
X013490Y012366D01*
X013490Y012484D02*
X000420Y012484D01*
X000420Y012603D02*
X013490Y012603D01*
X013490Y012721D02*
X000420Y012721D01*
X000420Y012840D02*
X013490Y012840D01*
X013490Y012958D02*
X000420Y012958D01*
X000420Y013077D02*
X013490Y013077D01*
X013490Y013195D02*
X000420Y013195D01*
X000420Y013314D02*
X013490Y013314D01*
X013490Y013432D02*
X000420Y013432D01*
X000420Y013551D02*
X013490Y013551D01*
X013490Y013669D02*
X000420Y013669D01*
X000420Y013788D02*
X013490Y013788D01*
X013490Y013906D02*
X000420Y013906D01*
X000420Y022320D02*
X009940Y022320D01*
X009940Y022438D02*
X000420Y022438D01*
X000420Y022557D02*
X009940Y022557D01*
X009940Y022675D02*
X000420Y022675D01*
X000420Y022794D02*
X009940Y022794D01*
X009940Y022912D02*
X000420Y022912D01*
X000420Y023031D02*
X009940Y023031D01*
X009940Y023149D02*
X000420Y023149D01*
X000420Y023268D02*
X009940Y023268D01*
X009940Y023386D02*
X000420Y023386D01*
X000420Y023505D02*
X009940Y023505D01*
X009940Y023623D02*
X000420Y023623D01*
X000420Y023742D02*
X009940Y023742D01*
X009940Y023860D02*
X000420Y023860D01*
X000420Y023979D02*
X009940Y023979D01*
X009940Y024097D02*
X000420Y024097D01*
X000420Y024216D02*
X009940Y024216D01*
X009940Y024334D02*
X000420Y024334D01*
X000420Y024453D02*
X009940Y024453D01*
X009940Y024571D02*
X000420Y024571D01*
X000420Y024690D02*
X009940Y024690D01*
X009940Y024808D02*
X000420Y024808D01*
X000420Y024927D02*
X009940Y024927D01*
X009940Y025045D02*
X000420Y025045D01*
X000420Y025164D02*
X009940Y025164D01*
X009940Y025282D02*
X000420Y025282D01*
X000420Y025401D02*
X009940Y025401D01*
X009940Y025519D02*
X000420Y025519D01*
X000420Y025638D02*
X009940Y025638D01*
X009940Y025756D02*
X000420Y025756D01*
X000420Y025875D02*
X009940Y025875D01*
X009940Y025993D02*
X000420Y025993D01*
X000420Y026112D02*
X009940Y026112D01*
X009940Y026230D02*
X001970Y026230D01*
X001833Y026180D02*
X002158Y026298D01*
X002422Y026520D01*
X002422Y026520D01*
X002422Y026520D01*
X002595Y026820D01*
X002655Y027160D01*
X002595Y027500D01*
X002595Y027500D01*
X002422Y027800D01*
X002158Y028022D01*
X001833Y028140D01*
X001487Y028140D01*
X001162Y028022D01*
X000898Y027800D01*
X000898Y027800D01*
X000725Y027500D01*
X000665Y027160D01*
X000725Y026820D01*
X000725Y026820D01*
X000898Y026520D01*
X001162Y026298D01*
X001162Y026298D01*
X001487Y026180D01*
X001610Y026180D01*
X001833Y026180D01*
X002158Y026298D02*
X002158Y026298D01*
X002218Y026349D02*
X009940Y026349D01*
X009940Y026467D02*
X002359Y026467D01*
X002460Y026586D02*
X009940Y026586D01*
X009940Y026704D02*
X002528Y026704D01*
X002595Y026820D02*
X002595Y026820D01*
X002596Y026823D02*
X009940Y026823D01*
X009940Y026941D02*
X002617Y026941D01*
X002637Y027060D02*
X009940Y027060D01*
X009940Y027178D02*
X002652Y027178D01*
X002655Y027160D02*
X002655Y027160D01*
X002631Y027297D02*
X009940Y027297D01*
X009940Y027415D02*
X002610Y027415D01*
X002576Y027534D02*
X009940Y027534D01*
X009940Y027652D02*
X002508Y027652D01*
X002439Y027771D02*
X009940Y027771D01*
X009940Y027889D02*
X002316Y027889D01*
X002422Y027800D02*
X002422Y027800D01*
X002175Y028008D02*
X009940Y028008D01*
X009940Y028126D02*
X001871Y028126D01*
X001449Y028126D02*
X000420Y028126D01*
X000420Y028008D02*
X001145Y028008D01*
X001162Y028022D02*
X001162Y028022D01*
X001004Y027889D02*
X000420Y027889D01*
X000420Y027771D02*
X000881Y027771D01*
X000898Y027800D02*
X000898Y027800D01*
X000812Y027652D02*
X000420Y027652D01*
X000420Y027534D02*
X000744Y027534D01*
X000725Y027500D02*
X000725Y027500D01*
X000710Y027415D02*
X000420Y027415D01*
X000420Y027297D02*
X000689Y027297D01*
X000668Y027178D02*
X000420Y027178D01*
X000420Y027060D02*
X000683Y027060D01*
X000665Y027160D02*
X000665Y027160D01*
X000703Y026941D02*
X000420Y026941D01*
X000420Y026823D02*
X000724Y026823D01*
X000792Y026704D02*
X000420Y026704D01*
X000420Y026586D02*
X000860Y026586D01*
X000898Y026520D02*
X000898Y026520D01*
X000961Y026467D02*
X000420Y026467D01*
X000420Y026349D02*
X001102Y026349D01*
X001350Y026230D02*
X000420Y026230D01*
X000420Y028245D02*
X009940Y028245D01*
X009940Y028363D02*
X000420Y028363D01*
X000420Y028482D02*
X009940Y028482D01*
X009940Y028600D02*
X000420Y028600D01*
X000420Y028719D02*
X004791Y028719D01*
X004759Y028727D02*
X005023Y028656D01*
X005297Y028656D01*
X005561Y028727D01*
X005799Y028864D01*
X005992Y029058D01*
X006129Y029295D01*
X006200Y029559D01*
X006200Y029833D01*
X006129Y030098D01*
X005992Y030335D01*
X005799Y030528D01*
X005561Y030665D01*
X005297Y030736D01*
X005023Y030736D01*
X004759Y030665D01*
X004566Y030554D01*
X004577Y030576D01*
X004613Y030678D01*
X004637Y030785D01*
X004648Y030887D01*
X003739Y030887D01*
X003739Y029978D01*
X003842Y029990D01*
X003948Y030014D01*
X004051Y030050D01*
X004149Y030097D01*
X004214Y030138D01*
X004191Y030098D01*
X004120Y029833D01*
X004120Y029559D01*
X004191Y029295D01*
X004328Y029058D01*
X004521Y028864D01*
X004759Y028727D01*
X004568Y028837D02*
X000420Y028837D01*
X000420Y028956D02*
X004430Y028956D01*
X004318Y029074D02*
X000420Y029074D01*
X000420Y029193D02*
X004250Y029193D01*
X004187Y029311D02*
X000420Y029311D01*
X000420Y029430D02*
X004155Y029430D01*
X004123Y029548D02*
X000420Y029548D01*
X000420Y029667D02*
X004120Y029667D01*
X004120Y029785D02*
X000420Y029785D01*
X000420Y029904D02*
X004139Y029904D01*
X004171Y030022D02*
X003971Y030022D01*
X003739Y030022D02*
X003619Y030022D01*
X003619Y029978D02*
X003619Y030887D01*
X003739Y030887D01*
X003739Y031007D01*
X004648Y031007D01*
X004637Y031110D01*
X004613Y031216D01*
X004577Y031319D01*
X004529Y031417D01*
X004471Y031510D01*
X004403Y031595D01*
X004326Y031672D01*
X004241Y031740D01*
X004149Y031798D01*
X004051Y031845D01*
X003948Y031881D01*
X003842Y031905D01*
X003739Y031917D01*
X003739Y031007D01*
X003619Y031007D01*
X003619Y030887D01*
X002710Y030887D01*
X002721Y030785D01*
X002745Y030678D01*
X002781Y030576D01*
X002829Y030477D01*
X002887Y030385D01*
X002955Y030300D01*
X003032Y030223D01*
X003117Y030155D01*
X003209Y030097D01*
X003307Y030050D01*
X003410Y030014D01*
X003516Y029990D01*
X003619Y029978D01*
X003619Y030141D02*
X003739Y030141D01*
X003739Y030259D02*
X003619Y030259D01*
X003619Y030378D02*
X003739Y030378D01*
X003739Y030496D02*
X003619Y030496D01*
X003619Y030615D02*
X003739Y030615D01*
X003739Y030733D02*
X003619Y030733D01*
X003619Y030852D02*
X003739Y030852D01*
X003739Y030970D02*
X009940Y030970D01*
X009940Y030852D02*
X004644Y030852D01*
X004625Y030733D02*
X005011Y030733D01*
X005309Y030733D02*
X009940Y030733D01*
X009940Y030615D02*
X005649Y030615D01*
X005831Y030496D02*
X009940Y030496D01*
X009940Y030378D02*
X005949Y030378D01*
X006036Y030259D02*
X009940Y030259D01*
X009940Y030141D02*
X006104Y030141D01*
X006149Y030022D02*
X009940Y030022D01*
X009940Y029904D02*
X006181Y029904D01*
X006200Y029785D02*
X009940Y029785D01*
X009940Y029667D02*
X006200Y029667D01*
X006197Y029548D02*
X009940Y029548D01*
X009940Y029430D02*
X006165Y029430D01*
X006133Y029311D02*
X009940Y029311D01*
X009940Y029193D02*
X006070Y029193D01*
X006002Y029074D02*
X009940Y029074D01*
X009940Y028956D02*
X005890Y028956D01*
X005752Y028837D02*
X009940Y028837D01*
X009940Y028719D02*
X005529Y028719D01*
X003387Y030022D02*
X000420Y030022D01*
X000420Y030141D02*
X003140Y030141D01*
X002996Y030259D02*
X000420Y030259D01*
X000420Y030378D02*
X002893Y030378D01*
X002820Y030496D02*
X000420Y030496D01*
X000420Y030615D02*
X002768Y030615D01*
X002733Y030733D02*
X000420Y030733D01*
X000420Y030852D02*
X002714Y030852D01*
X002710Y031007D02*
X003619Y031007D01*
X003619Y031917D01*
X003516Y031905D01*
X003410Y031881D01*
X003307Y031845D01*
X003209Y031798D01*
X003117Y031740D01*
X003032Y031672D01*
X002955Y031595D01*
X002887Y031510D01*
X002829Y031417D01*
X002781Y031319D01*
X002745Y031216D01*
X002721Y031110D01*
X002710Y031007D01*
X002719Y031089D02*
X000420Y031089D01*
X000420Y031207D02*
X002743Y031207D01*
X002785Y031326D02*
X000420Y031326D01*
X000420Y031444D02*
X002846Y031444D01*
X002929Y031563D02*
X000420Y031563D01*
X000420Y031681D02*
X001484Y031681D01*
X001487Y031680D02*
X001610Y031680D01*
X001833Y031680D01*
X002158Y031798D01*
X002422Y032020D01*
X002422Y032020D01*
X002422Y032020D01*
X002595Y032320D01*
X002655Y032660D01*
X002595Y033000D01*
X002595Y033000D01*
X002422Y033300D01*
X002158Y033522D01*
X002158Y033522D01*
X001833Y033640D01*
X001487Y033640D01*
X001162Y033522D01*
X000898Y033300D01*
X000898Y033300D01*
X000725Y033000D01*
X000665Y032660D01*
X000725Y032320D01*
X000898Y032020D01*
X001162Y031798D01*
X001162Y031798D01*
X001487Y031680D01*
X001161Y031800D02*
X000420Y031800D01*
X000420Y031918D02*
X001020Y031918D01*
X000898Y032020D02*
X000898Y032020D01*
X000888Y032037D02*
X000420Y032037D01*
X000420Y032155D02*
X000820Y032155D01*
X000752Y032274D02*
X000420Y032274D01*
X000420Y032392D02*
X000712Y032392D01*
X000691Y032511D02*
X000420Y032511D01*
X000420Y032629D02*
X000670Y032629D01*
X000665Y032660D02*
X000665Y032660D01*
X000680Y032748D02*
X000420Y032748D01*
X000420Y032866D02*
X000701Y032866D01*
X000722Y032985D02*
X000420Y032985D01*
X000420Y033103D02*
X000784Y033103D01*
X000725Y033000D02*
X000725Y033000D01*
X000853Y033222D02*
X000425Y033222D01*
X000450Y033340D02*
X000946Y033340D01*
X000898Y033300D02*
X000898Y033300D01*
X001087Y033459D02*
X000489Y033459D01*
X000560Y033577D02*
X001314Y033577D01*
X001162Y033522D02*
X001162Y033522D01*
X000817Y033814D02*
X011682Y033814D01*
X011564Y033696D02*
X000654Y033696D01*
X002006Y033577D02*
X011445Y033577D01*
X011327Y033459D02*
X005558Y033459D01*
X005522Y033476D02*
X005419Y033512D01*
X005313Y033536D01*
X005210Y033548D01*
X005210Y032639D01*
X005090Y032639D01*
X005090Y033548D01*
X004987Y033536D01*
X004881Y033512D01*
X004778Y033476D01*
X004680Y033429D01*
X004588Y033371D01*
X004503Y033303D01*
X004426Y033226D01*
X004358Y033141D01*
X004300Y033048D01*
X004252Y032950D01*
X004216Y032847D01*
X004192Y032741D01*
X004181Y032639D01*
X005090Y032639D01*
X005090Y032519D01*
X004181Y032519D01*
X004192Y032416D01*
X004216Y032310D01*
X004252Y032207D01*
X004300Y032109D01*
X004358Y032016D01*
X004426Y031931D01*
X004503Y031854D01*
X004588Y031786D01*
X004680Y031728D01*
X004778Y031681D01*
X004315Y031681D01*
X004429Y031563D02*
X009940Y031563D01*
X009940Y031681D02*
X005522Y031681D01*
X005620Y031728D01*
X005712Y031786D01*
X005797Y031854D01*
X005874Y031931D01*
X005942Y032016D01*
X006000Y032109D01*
X006048Y032207D01*
X006084Y032310D01*
X006108Y032416D01*
X006119Y032519D01*
X005210Y032519D01*
X005210Y032639D01*
X006119Y032639D01*
X006108Y032741D01*
X006084Y032847D01*
X006048Y032950D01*
X006000Y033048D01*
X005942Y033141D01*
X005874Y033226D01*
X005797Y033303D01*
X005712Y033371D01*
X005620Y033429D01*
X005522Y033476D01*
X005751Y033340D02*
X011208Y033340D01*
X011090Y033222D02*
X005878Y033222D01*
X005966Y033103D02*
X010971Y033103D01*
X010853Y032985D02*
X006031Y032985D01*
X006077Y032866D02*
X010734Y032866D01*
X010616Y032748D02*
X006106Y032748D01*
X006118Y032511D02*
X010379Y032511D01*
X010497Y032629D02*
X005210Y032629D01*
X005210Y032518D02*
X005210Y031609D01*
X005313Y031621D01*
X005419Y031645D01*
X005522Y031681D01*
X005729Y031800D02*
X009940Y031800D01*
X009940Y031918D02*
X005861Y031918D01*
X005955Y032037D02*
X009949Y032037D01*
X010023Y032155D02*
X006023Y032155D01*
X006071Y032274D02*
X010142Y032274D01*
X010260Y032392D02*
X006102Y032392D01*
X005210Y032392D02*
X005090Y032392D01*
X005090Y032274D02*
X005210Y032274D01*
X005210Y032155D02*
X005090Y032155D01*
X005090Y032037D02*
X005210Y032037D01*
X005210Y031918D02*
X005090Y031918D01*
X005090Y031800D02*
X005210Y031800D01*
X005210Y031681D02*
X005090Y031681D01*
X005090Y031609D02*
X005090Y032518D01*
X005210Y032518D01*
X005210Y032511D02*
X005090Y032511D01*
X005090Y032629D02*
X002650Y032629D01*
X002655Y032660D02*
X002655Y032660D01*
X002640Y032748D02*
X004194Y032748D01*
X004223Y032866D02*
X002619Y032866D01*
X002598Y032985D02*
X004269Y032985D01*
X004334Y033103D02*
X002536Y033103D01*
X002467Y033222D02*
X004422Y033222D01*
X004549Y033340D02*
X002374Y033340D01*
X002422Y033300D02*
X002422Y033300D01*
X002233Y033459D02*
X004742Y033459D01*
X005090Y033459D02*
X005210Y033459D01*
X005210Y033340D02*
X005090Y033340D01*
X005090Y033222D02*
X005210Y033222D01*
X005210Y033103D02*
X005090Y033103D01*
X005090Y032985D02*
X005210Y032985D01*
X005210Y032866D02*
X005090Y032866D01*
X005090Y032748D02*
X005210Y032748D01*
X004182Y032511D02*
X002629Y032511D01*
X002608Y032392D02*
X004198Y032392D01*
X004229Y032274D02*
X002568Y032274D01*
X002595Y032320D02*
X002595Y032320D01*
X002500Y032155D02*
X004277Y032155D01*
X004345Y032037D02*
X002432Y032037D01*
X002300Y031918D02*
X004439Y031918D01*
X004571Y031800D02*
X004145Y031800D01*
X003739Y031800D02*
X003619Y031800D01*
X003619Y031681D02*
X003739Y031681D01*
X003739Y031563D02*
X003619Y031563D01*
X003619Y031444D02*
X003739Y031444D01*
X003739Y031326D02*
X003619Y031326D01*
X003619Y031207D02*
X003739Y031207D01*
X003739Y031089D02*
X003619Y031089D01*
X003619Y030970D02*
X000420Y030970D01*
X001836Y031681D02*
X003043Y031681D01*
X003213Y031800D02*
X002159Y031800D01*
X002158Y031798D02*
X002158Y031798D01*
X004513Y031444D02*
X009940Y031444D01*
X009940Y031326D02*
X004574Y031326D01*
X004615Y031207D02*
X009940Y031207D01*
X009940Y031089D02*
X004639Y031089D01*
X004881Y031645D02*
X004987Y031621D01*
X005090Y031609D01*
X004881Y031645D02*
X004778Y031681D01*
X004671Y030615D02*
X004590Y030615D01*
X014120Y033222D02*
X014200Y033222D01*
X014200Y033340D02*
X014120Y033340D01*
X014120Y033459D02*
X014200Y033459D01*
X014200Y033577D02*
X014120Y033577D01*
X020445Y033696D02*
X020875Y033696D01*
X020757Y033577D02*
X020563Y033577D01*
X021445Y033696D02*
X027875Y033696D01*
X027757Y033577D02*
X022492Y033577D01*
X022611Y033459D02*
X027638Y033459D01*
X027580Y033340D02*
X022690Y033340D01*
X022690Y033222D02*
X027580Y033222D01*
X027580Y033103D02*
X022690Y033103D01*
X022690Y032985D02*
X027580Y032985D01*
X027634Y032866D02*
X022616Y032866D01*
X022497Y032748D02*
X027752Y032748D01*
X027809Y032629D02*
X022511Y032629D01*
X022630Y032511D02*
X027690Y032511D01*
X027580Y032392D02*
X022740Y032392D01*
X022740Y032274D02*
X027580Y032274D01*
X027580Y032155D02*
X022740Y032155D01*
X022740Y032037D02*
X027580Y032037D01*
X027582Y031918D02*
X022738Y031918D01*
X022620Y031800D02*
X027700Y031800D01*
X027819Y031681D02*
X022501Y031681D01*
X021819Y031681D02*
X021501Y031681D01*
X021620Y031800D02*
X021700Y031800D01*
X020819Y031681D02*
X020501Y031681D01*
X020620Y031800D02*
X020700Y031800D01*
X021682Y033459D02*
X021709Y033459D01*
X021828Y033577D02*
X021563Y033577D01*
X022120Y033577D02*
X022200Y033577D01*
X022200Y033459D02*
X022120Y033459D01*
X022120Y033340D02*
X022200Y033340D01*
X022200Y033222D02*
X022120Y033222D01*
X028445Y033696D02*
X028875Y033696D01*
X028757Y033577D02*
X028563Y033577D01*
X029682Y033459D02*
X029709Y033459D01*
X029700Y031800D02*
X029620Y031800D01*
X029501Y031681D02*
X029819Y031681D01*
X028819Y031681D02*
X028501Y031681D01*
X028620Y031800D02*
X028700Y031800D01*
X037563Y033577D02*
X037828Y033577D01*
X037709Y033459D02*
X037682Y033459D01*
X038120Y033459D02*
X038200Y033459D01*
X038200Y033577D02*
X038120Y033577D01*
X038120Y033340D02*
X038200Y033340D01*
X038200Y033222D02*
X038120Y033222D01*
X041910Y028310D02*
X041910Y019510D01*
X041560Y019160D01*
X041560Y019010D01*
X039610Y019010D01*
X037860Y017260D01*
X037860Y017160D01*
X036160Y017160D01*
X035653Y016869D02*
X035603Y016869D01*
X035497Y016750D02*
X035750Y016750D01*
X035920Y016632D02*
X035211Y016632D01*
X035210Y016632D02*
X035110Y016632D01*
X035110Y016750D02*
X035210Y016750D01*
X035210Y016869D02*
X035110Y016869D01*
X035110Y016987D02*
X035210Y016987D01*
X035210Y017106D02*
X035110Y017106D01*
X034369Y016632D02*
X033240Y016632D01*
X033240Y016750D02*
X034083Y016750D01*
X033977Y016869D02*
X033222Y016869D01*
X033227Y016854D02*
X033201Y016933D01*
X033163Y017008D01*
X033114Y017075D01*
X033055Y017134D01*
X032988Y017183D01*
X032913Y017221D01*
X032834Y017247D01*
X032760Y017259D01*
X032760Y016410D01*
X033240Y016410D01*
X033240Y016772D01*
X033227Y016854D01*
X033174Y016987D02*
X033919Y016987D01*
X033892Y017106D02*
X033084Y017106D01*
X032905Y017224D02*
X033894Y017224D01*
X033922Y017343D02*
X030938Y017343D01*
X031086Y017224D02*
X032515Y017224D01*
X032507Y017221D02*
X032432Y017183D01*
X032365Y017134D01*
X032306Y017075D01*
X032257Y017008D01*
X032219Y016933D01*
X032193Y016854D01*
X032180Y016772D01*
X032180Y016410D01*
X032660Y016410D01*
X032660Y017259D01*
X032586Y017247D01*
X032507Y017221D01*
X032660Y017224D02*
X032760Y017224D01*
X032760Y017106D02*
X032660Y017106D01*
X032660Y016987D02*
X032760Y016987D01*
X032760Y016869D02*
X032660Y016869D01*
X032660Y016750D02*
X032760Y016750D01*
X032760Y016632D02*
X032660Y016632D01*
X032660Y016513D02*
X032760Y016513D01*
X032760Y016410D02*
X032660Y016410D01*
X032660Y016310D01*
X032760Y016310D01*
X032760Y016410D01*
X032760Y016395D02*
X038080Y016395D01*
X038080Y016513D02*
X033240Y016513D01*
X033240Y016310D02*
X032760Y016310D01*
X032760Y015461D01*
X032834Y015473D01*
X032913Y015499D01*
X032988Y015537D01*
X033055Y015586D01*
X033114Y015645D01*
X033163Y015712D01*
X033201Y015787D01*
X033227Y015866D01*
X033240Y015948D01*
X033240Y016310D01*
X033240Y016276D02*
X038080Y016276D01*
X038080Y016158D02*
X033240Y016158D01*
X033240Y016039D02*
X038080Y016039D01*
X038102Y015921D02*
X033236Y015921D01*
X033206Y015802D02*
X038151Y015802D01*
X038246Y015684D02*
X033142Y015684D01*
X033027Y015565D02*
X038412Y015565D01*
X038908Y015565D02*
X040393Y015565D01*
X040365Y015586D02*
X040432Y015537D01*
X040507Y015499D01*
X040586Y015473D01*
X040660Y015461D01*
X040660Y016310D01*
X040180Y016310D01*
X040180Y015948D01*
X040193Y015866D01*
X040219Y015787D01*
X040257Y015712D01*
X040306Y015645D01*
X040365Y015586D01*
X040278Y015684D02*
X039074Y015684D01*
X039169Y015802D02*
X040214Y015802D01*
X040184Y015921D02*
X039218Y015921D01*
X039240Y016039D02*
X040180Y016039D01*
X040180Y016158D02*
X039240Y016158D01*
X039240Y016276D02*
X040180Y016276D01*
X040180Y016513D02*
X039240Y016513D01*
X039240Y016395D02*
X040660Y016395D01*
X040660Y016276D02*
X040760Y016276D01*
X040760Y016158D02*
X040660Y016158D01*
X040660Y016039D02*
X040760Y016039D01*
X040760Y015921D02*
X040660Y015921D01*
X040660Y015802D02*
X040760Y015802D01*
X040760Y015684D02*
X040660Y015684D01*
X040660Y015565D02*
X040760Y015565D01*
X040180Y016632D02*
X039240Y016632D01*
X039240Y016750D02*
X040180Y016750D01*
X040198Y016869D02*
X039240Y016869D01*
X039223Y016987D02*
X040246Y016987D01*
X040336Y017106D02*
X039174Y017106D01*
X038680Y017698D02*
X042062Y017698D01*
X042096Y017580D02*
X038561Y017580D01*
X038443Y017461D02*
X041984Y017461D01*
X041943Y017817D02*
X038798Y017817D01*
X038917Y017935D02*
X041885Y017935D01*
X041840Y018054D02*
X039035Y018054D01*
X039154Y018172D02*
X041840Y018172D01*
X041846Y018291D02*
X039272Y018291D01*
X039391Y018409D02*
X041895Y018409D01*
X041967Y018528D02*
X039509Y018528D01*
X039628Y018646D02*
X042086Y018646D01*
X041995Y018765D02*
X041673Y018765D01*
X041800Y018883D02*
X041907Y018883D01*
X041858Y019002D02*
X041830Y019002D01*
X041375Y019357D02*
X041331Y019357D01*
X041466Y019476D02*
X041494Y019476D01*
X041548Y019594D02*
X041612Y019594D01*
X041597Y019713D02*
X041640Y019713D01*
X041640Y019831D02*
X041610Y019831D01*
X041610Y019950D02*
X041640Y019950D01*
X041640Y020068D02*
X041572Y020068D01*
X041523Y020187D02*
X041640Y020187D01*
X041640Y020305D02*
X041405Y020305D01*
X041185Y020424D02*
X041640Y020424D01*
X041640Y020542D02*
X040360Y020542D01*
X040241Y020661D02*
X041640Y020661D01*
X041640Y020779D02*
X040123Y020779D01*
X040004Y020898D02*
X041640Y020898D01*
X041640Y021016D02*
X039886Y021016D01*
X039767Y021135D02*
X041640Y021135D01*
X041640Y021253D02*
X039649Y021253D01*
X039484Y021372D02*
X041640Y021372D01*
X039833Y020305D02*
X039240Y020305D01*
X039240Y020345D02*
X039152Y020559D01*
X038989Y020722D01*
X038775Y020810D01*
X038545Y020810D01*
X038331Y020722D01*
X038168Y020559D01*
X038080Y020345D01*
X038080Y019375D01*
X038168Y019161D01*
X038331Y018998D01*
X038545Y018910D01*
X038775Y018910D01*
X038989Y018998D01*
X039152Y019161D01*
X039240Y019375D01*
X039240Y020345D01*
X039208Y020424D02*
X039715Y020424D01*
X039596Y020542D02*
X039159Y020542D01*
X039050Y020661D02*
X039478Y020661D01*
X039359Y020779D02*
X038850Y020779D01*
X038470Y020779D02*
X036761Y020779D01*
X036642Y020661D02*
X038270Y020661D01*
X038161Y020542D02*
X036524Y020542D01*
X036405Y020424D02*
X038112Y020424D01*
X038080Y020305D02*
X036287Y020305D01*
X036168Y020187D02*
X038080Y020187D01*
X038080Y020068D02*
X036050Y020068D01*
X035931Y019950D02*
X038080Y019950D01*
X038080Y019831D02*
X035813Y019831D01*
X035978Y019713D02*
X035342Y019713D01*
X035546Y019594D02*
X035774Y019594D01*
X035663Y019476D02*
X035657Y019476D01*
X035660Y020060D02*
X032510Y020060D01*
X031833Y020305D02*
X031240Y020305D01*
X031240Y020187D02*
X031797Y020187D01*
X031748Y020068D02*
X031240Y020068D01*
X031240Y019950D02*
X031710Y019950D01*
X031251Y019831D02*
X031240Y019831D01*
X031208Y020424D02*
X031715Y020424D01*
X031596Y020542D02*
X031159Y020542D01*
X031050Y020661D02*
X031478Y020661D01*
X031359Y020779D02*
X030850Y020779D01*
X030470Y020779D02*
X028761Y020779D01*
X028642Y020661D02*
X030270Y020661D01*
X030161Y020542D02*
X028524Y020542D01*
X028405Y020424D02*
X030112Y020424D01*
X030080Y020305D02*
X028287Y020305D01*
X028168Y020187D02*
X030080Y020187D01*
X030080Y020068D02*
X028050Y020068D01*
X027931Y019950D02*
X030080Y019950D01*
X030080Y019831D02*
X027813Y019831D01*
X027978Y019713D02*
X027342Y019713D01*
X027546Y019594D02*
X027774Y019594D01*
X027663Y019476D02*
X027657Y019476D01*
X026238Y019713D02*
X025597Y019713D01*
X025548Y019594D02*
X026034Y019594D01*
X025923Y019476D02*
X025466Y019476D01*
X025331Y019357D02*
X025874Y019357D01*
X025185Y020424D02*
X027642Y020424D01*
X027760Y020542D02*
X024360Y020542D01*
X028239Y022201D02*
X035081Y022201D01*
X034892Y022083D02*
X028428Y022083D01*
X028532Y021964D02*
X034788Y021964D01*
X034739Y021846D02*
X028581Y021846D01*
X028610Y021727D02*
X034710Y021727D01*
X034710Y021609D02*
X028610Y021609D01*
X028587Y021490D02*
X034733Y021490D01*
X034782Y021372D02*
X031484Y021372D01*
X031649Y021253D02*
X034877Y021253D01*
X035043Y021135D02*
X031767Y021135D01*
X033185Y020424D02*
X035642Y020424D01*
X035660Y020060D02*
X036710Y021110D01*
X039410Y021110D01*
X040660Y019860D01*
X039989Y019357D02*
X039233Y019357D01*
X039240Y019476D02*
X039854Y019476D01*
X039772Y019594D02*
X039240Y019594D01*
X039240Y019713D02*
X039723Y019713D01*
X039710Y019831D02*
X039240Y019831D01*
X039240Y019950D02*
X039710Y019950D01*
X039748Y020068D02*
X039240Y020068D01*
X039240Y020187D02*
X039797Y020187D01*
X039457Y019239D02*
X039184Y019239D01*
X039110Y019120D02*
X039338Y019120D01*
X039220Y019002D02*
X038992Y019002D01*
X039101Y018883D02*
X037413Y018883D01*
X037462Y019002D02*
X038328Y019002D01*
X038210Y019120D02*
X037480Y019120D01*
X037480Y019239D02*
X038136Y019239D01*
X038087Y019357D02*
X037446Y019357D01*
X037397Y019476D02*
X038080Y019476D01*
X038080Y019594D02*
X037286Y019594D01*
X037082Y019713D02*
X038080Y019713D01*
X037325Y018765D02*
X038983Y018765D01*
X038864Y018646D02*
X037234Y018646D01*
X037353Y018528D02*
X038746Y018528D01*
X038627Y018409D02*
X037425Y018409D01*
X037474Y018291D02*
X038509Y018291D01*
X038390Y018172D02*
X037480Y018172D01*
X037480Y018054D02*
X038272Y018054D01*
X038153Y017935D02*
X037435Y017935D01*
X037377Y017817D02*
X038035Y017817D01*
X037916Y017698D02*
X037258Y017698D01*
X037301Y017580D02*
X037798Y017580D01*
X037679Y017461D02*
X037403Y017461D01*
X037407Y016869D02*
X038080Y016869D01*
X038069Y016987D02*
X038097Y016987D01*
X038130Y017106D02*
X038146Y017106D01*
X038206Y017224D02*
X038234Y017224D01*
X038324Y017343D02*
X038382Y017343D01*
X038080Y016750D02*
X037310Y016750D01*
X037140Y016632D02*
X038080Y016632D01*
X036522Y014989D02*
X036359Y015152D01*
X036145Y015240D01*
X035175Y015240D01*
X034961Y015152D01*
X034798Y014989D01*
X034710Y014775D01*
X034710Y014545D01*
X034798Y014331D01*
X034961Y014168D01*
X035175Y014080D01*
X036145Y014080D01*
X036359Y014168D01*
X036522Y014331D01*
X036610Y014545D01*
X036610Y014775D01*
X036522Y014989D01*
X036528Y014973D02*
X042792Y014973D01*
X042743Y014854D02*
X036577Y014854D01*
X036610Y014736D02*
X042710Y014736D01*
X042710Y014617D02*
X036610Y014617D01*
X036591Y014499D02*
X042729Y014499D01*
X042778Y014380D02*
X036542Y014380D01*
X036452Y014262D02*
X042868Y014262D01*
X043022Y014143D02*
X036298Y014143D01*
X035022Y014143D02*
X032513Y014143D01*
X032444Y014262D02*
X034868Y014262D01*
X034778Y014380D02*
X032327Y014380D01*
X032422Y014300D02*
X032422Y014300D01*
X032185Y014499D02*
X034729Y014499D01*
X034710Y014617D02*
X031896Y014617D01*
X032158Y014522D02*
X032158Y014522D01*
X031424Y014617D02*
X028610Y014617D01*
X028610Y014545D02*
X028610Y014775D01*
X028522Y014989D01*
X028359Y015152D01*
X028145Y015240D01*
X027175Y015240D01*
X026961Y015152D01*
X026798Y014989D01*
X026710Y014775D01*
X026710Y014545D01*
X026798Y014331D01*
X026961Y014168D01*
X027175Y014080D01*
X028145Y014080D01*
X028359Y014168D01*
X028522Y014331D01*
X028610Y014545D01*
X028591Y014499D02*
X031135Y014499D01*
X031162Y014522D02*
X031162Y014522D01*
X030993Y014380D02*
X028542Y014380D01*
X028452Y014262D02*
X030876Y014262D01*
X030898Y014300D02*
X030898Y014300D01*
X030807Y014143D02*
X028298Y014143D01*
X028610Y014736D02*
X034710Y014736D01*
X034743Y014854D02*
X028577Y014854D01*
X028528Y014973D02*
X034792Y014973D01*
X034901Y015091D02*
X028419Y015091D01*
X028219Y015210D02*
X035101Y015210D01*
X036219Y015210D02*
X043101Y015210D01*
X042901Y015091D02*
X036419Y015091D01*
X032760Y015565D02*
X032660Y015565D01*
X032660Y015461D02*
X032660Y016310D01*
X032180Y016310D01*
X032180Y015948D01*
X032193Y015866D01*
X032219Y015787D01*
X032257Y015712D01*
X032306Y015645D01*
X032365Y015586D01*
X032432Y015537D01*
X032507Y015499D01*
X032586Y015473D01*
X032660Y015461D01*
X032660Y015684D02*
X032760Y015684D01*
X032760Y015802D02*
X032660Y015802D01*
X032660Y015921D02*
X032760Y015921D01*
X032760Y016039D02*
X032660Y016039D01*
X032660Y016158D02*
X032760Y016158D01*
X032760Y016276D02*
X032660Y016276D01*
X032660Y016395D02*
X031240Y016395D01*
X031240Y016513D02*
X032180Y016513D01*
X032180Y016632D02*
X031240Y016632D01*
X031240Y016750D02*
X032180Y016750D01*
X032198Y016869D02*
X031240Y016869D01*
X031223Y016987D02*
X032246Y016987D01*
X032336Y017106D02*
X031174Y017106D01*
X031240Y016276D02*
X032180Y016276D01*
X032180Y016158D02*
X031240Y016158D01*
X031240Y016039D02*
X032180Y016039D01*
X032184Y015921D02*
X031218Y015921D01*
X031169Y015802D02*
X032214Y015802D01*
X032278Y015684D02*
X031074Y015684D01*
X030908Y015565D02*
X032393Y015565D01*
X029590Y017461D02*
X029403Y017461D01*
X029301Y017580D02*
X029617Y017580D01*
X029716Y017698D02*
X029258Y017698D01*
X029377Y017817D02*
X029835Y017817D01*
X029953Y017935D02*
X029435Y017935D01*
X029480Y018054D02*
X030072Y018054D01*
X030190Y018172D02*
X029480Y018172D01*
X029474Y018291D02*
X030309Y018291D01*
X030427Y018409D02*
X029425Y018409D01*
X029353Y018528D02*
X030546Y018528D01*
X030664Y018646D02*
X029234Y018646D01*
X029325Y018765D02*
X030783Y018765D01*
X030901Y018883D02*
X029413Y018883D01*
X029462Y019002D02*
X030328Y019002D01*
X030210Y019120D02*
X029480Y019120D01*
X029480Y019239D02*
X030136Y019239D01*
X030087Y019357D02*
X029446Y019357D01*
X029397Y019476D02*
X030080Y019476D01*
X030080Y019594D02*
X029286Y019594D01*
X029082Y019713D02*
X030080Y019713D01*
X030992Y019002D02*
X031020Y019002D01*
X031110Y019120D02*
X031138Y019120D01*
X031184Y019239D02*
X031202Y019239D01*
X033331Y019357D02*
X033874Y019357D01*
X033923Y019476D02*
X033466Y019476D01*
X033548Y019594D02*
X034034Y019594D01*
X034238Y019713D02*
X033597Y019713D01*
X028636Y021372D02*
X028538Y021372D01*
X028471Y021253D02*
X028443Y021253D01*
X028353Y021135D02*
X028277Y021135D01*
X021716Y017698D02*
X021258Y017698D01*
X021301Y017580D02*
X021617Y017580D01*
X021590Y017461D02*
X021403Y017461D01*
X020219Y015210D02*
X027101Y015210D01*
X026901Y015091D02*
X020419Y015091D01*
X020528Y014973D02*
X026792Y014973D01*
X026743Y014854D02*
X020577Y014854D01*
X020610Y014736D02*
X026710Y014736D01*
X026710Y014617D02*
X020610Y014617D01*
X020591Y014499D02*
X026729Y014499D01*
X026778Y014380D02*
X020542Y014380D01*
X020452Y014262D02*
X026868Y014262D01*
X027022Y014143D02*
X020298Y014143D01*
X019965Y006085D02*
X027355Y006085D01*
X027965Y006085D02*
X035355Y006085D01*
X035965Y006085D02*
X043355Y006085D01*
X042732Y004189D02*
X035407Y004189D01*
X035516Y004308D02*
X035874Y004308D01*
X035854Y004426D02*
X035516Y004426D01*
X034732Y004189D02*
X027407Y004189D01*
X027516Y004308D02*
X027874Y004308D01*
X027854Y004426D02*
X027516Y004426D01*
X026732Y004189D02*
X019407Y004189D01*
X019516Y004308D02*
X019874Y004308D01*
X019854Y004426D02*
X019516Y004426D01*
X052162Y009522D02*
X052162Y009522D01*
X053158Y009522D02*
X053158Y009522D01*
D18*
X043660Y005810D03*
X035660Y005810D03*
X027660Y005810D03*
X019660Y005810D03*
X011660Y005810D03*
X011660Y008510D03*
X023510Y019510D03*
X031510Y019510D03*
X014260Y020760D03*
M02*
