G75*
G70*
%OFA0B0*%
%FSLAX24Y24*%
%IPPOS*%
%LPD*%
%AMOC8*
5,1,8,0,0,1.08239X$1,22.5*
%
%ADD10C,0.0080*%
%ADD11C,0.0050*%
%ADD12R,0.0300X0.0180*%
D10*
X010910Y016660D02*
X012410Y016660D01*
X012410Y017660D02*
X010910Y017660D01*
X010910Y018660D02*
X012410Y018660D01*
X013542Y018910D02*
X013542Y019410D01*
X012410Y019660D02*
X010910Y019660D01*
X018910Y019660D02*
X020410Y019660D01*
X021542Y019410D02*
X021542Y018910D01*
X020410Y018660D02*
X018910Y018660D01*
X018910Y017660D02*
X020410Y017660D01*
X020410Y016660D02*
X018910Y016660D01*
X026910Y016660D02*
X028410Y016660D01*
X028410Y017660D02*
X026910Y017660D01*
X026910Y018660D02*
X028410Y018660D01*
X029542Y018910D02*
X029542Y019410D01*
X028410Y019660D02*
X026910Y019660D01*
X034910Y019660D02*
X036410Y019660D01*
X037542Y019410D02*
X037542Y018910D01*
X036410Y018660D02*
X034910Y018660D01*
X034910Y017660D02*
X036410Y017660D01*
X036410Y016660D02*
X034910Y016660D01*
X042910Y016660D02*
X044410Y016660D01*
X044410Y017660D02*
X042910Y017660D01*
X042910Y018660D02*
X044410Y018660D01*
X045542Y018910D02*
X045542Y019410D01*
X044410Y019660D02*
X042910Y019660D01*
X010144Y025188D02*
X010144Y026132D01*
X009554Y026132D01*
X008766Y026132D02*
X008333Y026132D01*
X008176Y025975D01*
X008176Y025345D01*
X008333Y025188D01*
X008766Y025188D01*
X009554Y025188D02*
X010144Y025188D01*
X009266Y027341D02*
X009054Y027341D01*
X008600Y027491D02*
X008600Y027829D01*
X009720Y027829D02*
X009720Y027491D01*
X009554Y029188D02*
X009987Y029188D01*
X010144Y029345D01*
X010144Y029975D01*
X009987Y030132D01*
X009554Y030132D01*
X008766Y030132D02*
X008176Y030132D01*
X008176Y029188D01*
X008766Y029188D01*
X008910Y030860D02*
X009410Y030860D01*
X009410Y031460D02*
X008910Y031460D01*
D11*
X009310Y030060D02*
X009310Y029260D01*
X009010Y026060D02*
X009010Y025260D01*
D12*
X011660Y007660D03*
X019660Y007660D03*
X027660Y007660D03*
X035660Y007660D03*
X043660Y007660D03*
M02*
