G75*
G70*
%OFA0B0*%
%FSLAX24Y24*%
%IPPOS*%
%LPD*%
%AMOC8*
5,1,8,0,0,1.08239X$1,22.5*
%
%ADD10R,0.0870X0.0240*%
%ADD11R,0.0276X0.0354*%
D10*
X004410Y004990D03*
X004410Y005490D03*
X004410Y005990D03*
X004410Y006490D03*
X007060Y006490D03*
X007060Y005990D03*
X007060Y005490D03*
X007060Y004990D03*
X012410Y004990D03*
X012410Y005490D03*
X012410Y005990D03*
X012410Y006490D03*
X015060Y006490D03*
X015060Y005990D03*
X015060Y005490D03*
X015060Y004990D03*
X020410Y004990D03*
X020410Y005490D03*
X020410Y005990D03*
X020410Y006490D03*
X023060Y006490D03*
X023060Y005990D03*
X023060Y005490D03*
X023060Y004990D03*
X028410Y004990D03*
X028410Y005490D03*
X028410Y005990D03*
X028410Y006490D03*
X031060Y006490D03*
X031060Y005990D03*
X031060Y005490D03*
X031060Y004990D03*
X036410Y004990D03*
X036410Y005490D03*
X036410Y005990D03*
X036410Y006490D03*
X039060Y006490D03*
X039060Y005990D03*
X039060Y005490D03*
X039060Y004990D03*
X039060Y012990D03*
X039060Y013490D03*
X039060Y013990D03*
X039060Y014490D03*
X036410Y014490D03*
X036410Y013990D03*
X036410Y013490D03*
X036410Y012990D03*
X031060Y012990D03*
X031060Y013490D03*
X031060Y013990D03*
X031060Y014490D03*
X028410Y014490D03*
X028410Y013990D03*
X028410Y013490D03*
X028410Y012990D03*
X023060Y012990D03*
X023060Y013490D03*
X023060Y013990D03*
X023060Y014490D03*
X020410Y014490D03*
X020410Y013990D03*
X020410Y013490D03*
X020410Y012990D03*
X015060Y012990D03*
X015060Y013490D03*
X015060Y013990D03*
X015060Y014490D03*
X012410Y014490D03*
X012410Y013990D03*
X012410Y013490D03*
X012410Y012990D03*
X007060Y012990D03*
X007060Y013490D03*
X007060Y013990D03*
X007060Y014490D03*
X004410Y014490D03*
X004410Y013990D03*
X004410Y013490D03*
X004410Y012990D03*
X004410Y020990D03*
X004410Y021490D03*
X004410Y021990D03*
X004410Y022490D03*
X007060Y022490D03*
X007060Y021990D03*
X007060Y021490D03*
X007060Y020990D03*
X012410Y020990D03*
X012410Y021490D03*
X012410Y021990D03*
X012410Y022490D03*
X015060Y022490D03*
X015060Y021990D03*
X015060Y021490D03*
X015060Y020990D03*
X020410Y020990D03*
X020410Y021490D03*
X020410Y021990D03*
X020410Y022490D03*
X023060Y022490D03*
X023060Y021990D03*
X023060Y021490D03*
X023060Y020990D03*
X028410Y020990D03*
X028410Y021490D03*
X028410Y021990D03*
X028410Y022490D03*
X031060Y022490D03*
X031060Y021990D03*
X031060Y021490D03*
X031060Y020990D03*
X036410Y020990D03*
X036410Y021490D03*
X036410Y021990D03*
X036410Y022490D03*
X039060Y022490D03*
X039060Y021990D03*
X039060Y021490D03*
X039060Y020990D03*
X039060Y028990D03*
X039060Y029490D03*
X039060Y029990D03*
X039060Y030490D03*
X036410Y030490D03*
X036410Y029990D03*
X036410Y029490D03*
X036410Y028990D03*
X031060Y028990D03*
X031060Y029490D03*
X031060Y029990D03*
X031060Y030490D03*
X028410Y030490D03*
X028410Y029990D03*
X028410Y029490D03*
X028410Y028990D03*
X023060Y028990D03*
X023060Y029490D03*
X023060Y029990D03*
X023060Y030490D03*
X020410Y030490D03*
X020410Y029990D03*
X020410Y029490D03*
X020410Y028990D03*
X015060Y028990D03*
X015060Y029490D03*
X015060Y029990D03*
X015060Y030490D03*
X012410Y030490D03*
X012410Y029990D03*
X012410Y029490D03*
X012410Y028990D03*
X007060Y028990D03*
X007060Y029490D03*
X007060Y029990D03*
X007060Y030490D03*
X004410Y030490D03*
X004410Y029990D03*
X004410Y029490D03*
X004410Y028990D03*
X004410Y036990D03*
X004410Y037490D03*
X004410Y037990D03*
X004410Y038490D03*
X007060Y038490D03*
X007060Y037990D03*
X007060Y037490D03*
X007060Y036990D03*
X012410Y036990D03*
X012410Y037490D03*
X012410Y037990D03*
X012410Y038490D03*
X015060Y038490D03*
X015060Y037990D03*
X015060Y037490D03*
X015060Y036990D03*
X020410Y036990D03*
X020410Y037490D03*
X020410Y037990D03*
X020410Y038490D03*
X023060Y038490D03*
X023060Y037990D03*
X023060Y037490D03*
X023060Y036990D03*
X028410Y036990D03*
X028410Y037490D03*
X028410Y037990D03*
X028410Y038490D03*
X031060Y038490D03*
X031060Y037990D03*
X031060Y037490D03*
X031060Y036990D03*
X036410Y036990D03*
X036410Y037490D03*
X036410Y037990D03*
X036410Y038490D03*
X039060Y038490D03*
X039060Y037990D03*
X039060Y037490D03*
X039060Y036990D03*
D11*
X037996Y039240D03*
X037996Y039740D03*
X037484Y039740D03*
X037484Y039240D03*
X029996Y039240D03*
X029996Y039740D03*
X029484Y039740D03*
X029484Y039240D03*
X021996Y039240D03*
X021996Y039740D03*
X021484Y039740D03*
X021484Y039240D03*
X013996Y039240D03*
X013996Y039740D03*
X013484Y039740D03*
X013484Y039240D03*
X005996Y039240D03*
X005996Y039740D03*
X005484Y039740D03*
X005484Y039240D03*
X005484Y031740D03*
X005484Y031240D03*
X005996Y031240D03*
X005996Y031740D03*
X013484Y031740D03*
X013484Y031240D03*
X013996Y031240D03*
X013996Y031740D03*
X021484Y031740D03*
X021484Y031240D03*
X021996Y031240D03*
X021996Y031740D03*
X029484Y031740D03*
X029484Y031240D03*
X029996Y031240D03*
X029996Y031740D03*
X037484Y031740D03*
X037484Y031240D03*
X037996Y031240D03*
X037996Y031740D03*
X037996Y023740D03*
X037996Y023240D03*
X037484Y023240D03*
X037484Y023740D03*
X029996Y023740D03*
X029996Y023240D03*
X029484Y023240D03*
X029484Y023740D03*
X021996Y023740D03*
X021996Y023240D03*
X021484Y023240D03*
X021484Y023740D03*
X013996Y023740D03*
X013996Y023240D03*
X013484Y023240D03*
X013484Y023740D03*
X005996Y023740D03*
X005996Y023240D03*
X005484Y023240D03*
X005484Y023740D03*
X005484Y015740D03*
X005484Y015240D03*
X005996Y015240D03*
X005996Y015740D03*
X013484Y015740D03*
X013484Y015240D03*
X013996Y015240D03*
X013996Y015740D03*
X021484Y015740D03*
X021484Y015240D03*
X021996Y015240D03*
X021996Y015740D03*
X029484Y015740D03*
X029484Y015240D03*
X029996Y015240D03*
X029996Y015740D03*
X037484Y015740D03*
X037484Y015240D03*
X037996Y015240D03*
X037996Y015740D03*
X037996Y007740D03*
X037996Y007240D03*
X037484Y007240D03*
X037484Y007740D03*
X029996Y007740D03*
X029996Y007240D03*
X029484Y007240D03*
X029484Y007740D03*
X021996Y007740D03*
X021996Y007240D03*
X021484Y007240D03*
X021484Y007740D03*
X013996Y007740D03*
X013996Y007240D03*
X013484Y007240D03*
X013484Y007740D03*
X005996Y007740D03*
X005996Y007240D03*
X005484Y007240D03*
X005484Y007740D03*
M02*
